SplineFontDB: 3.2
FontName: Untitled1
FullName: Untitled1
FamilyName: Untitled1
Weight: Regular
Copyright: Copyright (c) 2020, zorigt
UComments: "2020-7-28: Created with FontForge (http://fontforge.org)"
Version: 001.000
ItalicAngle: 0
UnderlinePosition: -204.395
UnderlineWidth: 100.174
Ascent: 1638
Descent: 410
InvalidEm: 0
LayerCount: 2
Layer: 0 1 "Back" 1
Layer: 1 1 "Fore" 0
XUID: [1021 544 -1892048230 1922997]
FSType: 0
OS2Version: 3
OS2_WeightWidthSlopeOnly: 0
OS2_UseTypoMetrics: 0
CreationTime: 1595937272
ModificationTime: 1596042136
PfmFamily: 17
TTFWeight: 400
TTFWidth: 5
LineGap: 204
VLineGap: 0
OS2TypoAscent: 1432
OS2TypoAOffset: 0
OS2TypoDescent: -428
OS2TypoDOffset: 0
OS2TypoLinegap: 204
OS2WinAscent: 1856
OS2WinAOffset: 0
OS2WinDescent: 512
OS2WinDOffset: 0
HheadAscent: 1432
HheadAOffset: 0
HheadDescent: -428
HheadDOffset: 0
OS2SubXSize: 1434
OS2SubYSize: 1332
OS2SubXOff: 0
OS2SubYOff: 286
OS2SupXSize: 1434
OS2SupYSize: 1332
OS2SupXOff: 0
OS2SupYOff: 976
OS2StrikeYSize: 102
OS2StrikeYPos: 498
OS2CapHeight: 1356
OS2XHeight: 924
OS2Vendor: '    '
MarkAttachClasses: 1
DEI: 91125
LangName: 1033
Encoding: UnicodeBmp
UnicodeInterp: none
NameList: AGL For New Fonts
DisplaySize: -48
AntiAlias: 1
FitToEm: 0
WinInfo: 57532 38 13
BeginPrivate: 0
EndPrivate
TeXData: 1 0 0 290304 145152 96768 468992 -1048576 96768 783286 444596 497025 792723 393216 433062 380633 303038 157286 324010 404750 52429 2506097 1059062 262144
BeginChars: 65536 296

StartChar: uniE000
Encoding: 57344 57344 0
Width: 1741
Flags: W
LayerCount: 2
Fore
SplineSet
596 670 m 5,0,1
 594 572 594 572 581 473.5 c 132,-1,2
 568 375 568 375 551 273 c 5,3,-1
 504 262 l 5,4,5
 478 316 478 316 460.5 382 c 132,-1,6
 443 448 443 448 430 513 c 132,-1,7
 417 578 417 578 411 631 c 132,-1,8
 405 684 405 684 405 709 c 6,9,-1
 405 900 l 6,10,11
 405 952 405 952 393.5 983.5 c 132,-1,12
 382 1015 382 1015 354 1015 c 4,13,14
 333 1015 333 1015 316.5 1011.5 c 132,-1,15
 300 1008 300 1008 285.5 1001 c 132,-1,16
 271 994 271 994 256 986 c 132,-1,17
 241 978 241 978 221 963 c 4,18,19
 192 943 192 943 174 926 c 132,-1,20
 156 909 156 909 147 909 c 5,21,22
 132 924 132 924 121.5 939 c 132,-1,23
 111 954 111 954 111 966 c 5,24,25
 125 981 125 981 142.5 1003.5 c 132,-1,26
 160 1026 160 1026 177 1044 c 4,27,28
 264 1141 264 1141 324.5 1185.5 c 132,-1,29
 385 1230 385 1230 428 1230 c 4,30,31
 488 1230 488 1230 519.5 1174 c 132,-1,32
 551 1118 551 1118 551 1026 c 6,33,-1
 551 900 l 5,34,-1
 881 900 l 5,35,-1
 881 761 l 6,36,37
 881 714 881 714 898.5 654 c 132,-1,38
 916 594 916 594 942 536 c 132,-1,39
 968 478 968 478 995 431.5 c 132,-1,40
 1022 385 1022 385 1046 365 c 5,41,42
 1040 383 1040 383 1040 416 c 4,43,44
 1040 437 1040 437 1043 463 c 4,45,46
 1049 526 1049 526 1077.5 655.5 c 132,-1,47
 1106 785 1106 785 1192.5 1003 c 132,-1,48
 1279 1221 1279 1221 1319 1370.5 c 132,-1,49
 1359 1520 1359 1520 1359 1560 c 4,50,51
 1359 1586 1359 1586 1353.5 1619.5 c 132,-1,52
 1348 1653 1348 1653 1342 1687.5 c 132,-1,53
 1336 1722 1336 1722 1329.5 1751.5 c 132,-1,54
 1323 1781 1323 1781 1323 1790 c 4,55,56
 1323 1824 1323 1824 1332 1839.5 c 132,-1,57
 1341 1855 1341 1855 1366 1855 c 4,58,59
 1373 1855 1373 1855 1386 1838 c 132,-1,60
 1399 1821 1399 1821 1413 1797 c 4,61,62
 1444 1739 1444 1739 1467.5 1691.5 c 132,-1,63
 1491 1644 1491 1644 1513.5 1597 c 132,-1,64
 1536 1550 1536 1550 1561 1501.5 c 132,-1,65
 1586 1453 1586 1453 1615 1395 c 5,66,67
 1523 1276 1523 1276 1458.5 1182.5 c 132,-1,68
 1394 1089 1394 1089 1326 918 c 132,-1,69
 1258 747 1258 747 1201.5 544.5 c 132,-1,70
 1145 342 1145 342 1145 145 c 5,71,72
 1074 181 1074 181 1013 245 c 132,-1,73
 952 309 952 309 906 383 c 132,-1,74
 860 457 860 457 830.5 532.5 c 132,-1,75
 801 608 801 608 797 670 c 5,76,-1
 596 670 l 5,0,1
EndSplineSet
EndChar

StartChar: uniE001
Encoding: 57345 57345 1
Width: 1199
Flags: W
LayerCount: 2
Fore
SplineSet
533 670 m 1,0,1
 531 572 531 572 518 473.5 c 128,-1,2
 505 375 505 375 488 273 c 1,3,-1
 441 262 l 1,4,5
 415 316 415 316 397.5 382 c 128,-1,6
 380 448 380 448 367 513 c 128,-1,7
 354 578 354 578 348 631 c 128,-1,8
 342 684 342 684 342 709 c 2,9,-1
 342 900 l 2,10,11
 342 952 342 952 330.5 983.5 c 128,-1,12
 319 1015 319 1015 291 1015 c 0,13,14
 270 1015 270 1015 253.5 1011.5 c 128,-1,15
 237 1008 237 1008 222.5 1001 c 128,-1,16
 208 994 208 994 193 986 c 128,-1,17
 178 978 178 978 158 963 c 0,18,19
 129 943 129 943 111 926 c 128,-1,20
 93 909 93 909 84 909 c 1,21,22
 69 924 69 924 58.5 939 c 128,-1,23
 48 954 48 954 48 966 c 1,24,25
 62 981 62 981 79.5 1003.5 c 128,-1,26
 97 1026 97 1026 114 1044 c 0,27,28
 201 1141 201 1141 261.5 1185.5 c 128,-1,29
 322 1230 322 1230 365 1230 c 0,30,31
 425 1230 425 1230 456.5 1174 c 128,-1,32
 488 1118 488 1118 488 1026 c 2,33,-1
 488 900 l 1,34,-1
 906 900 l 2,35,36
 1033 900 1033 900 1096.5 785.5 c 128,-1,37
 1160 671 1160 671 1160 438 c 2,38,-1
 1160 22 l 2,39,40
 1160 -65 1160 -65 1144 -129 c 128,-1,41
 1128 -193 1128 -193 1097.5 -240.5 c 128,-1,42
 1067 -288 1067 -288 1021 -322 c 128,-1,43
 975 -356 975 -356 917 -382 c 0,44,45
 882 -397 882 -397 862.5 -409 c 128,-1,46
 843 -421 843 -421 828.5 -434.5 c 128,-1,47
 814 -448 814 -448 803.5 -466 c 128,-1,48
 793 -484 793 -484 780 -513 c 1,49,-1
 757 -513 l 1,50,-1
 823 -226 l 1,51,52
 837 -222 837 -222 850.5 -218 c 128,-1,53
 864 -214 864 -214 880 -209 c 128,-1,54
 896 -204 896 -204 913.5 -194.5 c 128,-1,55
 931 -185 931 -185 957 -170 c 0,56,57
 972 -161 972 -161 991.5 -148 c 128,-1,58
 1011 -135 1011 -135 1027.5 -112.5 c 128,-1,59
 1044 -90 1044 -90 1055.5 -57 c 128,-1,60
 1067 -24 1067 -24 1067 22 c 2,61,-1
 1067 438 l 2,62,63
 1067 552 1067 552 1024.5 611 c 128,-1,64
 982 670 982 670 906 670 c 2,65,-1
 533 670 l 1,0,1
EndSplineSet
EndChar

StartChar: uniE002
Encoding: 57346 57346 2
Width: 1431
Flags: W
LayerCount: 2
Fore
SplineSet
569 670 m 1,0,1
 567 572 567 572 554 473.5 c 128,-1,2
 541 375 541 375 524 273 c 1,3,-1
 477 262 l 1,4,5
 451 316 451 316 433.5 382 c 128,-1,6
 416 448 416 448 403 513 c 128,-1,7
 390 578 390 578 384 631 c 128,-1,8
 378 684 378 684 378 709 c 2,9,-1
 378 900 l 2,10,11
 378 952 378 952 366.5 983.5 c 128,-1,12
 355 1015 355 1015 327 1015 c 0,13,14
 306 1015 306 1015 289.5 1011.5 c 128,-1,15
 273 1008 273 1008 258.5 1001 c 128,-1,16
 244 994 244 994 229 986 c 128,-1,17
 214 978 214 978 194 963 c 0,18,19
 165 943 165 943 147 926 c 128,-1,20
 129 909 129 909 120 909 c 1,21,22
 105 924 105 924 94.5 939 c 128,-1,23
 84 954 84 954 84 966 c 1,24,25
 98 981 98 981 115.5 1003.5 c 128,-1,26
 133 1026 133 1026 150 1044 c 0,27,28
 237 1141 237 1141 297.5 1185.5 c 128,-1,29
 358 1230 358 1230 401 1230 c 0,30,31
 461 1230 461 1230 492.5 1174 c 128,-1,32
 524 1118 524 1118 524 1026 c 2,33,-1
 524 900 l 1,34,-1
 774 900 l 1,35,36
 790 1127 790 1127 861 1250.5 c 128,-1,37
 932 1374 932 1374 1057 1374 c 0,38,39
 1127 1374 1127 1374 1176.5 1327 c 128,-1,40
 1226 1280 1226 1280 1254.5 1204.5 c 128,-1,41
 1283 1129 1283 1129 1293.5 1034.5 c 128,-1,42
 1304 940 1304 940 1304 846 c 0,43,44
 1304 806 1304 806 1299 788 c 128,-1,45
 1294 770 1294 770 1278 770 c 0,46,47
 1266 770 1266 770 1258 787 c 128,-1,48
 1250 804 1250 804 1245 822 c 0,49,50
 1233 877 1233 877 1219.5 937 c 128,-1,51
 1206 997 1206 997 1187 1048.5 c 128,-1,52
 1168 1100 1168 1100 1136 1134.5 c 128,-1,53
 1104 1169 1104 1169 1055 1169 c 0,54,55
 997 1169 997 1169 956.5 1139 c 128,-1,56
 916 1109 916 1109 886 1057.5 c 128,-1,57
 856 1006 856 1006 842 937.5 c 128,-1,58
 828 869 828 869 828 792 c 0,59,60
 828 752 828 752 845 709.5 c 128,-1,61
 862 667 862 667 886.5 625 c 128,-1,62
 911 583 911 583 941.5 541.5 c 128,-1,63
 972 500 972 500 1001.5 464.5 c 128,-1,64
 1031 429 1031 429 1056.5 402 c 128,-1,65
 1082 375 1082 375 1096 361 c 1,66,-1
 1035 161 l 1,67,-1
 1015 161 l 1,68,69
 972 210 972 210 928.5 276 c 128,-1,70
 885 342 885 342 850 413 c 128,-1,71
 815 484 815 484 794.5 550.5 c 128,-1,72
 774 617 774 617 774 670 c 1,73,-1
 569 670 l 1,0,1
EndSplineSet
EndChar

StartChar: uniE003
Encoding: 57347 57347 3
Width: 1294
Flags: W
LayerCount: 2
Fore
SplineSet
814 670 m 1,0,-1
 814 497 l 2,1,2
 814 423 814 423 860 388 c 128,-1,3
 906 353 906 353 980 353 c 0,4,5
 1052 353 1052 353 1092 388 c 128,-1,6
 1132 423 1132 423 1132 497 c 2,7,-1
 1132 670 l 1,8,-1
 814 670 l 1,0,-1
533 670 m 1,9,10
 531 572 531 572 518 473.5 c 128,-1,11
 505 375 505 375 488 273 c 1,12,-1
 441 262 l 1,13,14
 415 316 415 316 397.5 382 c 128,-1,15
 380 448 380 448 367 513 c 128,-1,16
 354 578 354 578 348 631 c 128,-1,17
 342 684 342 684 342 709 c 2,18,-1
 342 900 l 2,19,20
 342 952 342 952 330.5 983.5 c 128,-1,21
 319 1015 319 1015 291 1015 c 0,22,23
 270 1015 270 1015 253.5 1011.5 c 128,-1,24
 237 1008 237 1008 222.5 1001 c 128,-1,25
 208 994 208 994 193 986 c 128,-1,26
 178 978 178 978 158 963 c 0,27,28
 129 943 129 943 111 926 c 128,-1,29
 93 909 93 909 84 909 c 1,30,31
 69 924 69 924 58.5 939 c 128,-1,32
 48 954 48 954 48 966 c 1,33,34
 62 981 62 981 79.5 1003.5 c 128,-1,35
 97 1026 97 1026 114 1044 c 0,36,37
 201 1141 201 1141 261.5 1185.5 c 128,-1,38
 322 1230 322 1230 365 1230 c 0,39,40
 425 1230 425 1230 456.5 1174 c 128,-1,41
 488 1118 488 1118 488 1026 c 2,42,-1
 488 900 l 1,43,-1
 1202 900 l 1,44,-1
 1202 497 l 2,45,46
 1202 344 1202 344 1148 258.5 c 128,-1,47
 1094 173 1094 173 978 173 c 0,48,49
 863 173 863 173 805.5 258.5 c 128,-1,50
 748 344 748 344 748 497 c 2,51,-1
 748 670 l 1,52,-1
 533 670 l 1,9,10
EndSplineSet
EndChar

StartChar: uniE004
Encoding: 57348 57348 4
Width: 1700
Flags: W
LayerCount: 2
Fore
SplineSet
814 670 m 5,0,-1
 814 497 l 6,1,2
 814 423 814 423 860 388 c 132,-1,3
 906 353 906 353 980 353 c 4,4,5
 1052 353 1052 353 1092 388 c 132,-1,6
 1132 423 1132 423 1132 497 c 6,7,-1
 1132 670 l 5,8,-1
 814 670 l 5,0,-1
1202 670 m 5,9,-1
 1202 497 l 6,10,11
 1202 344 1202 344 1148 258.5 c 132,-1,12
 1094 173 1094 173 978 173 c 4,13,14
 863 173 863 173 805.5 258.5 c 132,-1,15
 748 344 748 344 748 497 c 6,16,-1
 748 670 l 5,17,-1
 533 670 l 5,18,19
 531 572 531 572 518 473.5 c 132,-1,20
 505 375 505 375 488 273 c 5,21,-1
 441 262 l 5,22,23
 415 316 415 316 397.5 382 c 132,-1,24
 380 448 380 448 367 513 c 132,-1,25
 354 578 354 578 348 631 c 132,-1,26
 342 684 342 684 342 709 c 6,27,-1
 342 900 l 6,28,29
 342 952 342 952 330.5 983.5 c 132,-1,30
 319 1015 319 1015 291 1015 c 4,31,32
 270 1015 270 1015 253.5 1011.5 c 132,-1,33
 237 1008 237 1008 222.5 1001 c 132,-1,34
 208 994 208 994 193 986 c 132,-1,35
 178 978 178 978 158 963 c 4,36,37
 129 943 129 943 111 926 c 132,-1,38
 93 909 93 909 84 909 c 5,39,40
 69 924 69 924 58.5 939 c 132,-1,41
 48 954 48 954 48 966 c 5,42,43
 62 981 62 981 79.5 1003.5 c 132,-1,44
 97 1026 97 1026 114 1044 c 4,45,46
 201 1141 201 1141 261.5 1185.5 c 132,-1,47
 322 1230 322 1230 365 1230 c 4,48,49
 425 1230 425 1230 456.5 1174 c 132,-1,50
 488 1118 488 1118 488 1026 c 6,51,-1
 488 900 l 5,52,-1
 1427 900 l 5,53,54
 1520 893 1520 893 1573.5 822.5 c 132,-1,55
 1627 752 1627 752 1627 632 c 6,56,-1
 1627 511 l 6,57,58
 1627 439 1627 439 1602 395.5 c 132,-1,59
 1577 352 1577 352 1540 352 c 5,60,-1
 1540 375 l 6,61,62
 1540 511 1540 511 1489 588.5 c 132,-1,63
 1438 666 1438 666 1339 670 c 5,64,-1
 1202 670 l 5,9,-1
EndSplineSet
EndChar

StartChar: uniE005
Encoding: 57349 57349 5
Width: 1100
Flags: W
LayerCount: 2
Fore
SplineSet
533 670 m 5,0,1
 531 572 531 572 518 473.5 c 132,-1,2
 505 375 505 375 488 273 c 5,3,-1
 441 262 l 5,4,5
 415 316 415 316 397.5 382 c 132,-1,6
 380 448 380 448 367 513 c 132,-1,7
 354 578 354 578 348 631 c 132,-1,8
 342 684 342 684 342 709 c 6,9,-1
 342 900 l 6,10,11
 342 952 342 952 330.5 983.5 c 132,-1,12
 319 1015 319 1015 291 1015 c 4,13,14
 270 1015 270 1015 253.5 1011.5 c 132,-1,15
 237 1008 237 1008 222.5 1001 c 132,-1,16
 208 994 208 994 193 986 c 132,-1,17
 178 978 178 978 158 963 c 4,18,19
 129 943 129 943 111 926 c 132,-1,20
 93 909 93 909 84 909 c 5,21,22
 69 924 69 924 58.5 939 c 132,-1,23
 48 954 48 954 48 966 c 5,24,25
 62 981 62 981 79.5 1003.5 c 132,-1,26
 97 1026 97 1026 114 1044 c 4,27,28
 201 1141 201 1141 261.5 1185.5 c 132,-1,29
 322 1230 322 1230 365 1230 c 4,30,31
 425 1230 425 1230 456.5 1174 c 132,-1,32
 488 1118 488 1118 488 1026 c 6,33,-1
 488 900 l 5,34,-1
 1200 900 l 5,35,-1
 1200 670 l 5,36,-1
 938 670 l 5,37,38
 936 640 936 640 930 586 c 132,-1,39
 924 532 924 532 918 473 c 132,-1,40
 912 414 912 414 904 361 c 132,-1,41
 896 308 896 308 886 277 c 5,42,-1
 841 261 l 5,43,44
 801 355 801 355 778.5 459.5 c 132,-1,45
 756 564 756 564 747 670 c 5,46,-1
 533 670 l 5,0,1
EndSplineSet
EndChar

StartChar: uniE006
Encoding: 57350 57350 6
Width: 700
Flags: W
LayerCount: 2
Fore
SplineSet
533 670 m 5,0,1
 531 572 531 572 518 473.5 c 132,-1,2
 505 375 505 375 488 273 c 5,3,-1
 441 262 l 5,4,5
 415 316 415 316 397.5 382 c 132,-1,6
 380 448 380 448 367 513 c 132,-1,7
 354 578 354 578 348 631 c 132,-1,8
 342 684 342 684 342 709 c 6,9,-1
 342 900 l 6,10,11
 342 952 342 952 330.5 983.5 c 132,-1,12
 319 1015 319 1015 291 1015 c 4,13,14
 270 1015 270 1015 253.5 1011.5 c 132,-1,15
 237 1008 237 1008 222.5 1001 c 132,-1,16
 208 994 208 994 193 986 c 132,-1,17
 178 978 178 978 158 963 c 4,18,19
 129 943 129 943 111 926 c 132,-1,20
 93 909 93 909 84 909 c 5,21,22
 69 924 69 924 58.5 939 c 132,-1,23
 48 954 48 954 48 966 c 5,24,25
 62 981 62 981 79.5 1003.5 c 132,-1,26
 97 1026 97 1026 114 1044 c 4,27,28
 201 1141 201 1141 261.5 1185.5 c 132,-1,29
 322 1230 322 1230 365 1230 c 4,30,31
 425 1230 425 1230 456.5 1174 c 132,-1,32
 488 1118 488 1118 488 1026 c 6,33,-1
 488 900 l 5,34,-1
 800 900 l 5,35,-1
 800 670 l 5,36,-1
 533 670 l 5,0,1
EndSplineSet
EndChar

StartChar: uniE007
Encoding: 57351 57351 7
Width: 1200
Flags: W
LayerCount: 2
Fore
SplineSet
533 670 m 5,0,1
 531 572 531 572 518 473.5 c 132,-1,2
 505 375 505 375 488 273 c 5,3,-1
 441 262 l 5,4,5
 415 316 415 316 397.5 382 c 132,-1,6
 380 448 380 448 367 513 c 132,-1,7
 354 578 354 578 348 631 c 132,-1,8
 342 684 342 684 342 709 c 6,9,-1
 342 900 l 6,10,11
 342 952 342 952 330.5 983.5 c 132,-1,12
 319 1015 319 1015 291 1015 c 4,13,14
 270 1015 270 1015 253.5 1011.5 c 132,-1,15
 237 1008 237 1008 222.5 1001 c 132,-1,16
 208 994 208 994 193 986 c 132,-1,17
 178 978 178 978 158 963 c 4,18,19
 129 943 129 943 111 926 c 132,-1,20
 93 909 93 909 84 909 c 5,21,22
 69 924 69 924 58.5 939 c 132,-1,23
 48 954 48 954 48 966 c 5,24,25
 62 981 62 981 79.5 1003.5 c 132,-1,26
 97 1026 97 1026 114 1044 c 4,27,28
 201 1141 201 1141 261.5 1185.5 c 132,-1,29
 322 1230 322 1230 365 1230 c 4,30,31
 425 1230 425 1230 456.5 1174 c 132,-1,32
 488 1118 488 1118 488 1026 c 6,33,-1
 488 900 l 5,34,-1
 1300 900 l 5,35,-1
 1300 670 l 5,36,-1
 827 670 l 5,37,-1
 1088 298 l 5,38,-1
 1088 267 l 5,39,-1
 1033 4 l 5,40,-1
 1003 4 l 5,41,-1
 740 670 l 5,42,-1
 533 670 l 5,0,1
EndSplineSet
EndChar

StartChar: uniE008
Encoding: 57352 57352 8
Width: 1300
Flags: W
LayerCount: 2
Fore
SplineSet
814 670 m 5,0,-1
 814 497 l 6,1,2
 814 423 814 423 860 388 c 132,-1,3
 906 353 906 353 980 353 c 4,4,5
 1052 353 1052 353 1092 388 c 132,-1,6
 1132 423 1132 423 1132 497 c 6,7,-1
 1132 670 l 5,8,-1
 814 670 l 5,0,-1
1202 670 m 5,9,-1
 1202 497 l 6,10,11
 1202 344 1202 344 1148 258.5 c 132,-1,12
 1094 173 1094 173 978 173 c 4,13,14
 863 173 863 173 805.5 258.5 c 132,-1,15
 748 344 748 344 748 497 c 6,16,-1
 748 670 l 5,17,-1
 533 670 l 5,18,19
 531 572 531 572 518 473.5 c 132,-1,20
 505 375 505 375 488 273 c 5,21,-1
 441 262 l 5,22,23
 415 316 415 316 397.5 382 c 132,-1,24
 380 448 380 448 367 513 c 132,-1,25
 354 578 354 578 348 631 c 132,-1,26
 342 684 342 684 342 709 c 6,27,-1
 342 900 l 6,28,29
 342 952 342 952 330.5 983.5 c 132,-1,30
 319 1015 319 1015 291 1015 c 4,31,32
 270 1015 270 1015 253.5 1011.5 c 132,-1,33
 237 1008 237 1008 222.5 1001 c 132,-1,34
 208 994 208 994 193 986 c 132,-1,35
 178 978 178 978 158 963 c 4,36,37
 129 943 129 943 111 926 c 132,-1,38
 93 909 93 909 84 909 c 5,39,40
 69 924 69 924 58.5 939 c 132,-1,41
 48 954 48 954 48 966 c 5,42,43
 62 981 62 981 79.5 1003.5 c 132,-1,44
 97 1026 97 1026 114 1044 c 4,45,46
 201 1141 201 1141 261.5 1185.5 c 132,-1,47
 322 1230 322 1230 365 1230 c 4,48,49
 425 1230 425 1230 456.5 1174 c 132,-1,50
 488 1118 488 1118 488 1026 c 6,51,-1
 488 900 l 5,52,-1
 1400 900 l 5,53,-1
 1400 670 l 5,54,-1
 1202 670 l 5,9,-1
EndSplineSet
EndChar

StartChar: uniE009
Encoding: 57353 57353 9
Width: 1799
Flags: W
LayerCount: 2
Fore
SplineSet
814 670 m 5,0,-1
 814 497 l 6,1,2
 814 423 814 423 860 388 c 132,-1,3
 906 353 906 353 980 353 c 4,4,5
 1052 353 1052 353 1092 388 c 132,-1,6
 1132 423 1132 423 1132 497 c 6,7,-1
 1132 670 l 5,8,-1
 814 670 l 5,0,-1
1202 670 m 5,9,-1
 1202 497 l 6,10,11
 1202 344 1202 344 1148 258.5 c 132,-1,12
 1094 173 1094 173 978 173 c 4,13,14
 863 173 863 173 805.5 258.5 c 132,-1,15
 748 344 748 344 748 497 c 6,16,-1
 748 670 l 5,17,-1
 533 670 l 5,18,19
 531 572 531 572 518 473.5 c 132,-1,20
 505 375 505 375 488 273 c 5,21,-1
 441 262 l 5,22,23
 415 316 415 316 397.5 382 c 132,-1,24
 380 448 380 448 367 513 c 132,-1,25
 354 578 354 578 348 631 c 132,-1,26
 342 684 342 684 342 709 c 6,27,-1
 342 900 l 6,28,29
 342 952 342 952 330.5 983.5 c 132,-1,30
 319 1015 319 1015 291 1015 c 4,31,32
 270 1015 270 1015 253.5 1011.5 c 132,-1,33
 237 1008 237 1008 222.5 1001 c 132,-1,34
 208 994 208 994 193 986 c 132,-1,35
 178 978 178 978 158 963 c 4,36,37
 129 943 129 943 111 926 c 132,-1,38
 93 909 93 909 84 909 c 5,39,40
 69 924 69 924 58.5 939 c 132,-1,41
 48 954 48 954 48 966 c 5,42,43
 62 981 62 981 79.5 1003.5 c 132,-1,44
 97 1026 97 1026 114 1044 c 4,45,46
 201 1141 201 1141 261.5 1185.5 c 132,-1,47
 322 1230 322 1230 365 1230 c 4,48,49
 425 1230 425 1230 456.5 1174 c 132,-1,50
 488 1118 488 1118 488 1026 c 6,51,-1
 488 900 l 5,52,-1
 1898 900 l 5,53,-1
 1898 670 l 5,54,-1
 1425 670 l 5,55,-1
 1686 298 l 5,56,-1
 1686 267 l 5,57,-1
 1631 4 l 5,58,-1
 1601 4 l 5,59,-1
 1338 670 l 5,60,-1
 1202 670 l 5,9,-1
EndSplineSet
EndChar

StartChar: uniE00A
Encoding: 57354 57354 10
Width: 1741
Flags: W
LayerCount: 2
Fore
SplineSet
520 -29 m 4,0,1
 520 -41 520 -41 511 -51.5 c 132,-1,2
 502 -62 502 -62 492 -72.5 c 132,-1,3
 482 -83 482 -83 465 -94.5 c 132,-1,4
 448 -106 448 -106 434 -123 c 4,5,6
 421 -139 421 -139 410 -153.5 c 132,-1,7
 399 -168 399 -168 391 -178.5 c 132,-1,8
 383 -189 383 -189 376 -194.5 c 132,-1,9
 369 -200 369 -200 359 -200 c 4,10,11
 338 -200 338 -200 322.5 -191 c 132,-1,12
 307 -182 307 -182 307 -156 c 4,13,14
 307 -128 307 -128 311.5 -104.5 c 132,-1,15
 316 -81 316 -81 326 -50 c 4,16,17
 333 -34 333 -34 342.5 -13.5 c 132,-1,18
 352 7 352 7 366 24.5 c 132,-1,19
 380 42 380 42 396.5 52.5 c 132,-1,20
 413 63 413 63 432 63 c 260,21,22
 451 63 451 63 477 40 c 4,23,24
 520 2 520 2 520 -29 c 4,0,1
596 670 m 1,25,26
 594 572 594 572 581 473.5 c 128,-1,27
 568 375 568 375 551 273 c 1,28,-1
 504 262 l 1,29,30
 478 316 478 316 460.5 382 c 128,-1,31
 443 448 443 448 430 513 c 128,-1,32
 417 578 417 578 411 631 c 128,-1,33
 405 684 405 684 405 709 c 2,34,-1
 405 900 l 2,35,36
 405 952 405 952 393.5 983.5 c 128,-1,37
 382 1015 382 1015 354 1015 c 0,38,39
 333 1015 333 1015 316.5 1011.5 c 128,-1,40
 300 1008 300 1008 285.5 1001 c 128,-1,41
 271 994 271 994 256 986 c 128,-1,42
 241 978 241 978 221 963 c 0,43,44
 192 943 192 943 174 926 c 128,-1,45
 156 909 156 909 147 909 c 1,46,47
 132 924 132 924 121.5 939 c 128,-1,48
 111 954 111 954 111 966 c 1,49,50
 125 981 125 981 142.5 1003.5 c 128,-1,51
 160 1026 160 1026 177 1044 c 0,52,53
 264 1141 264 1141 324.5 1185.5 c 128,-1,54
 385 1230 385 1230 428 1230 c 0,55,56
 488 1230 488 1230 519.5 1174 c 128,-1,57
 551 1118 551 1118 551 1026 c 2,58,-1
 551 900 l 1,59,-1
 881 900 l 1,60,-1
 881 761 l 2,61,62
 881 714 881 714 898.5 654 c 128,-1,63
 916 594 916 594 942 536 c 128,-1,64
 968 478 968 478 995 431.5 c 128,-1,65
 1022 385 1022 385 1046 365 c 1,66,67
 1040 383 1040 383 1040 416 c 0,68,69
 1040 437 1040 437 1043 463 c 0,70,71
 1049 526 1049 526 1077.5 655.5 c 128,-1,72
 1106 785 1106 785 1192.5 1003 c 128,-1,73
 1279 1221 1279 1221 1319 1370.5 c 128,-1,74
 1359 1520 1359 1520 1359 1560 c 0,75,76
 1359 1586 1359 1586 1353.5 1619.5 c 128,-1,77
 1348 1653 1348 1653 1342 1687.5 c 128,-1,78
 1336 1722 1336 1722 1329.5 1751.5 c 128,-1,79
 1323 1781 1323 1781 1323 1790 c 0,80,81
 1323 1824 1323 1824 1332 1839.5 c 128,-1,82
 1341 1855 1341 1855 1366 1855 c 0,83,84
 1373 1855 1373 1855 1386 1838 c 128,-1,85
 1399 1821 1399 1821 1413 1797 c 0,86,87
 1444 1739 1444 1739 1467.5 1691.5 c 128,-1,88
 1491 1644 1491 1644 1513.5 1597 c 128,-1,89
 1536 1550 1536 1550 1561 1501.5 c 128,-1,90
 1586 1453 1586 1453 1615 1395 c 1,91,92
 1523 1276 1523 1276 1458.5 1182.5 c 128,-1,93
 1394 1089 1394 1089 1326 918 c 128,-1,94
 1258 747 1258 747 1201.5 544.5 c 128,-1,95
 1145 342 1145 342 1145 145 c 1,96,97
 1074 181 1074 181 1013 245 c 128,-1,98
 952 309 952 309 906 383 c 128,-1,99
 860 457 860 457 830.5 532.5 c 128,-1,100
 801 608 801 608 797 670 c 1,101,-1
 596 670 l 1,25,26
EndSplineSet
EndChar

StartChar: uniE00B
Encoding: 57355 57355 11
Width: 1431
Flags: W
LayerCount: 2
Fore
SplineSet
520 -29 m 4,0,1
 520 -41 520 -41 511 -51.5 c 132,-1,2
 502 -62 502 -62 492 -72.5 c 132,-1,3
 482 -83 482 -83 465 -94.5 c 132,-1,4
 448 -106 448 -106 434 -123 c 4,5,6
 421 -139 421 -139 410 -153.5 c 132,-1,7
 399 -168 399 -168 391 -178.5 c 132,-1,8
 383 -189 383 -189 376 -194.5 c 132,-1,9
 369 -200 369 -200 359 -200 c 4,10,11
 338 -200 338 -200 322.5 -191 c 132,-1,12
 307 -182 307 -182 307 -156 c 4,13,14
 307 -128 307 -128 311.5 -104.5 c 132,-1,15
 316 -81 316 -81 326 -50 c 4,16,17
 333 -34 333 -34 342.5 -13.5 c 132,-1,18
 352 7 352 7 366 24.5 c 132,-1,19
 380 42 380 42 396.5 52.5 c 132,-1,20
 413 63 413 63 432 63 c 260,21,22
 451 63 451 63 477 40 c 4,23,24
 520 2 520 2 520 -29 c 4,0,1
569 670 m 1,25,26
 567 572 567 572 554 473.5 c 128,-1,27
 541 375 541 375 524 273 c 1,28,-1
 477 262 l 1,29,30
 451 316 451 316 433.5 382 c 128,-1,31
 416 448 416 448 403 513 c 128,-1,32
 390 578 390 578 384 631 c 128,-1,33
 378 684 378 684 378 709 c 2,34,-1
 378 900 l 2,35,36
 378 952 378 952 366.5 983.5 c 128,-1,37
 355 1015 355 1015 327 1015 c 0,38,39
 306 1015 306 1015 289.5 1011.5 c 128,-1,40
 273 1008 273 1008 258.5 1001 c 128,-1,41
 244 994 244 994 229 986 c 128,-1,42
 214 978 214 978 194 963 c 0,43,44
 165 943 165 943 147 926 c 128,-1,45
 129 909 129 909 120 909 c 1,46,47
 105 924 105 924 94.5 939 c 128,-1,48
 84 954 84 954 84 966 c 1,49,50
 98 981 98 981 115.5 1003.5 c 128,-1,51
 133 1026 133 1026 150 1044 c 0,52,53
 237 1141 237 1141 297.5 1185.5 c 128,-1,54
 358 1230 358 1230 401 1230 c 0,55,56
 461 1230 461 1230 492.5 1174 c 128,-1,57
 524 1118 524 1118 524 1026 c 2,58,-1
 524 900 l 1,59,-1
 774 900 l 1,60,61
 790 1127 790 1127 861 1250.5 c 128,-1,62
 932 1374 932 1374 1057 1374 c 0,63,64
 1127 1374 1127 1374 1176.5 1327 c 128,-1,65
 1226 1280 1226 1280 1254.5 1204.5 c 128,-1,66
 1283 1129 1283 1129 1293.5 1034.5 c 128,-1,67
 1304 940 1304 940 1304 846 c 0,68,69
 1304 806 1304 806 1299 788 c 128,-1,70
 1294 770 1294 770 1278 770 c 0,71,72
 1266 770 1266 770 1258 787 c 128,-1,73
 1250 804 1250 804 1245 822 c 0,74,75
 1233 877 1233 877 1219.5 937 c 128,-1,76
 1206 997 1206 997 1187 1048.5 c 128,-1,77
 1168 1100 1168 1100 1136 1134.5 c 128,-1,78
 1104 1169 1104 1169 1055 1169 c 0,79,80
 997 1169 997 1169 956.5 1139 c 128,-1,81
 916 1109 916 1109 886 1057.5 c 128,-1,82
 856 1006 856 1006 842 937.5 c 128,-1,83
 828 869 828 869 828 792 c 0,84,85
 828 752 828 752 845 709.5 c 128,-1,86
 862 667 862 667 886.5 625 c 128,-1,87
 911 583 911 583 941.5 541.5 c 128,-1,88
 972 500 972 500 1001.5 464.5 c 128,-1,89
 1031 429 1031 429 1056.5 402 c 128,-1,90
 1082 375 1082 375 1096 361 c 1,91,-1
 1035 161 l 1,92,-1
 1015 161 l 1,93,94
 972 210 972 210 928.5 276 c 128,-1,95
 885 342 885 342 850 413 c 128,-1,96
 815 484 815 484 794.5 550.5 c 128,-1,97
 774 617 774 617 774 670 c 1,98,-1
 569 670 l 1,25,26
EndSplineSet
EndChar

StartChar: uniE00C
Encoding: 57356 57356 12
Width: 1294
Flags: W
LayerCount: 2
Fore
SplineSet
520 -29 m 4,0,1
 520 -41 520 -41 511 -51.5 c 132,-1,2
 502 -62 502 -62 492 -72.5 c 132,-1,3
 482 -83 482 -83 465 -94.5 c 132,-1,4
 448 -106 448 -106 434 -123 c 4,5,6
 421 -139 421 -139 410 -153.5 c 132,-1,7
 399 -168 399 -168 391 -178.5 c 132,-1,8
 383 -189 383 -189 376 -194.5 c 132,-1,9
 369 -200 369 -200 359 -200 c 4,10,11
 338 -200 338 -200 322.5 -191 c 132,-1,12
 307 -182 307 -182 307 -156 c 4,13,14
 307 -128 307 -128 311.5 -104.5 c 132,-1,15
 316 -81 316 -81 326 -50 c 4,16,17
 333 -34 333 -34 342.5 -13.5 c 132,-1,18
 352 7 352 7 366 24.5 c 132,-1,19
 380 42 380 42 396.5 52.5 c 132,-1,20
 413 63 413 63 432 63 c 260,21,22
 451 63 451 63 477 40 c 4,23,24
 520 2 520 2 520 -29 c 4,0,1
814 670 m 1,25,-1
 814 497 l 2,26,27
 814 423 814 423 860 388 c 128,-1,28
 906 353 906 353 980 353 c 0,29,30
 1052 353 1052 353 1092 388 c 128,-1,31
 1132 423 1132 423 1132 497 c 2,32,-1
 1132 670 l 1,33,-1
 814 670 l 1,25,-1
533 670 m 1,34,35
 531 572 531 572 518 473.5 c 128,-1,36
 505 375 505 375 488 273 c 1,37,-1
 441 262 l 1,38,39
 415 316 415 316 397.5 382 c 128,-1,40
 380 448 380 448 367 513 c 128,-1,41
 354 578 354 578 348 631 c 128,-1,42
 342 684 342 684 342 709 c 2,43,-1
 342 900 l 2,44,45
 342 952 342 952 330.5 983.5 c 128,-1,46
 319 1015 319 1015 291 1015 c 0,47,48
 270 1015 270 1015 253.5 1011.5 c 128,-1,49
 237 1008 237 1008 222.5 1001 c 128,-1,50
 208 994 208 994 193 986 c 128,-1,51
 178 978 178 978 158 963 c 0,52,53
 129 943 129 943 111 926 c 128,-1,54
 93 909 93 909 84 909 c 1,55,56
 69 924 69 924 58.5 939 c 128,-1,57
 48 954 48 954 48 966 c 1,58,59
 62 981 62 981 79.5 1003.5 c 128,-1,60
 97 1026 97 1026 114 1044 c 0,61,62
 201 1141 201 1141 261.5 1185.5 c 128,-1,63
 322 1230 322 1230 365 1230 c 0,64,65
 425 1230 425 1230 456.5 1174 c 128,-1,66
 488 1118 488 1118 488 1026 c 2,67,-1
 488 900 l 1,68,-1
 1202 900 l 1,69,-1
 1202 497 l 2,70,71
 1202 344 1202 344 1148 258.5 c 128,-1,72
 1094 173 1094 173 978 173 c 0,73,74
 863 173 863 173 805.5 258.5 c 128,-1,75
 748 344 748 344 748 497 c 2,76,-1
 748 670 l 1,77,-1
 533 670 l 1,34,35
EndSplineSet
EndChar

StartChar: uniE00D
Encoding: 57357 57357 13
Width: 1700
Flags: W
LayerCount: 2
Fore
SplineSet
520 -29 m 4,0,1
 520 -41 520 -41 511 -51.5 c 132,-1,2
 502 -62 502 -62 492 -72.5 c 132,-1,3
 482 -83 482 -83 465 -94.5 c 132,-1,4
 448 -106 448 -106 434 -123 c 4,5,6
 421 -139 421 -139 410 -153.5 c 132,-1,7
 399 -168 399 -168 391 -178.5 c 132,-1,8
 383 -189 383 -189 376 -194.5 c 132,-1,9
 369 -200 369 -200 359 -200 c 4,10,11
 338 -200 338 -200 322.5 -191 c 132,-1,12
 307 -182 307 -182 307 -156 c 4,13,14
 307 -128 307 -128 311.5 -104.5 c 132,-1,15
 316 -81 316 -81 326 -50 c 4,16,17
 333 -34 333 -34 342.5 -13.5 c 132,-1,18
 352 7 352 7 366 24.5 c 132,-1,19
 380 42 380 42 396.5 52.5 c 132,-1,20
 413 63 413 63 432 63 c 260,21,22
 451 63 451 63 477 40 c 4,23,24
 520 2 520 2 520 -29 c 4,0,1
814 670 m 1,25,-1
 814 497 l 2,26,27
 814 423 814 423 860 388 c 128,-1,28
 906 353 906 353 980 353 c 0,29,30
 1052 353 1052 353 1092 388 c 128,-1,31
 1132 423 1132 423 1132 497 c 2,32,-1
 1132 670 l 1,33,-1
 814 670 l 1,25,-1
1202 670 m 1,34,-1
 1202 497 l 2,35,36
 1202 344 1202 344 1148 258.5 c 128,-1,37
 1094 173 1094 173 978 173 c 0,38,39
 863 173 863 173 805.5 258.5 c 128,-1,40
 748 344 748 344 748 497 c 2,41,-1
 748 670 l 1,42,-1
 533 670 l 1,43,44
 531 572 531 572 518 473.5 c 128,-1,45
 505 375 505 375 488 273 c 1,46,-1
 441 262 l 1,47,48
 415 316 415 316 397.5 382 c 128,-1,49
 380 448 380 448 367 513 c 128,-1,50
 354 578 354 578 348 631 c 128,-1,51
 342 684 342 684 342 709 c 2,52,-1
 342 900 l 2,53,54
 342 952 342 952 330.5 983.5 c 128,-1,55
 319 1015 319 1015 291 1015 c 0,56,57
 270 1015 270 1015 253.5 1011.5 c 128,-1,58
 237 1008 237 1008 222.5 1001 c 128,-1,59
 208 994 208 994 193 986 c 128,-1,60
 178 978 178 978 158 963 c 0,61,62
 129 943 129 943 111 926 c 128,-1,63
 93 909 93 909 84 909 c 1,64,65
 69 924 69 924 58.5 939 c 128,-1,66
 48 954 48 954 48 966 c 1,67,68
 62 981 62 981 79.5 1003.5 c 128,-1,69
 97 1026 97 1026 114 1044 c 0,70,71
 201 1141 201 1141 261.5 1185.5 c 128,-1,72
 322 1230 322 1230 365 1230 c 0,73,74
 425 1230 425 1230 456.5 1174 c 128,-1,75
 488 1118 488 1118 488 1026 c 2,76,-1
 488 900 l 1,77,-1
 1427 900 l 1,78,79
 1520 893 1520 893 1573.5 822.5 c 128,-1,80
 1627 752 1627 752 1627 632 c 2,81,-1
 1627 511 l 2,82,83
 1627 439 1627 439 1602 395.5 c 128,-1,84
 1577 352 1577 352 1540 352 c 1,85,-1
 1540 375 l 2,86,87
 1540 511 1540 511 1489 588.5 c 128,-1,88
 1438 666 1438 666 1339 670 c 1,89,-1
 1202 670 l 1,34,-1
EndSplineSet
EndChar

StartChar: uniE00E
Encoding: 57358 57358 14
Width: 1100
Flags: W
LayerCount: 2
Fore
SplineSet
586 -29 m 4,0,1
 586 2 586 2 543 40 c 4,2,3
 517 63 517 63 497 63 c 4,4,5
 479 63 479 63 462.5 52 c 132,-1,6
 446 41 446 41 432.5 24 c 132,-1,7
 419 7 419 7 409.5 -13.5 c 132,-1,8
 400 -34 400 -34 393 -51 c 4,9,10
 382 -80 382 -80 378 -104 c 132,-1,11
 374 -128 374 -128 374 -157 c 4,12,13
 374 -181 374 -181 388.5 -191.5 c 132,-1,14
 403 -202 403 -202 425 -202 c 4,15,16
 434 -202 434 -202 441.5 -195.5 c 132,-1,17
 449 -189 449 -189 457 -178 c 132,-1,18
 465 -167 465 -167 475.5 -153 c 132,-1,19
 486 -139 486 -139 500 -123 c 4,20,21
 516 -107 516 -107 531.5 -95 c 132,-1,22
 547 -83 547 -83 558.5 -72 c 132,-1,23
 570 -61 570 -61 578 -51.5 c 132,-1,24
 586 -42 586 -42 586 -29 c 4,0,1
533 670 m 1,25,26
 531 572 531 572 518 473.5 c 128,-1,27
 505 375 505 375 488 273 c 1,28,-1
 441 262 l 1,29,30
 415 316 415 316 397.5 382 c 128,-1,31
 380 448 380 448 367 513 c 128,-1,32
 354 578 354 578 348 631 c 128,-1,33
 342 684 342 684 342 709 c 2,34,-1
 342 900 l 2,35,36
 342 952 342 952 330.5 983.5 c 128,-1,37
 319 1015 319 1015 291 1015 c 0,38,39
 270 1015 270 1015 253.5 1011.5 c 128,-1,40
 237 1008 237 1008 222.5 1001 c 128,-1,41
 208 994 208 994 193 986 c 128,-1,42
 178 978 178 978 158 963 c 0,43,44
 129 943 129 943 111 926 c 128,-1,45
 93 909 93 909 84 909 c 1,46,47
 69 924 69 924 58.5 939 c 128,-1,48
 48 954 48 954 48 966 c 1,49,50
 62 981 62 981 79.5 1003.5 c 128,-1,51
 97 1026 97 1026 114 1044 c 0,52,53
 201 1141 201 1141 261.5 1185.5 c 128,-1,54
 322 1230 322 1230 365 1230 c 0,55,56
 425 1230 425 1230 456.5 1174 c 128,-1,57
 488 1118 488 1118 488 1026 c 2,58,-1
 488 900 l 1,59,-1
 1200 900 l 1,60,-1
 1200 670 l 1,61,-1
 938 670 l 1,62,63
 936 640 936 640 930 586 c 128,-1,64
 924 532 924 532 918 473 c 128,-1,65
 912 414 912 414 904 361 c 128,-1,66
 896 308 896 308 886 277 c 1,67,-1
 841 261 l 1,68,69
 801 355 801 355 778.5 459.5 c 128,-1,70
 756 564 756 564 747 670 c 1,71,-1
 533 670 l 1,25,26
EndSplineSet
EndChar

StartChar: uniE00F
Encoding: 57359 57359 15
Width: 800
Flags: W
LayerCount: 2
Fore
SplineSet
276 -29 m 4,0,1
 276 2 276 2 233 40 c 4,2,3
 207 63 207 63 187 63 c 4,4,5
 169 63 169 63 152.5 52 c 132,-1,6
 136 41 136 41 122.5 24 c 132,-1,7
 109 7 109 7 99.5 -13.5 c 132,-1,8
 90 -34 90 -34 83 -51 c 4,9,10
 72 -80 72 -80 68 -104 c 132,-1,11
 64 -128 64 -128 64 -157 c 4,12,13
 64 -181 64 -181 78.5 -191.5 c 132,-1,14
 93 -202 93 -202 115 -202 c 4,15,16
 124 -202 124 -202 131.5 -195.5 c 132,-1,17
 139 -189 139 -189 147 -178 c 132,-1,18
 155 -167 155 -167 165.5 -153 c 132,-1,19
 176 -139 176 -139 190 -123 c 4,20,21
 206 -107 206 -107 221.5 -95 c 132,-1,22
 237 -83 237 -83 248.5 -72 c 132,-1,23
 260 -61 260 -61 268 -51.5 c 132,-1,24
 276 -42 276 -42 276 -29 c 4,0,1
238 670 m 1,25,26
 236 640 236 640 230 586 c 128,-1,27
 224 532 224 532 218 473 c 128,-1,28
 212 414 212 414 204 361 c 128,-1,29
 196 308 196 308 186 277 c 1,30,-1
 141 261 l 1,31,32
 101 355 101 355 78.5 459.5 c 128,-1,33
 56 564 56 564 47 670 c 1,34,-1
 0 670 l 1,35,-1
 0 900 l 1,36,-1
 900 900 l 1,37,-1
 900 670 l 1,38,-1
 638 670 l 1,39,40
 636 640 636 640 630 586 c 128,-1,41
 624 532 624 532 618 473 c 128,-1,42
 612 414 612 414 604 361 c 128,-1,43
 596 308 596 308 586 277 c 1,44,-1
 541 261 l 1,45,46
 501 355 501 355 478.5 459.5 c 128,-1,47
 456 564 456 564 447 670 c 1,48,-1
 238 670 l 1,25,26
EndSplineSet
EndChar

StartChar: uniE010
Encoding: 57360 57360 16
Width: 1375
Flags: W
LayerCount: 2
Fore
SplineSet
276 -29 m 4,0,1
 276 2 276 2 233 40 c 4,2,3
 207 63 207 63 187 63 c 4,4,5
 169 63 169 63 152.5 52 c 132,-1,6
 136 41 136 41 122.5 24 c 132,-1,7
 109 7 109 7 99.5 -13.5 c 132,-1,8
 90 -34 90 -34 83 -51 c 4,9,10
 72 -80 72 -80 68 -104 c 132,-1,11
 64 -128 64 -128 64 -157 c 4,12,13
 64 -181 64 -181 78.5 -191.5 c 132,-1,14
 93 -202 93 -202 115 -202 c 4,15,16
 124 -202 124 -202 131.5 -195.5 c 132,-1,17
 139 -189 139 -189 147 -178 c 132,-1,18
 155 -167 155 -167 165.5 -153 c 132,-1,19
 176 -139 176 -139 190 -123 c 4,20,21
 206 -107 206 -107 221.5 -95 c 132,-1,22
 237 -83 237 -83 248.5 -72 c 132,-1,23
 260 -61 260 -61 268 -51.5 c 132,-1,24
 276 -42 276 -42 276 -29 c 4,0,1
522 900 m 9,25,-1
 0 900 l 17,26,-1
 0 670 l 1,27,-1
 47 670 l 1,28,29
 56 564 56 564 78.5 459.5 c 128,-1,30
 101 355 101 355 141 261 c 1,31,-1
 186 277 l 1,32,33
 196 308 196 308 204 361 c 128,-1,34
 212 414 212 414 218 473 c 128,-1,35
 224 532 224 532 230 586 c 128,-1,36
 236 640 236 640 238 670 c 1,37,-1
 438 670 l 1,38,39
 442 608 442 608 471.5 532.5 c 128,-1,40
 501 457 501 457 547 383 c 128,-1,41
 593 309 593 309 654 245 c 128,-1,42
 715 181 715 181 786 145 c 1,43,44
 786 342 786 342 842.5 544.5 c 128,-1,45
 899 747 899 747 967 918 c 128,-1,46
 1035 1089 1035 1089 1099.5 1182.5 c 128,-1,47
 1164 1276 1164 1276 1256 1395 c 1,48,49
 1227 1453 1227 1453 1202 1501.5 c 128,-1,50
 1177 1550 1177 1550 1154.5 1597 c 128,-1,51
 1132 1644 1132 1644 1108.5 1691.5 c 128,-1,52
 1085 1739 1085 1739 1054 1797 c 0,53,54
 1040 1821 1040 1821 1027 1838 c 128,-1,55
 1014 1855 1014 1855 1007 1855 c 0,56,57
 982 1855 982 1855 973 1839.5 c 128,-1,58
 964 1824 964 1824 964 1790 c 0,59,60
 964 1781 964 1781 970.5 1751.5 c 128,-1,61
 977 1722 977 1722 983 1687.5 c 128,-1,62
 989 1653 989 1653 994.5 1619.5 c 128,-1,63
 1000 1586 1000 1586 1000 1560 c 0,64,65
 1000 1520 1000 1520 960 1370.5 c 128,-1,66
 920 1221 920 1221 833.5 1003 c 128,-1,67
 747 785 747 785 718.5 655.5 c 128,-1,68
 690 526 690 526 684 463 c 0,69,70
 681 437 681 437 681 416 c 0,71,72
 681 383 681 383 687 365 c 1,73,74
 663 385 663 385 636 431.5 c 128,-1,75
 609 478 609 478 583 536 c 128,-1,76
 557 594 557 594 539.5 654 c 128,-1,77
 522 714 522 714 522 761 c 2,78,-1
 522 900 l 9,25,-1
EndSplineSet
EndChar

StartChar: uniE011
Encoding: 57361 57361 17
Width: 1388
Flags: W
LayerCount: 2
Fore
SplineSet
1258 438 m 2,0,-1
 1258 22 l 2,1,2
 1258 -65 1258 -65 1242 -129 c 128,-1,3
 1226 -193 1226 -193 1195.5 -240.5 c 128,-1,4
 1165 -288 1165 -288 1119 -322 c 128,-1,5
 1073 -356 1073 -356 1015 -382 c 0,6,7
 980 -397 980 -397 960.5 -409 c 128,-1,8
 941 -421 941 -421 926.5 -434.5 c 128,-1,9
 912 -448 912 -448 901.5 -466 c 128,-1,10
 891 -484 891 -484 878 -513 c 1,11,-1
 855 -513 l 1,12,-1
 921 -226 l 1,13,14
 935 -222 935 -222 948.5 -218 c 128,-1,15
 962 -214 962 -214 978 -209 c 128,-1,16
 994 -204 994 -204 1011.5 -194.5 c 128,-1,17
 1029 -185 1029 -185 1055 -170 c 0,18,19
 1070 -161 1070 -161 1089.5 -148 c 128,-1,20
 1109 -135 1109 -135 1125.5 -112.5 c 128,-1,21
 1142 -90 1142 -90 1153.5 -57 c 128,-1,22
 1165 -24 1165 -24 1165 22 c 2,23,-1
 1165 438 l 2,24,25
 1165 552 1165 552 1122.5 611 c 128,-1,26
 1080 670 1080 670 1004 670 c 2,27,-1
 796 670 l 1,28,-1
 796 900 l 1,29,-1
 1004 900 l 2,30,31
 1131 900 1131 900 1194.5 785.5 c 128,-1,32
 1258 671 1258 671 1258 438 c 2,0,-1
966 294 m 0,33,34
 966 279 966 279 957.5 270 c 128,-1,35
 949 261 949 261 938.5 250.5 c 128,-1,36
 928 240 928 240 911.5 227 c 128,-1,37
 895 214 895 214 881 200 c 0,38,39
 867 183 867 183 856 169 c 128,-1,40
 845 155 845 155 837 144 c 128,-1,41
 829 133 829 133 822 126 c 128,-1,42
 815 119 815 119 805 119 c 0,43,44
 784 119 784 119 768.5 130 c 128,-1,45
 753 141 753 141 753 164 c 0,46,47
 753 195 753 195 758.5 218.5 c 128,-1,48
 764 242 764 242 773 270 c 0,49,50
 780 290 780 290 789 309.5 c 128,-1,51
 798 329 798 329 812.5 345.5 c 128,-1,52
 827 362 827 362 843.5 374 c 128,-1,53
 860 386 860 386 879 386 c 0,54,55
 897 386 897 386 923 362 c 0,56,57
 966 324 966 324 966 294 c 0,33,34
854 1395 m 1,58,59
 762 1276 762 1276 697.5 1182.5 c 128,-1,60
 633 1089 633 1089 565 918 c 128,-1,61
 497 747 497 747 440.5 544.5 c 128,-1,62
 384 342 384 342 384 145 c 1,63,64
 313 181 313 181 252 245 c 128,-1,65
 191 309 191 309 145 383 c 128,-1,66
 99 457 99 457 69.5 532.5 c 128,-1,67
 40 608 40 608 36 670 c 1,68,-1
 0 670 l 1,69,-1
 0 900 l 1,70,-1
 120 900 l 1,71,-1
 120 761 l 2,72,73
 120 714 120 714 137.5 654 c 128,-1,74
 155 594 155 594 181 536 c 128,-1,75
 207 478 207 478 234 431.5 c 128,-1,76
 261 385 261 385 285 365 c 1,77,78
 279 383 279 383 279 416 c 0,79,80
 279 437 279 437 282 463 c 0,81,82
 288 526 288 526 316.5 655.5 c 128,-1,83
 345 785 345 785 431.5 1003 c 128,-1,84
 518 1221 518 1221 558 1370.5 c 128,-1,85
 598 1520 598 1520 598 1560 c 0,86,87
 598 1586 598 1586 592.5 1619.5 c 128,-1,88
 587 1653 587 1653 581 1687.5 c 128,-1,89
 575 1722 575 1722 568.5 1751.5 c 128,-1,90
 562 1781 562 1781 562 1790 c 0,91,92
 562 1824 562 1824 571 1839.5 c 128,-1,93
 580 1855 580 1855 605 1855 c 0,94,95
 612 1855 612 1855 625 1838 c 128,-1,96
 638 1821 638 1821 652 1797 c 0,97,98
 683 1739 683 1739 706.5 1691.5 c 128,-1,99
 730 1644 730 1644 752.5 1597 c 128,-1,100
 775 1550 775 1550 800 1501.5 c 128,-1,101
 825 1453 825 1453 854 1395 c 1,58,59
EndSplineSet
EndChar

StartChar: uniE012
Encoding: 57362 57362 18
Width: 1200
Flags: W
LayerCount: 2
Fore
SplineSet
520 -29 m 4,0,1
 520 -41 520 -41 511 -51.5 c 132,-1,2
 502 -62 502 -62 492 -72.5 c 132,-1,3
 482 -83 482 -83 465 -94.5 c 132,-1,4
 448 -106 448 -106 434 -123 c 4,5,6
 421 -139 421 -139 410 -153.5 c 132,-1,7
 399 -168 399 -168 391 -178.5 c 132,-1,8
 383 -189 383 -189 376 -194.5 c 132,-1,9
 369 -200 369 -200 359 -200 c 4,10,11
 338 -200 338 -200 322.5 -191 c 132,-1,12
 307 -182 307 -182 307 -156 c 4,13,14
 307 -128 307 -128 311.5 -104.5 c 132,-1,15
 316 -81 316 -81 326 -50 c 4,16,17
 333 -34 333 -34 342.5 -13.5 c 132,-1,18
 352 7 352 7 366 24.5 c 132,-1,19
 380 42 380 42 396.5 52.5 c 132,-1,20
 413 63 413 63 432 63 c 260,21,22
 451 63 451 63 477 40 c 4,23,24
 520 2 520 2 520 -29 c 4,0,1
533 670 m 1,25,26
 531 572 531 572 518 473.5 c 128,-1,27
 505 375 505 375 488 273 c 1,28,-1
 441 262 l 1,29,30
 415 316 415 316 397.5 382 c 128,-1,31
 380 448 380 448 367 513 c 128,-1,32
 354 578 354 578 348 631 c 128,-1,33
 342 684 342 684 342 709 c 2,34,-1
 342 900 l 2,35,36
 342 952 342 952 330.5 983.5 c 128,-1,37
 319 1015 319 1015 291 1015 c 0,38,39
 270 1015 270 1015 253.5 1011.5 c 128,-1,40
 237 1008 237 1008 222.5 1001 c 128,-1,41
 208 994 208 994 193 986 c 128,-1,42
 178 978 178 978 158 963 c 0,43,44
 129 943 129 943 111 926 c 128,-1,45
 93 909 93 909 84 909 c 1,46,47
 69 924 69 924 58.5 939 c 128,-1,48
 48 954 48 954 48 966 c 1,49,50
 62 981 62 981 79.5 1003.5 c 128,-1,51
 97 1026 97 1026 114 1044 c 0,52,53
 201 1141 201 1141 261.5 1185.5 c 128,-1,54
 322 1230 322 1230 365 1230 c 0,55,56
 425 1230 425 1230 456.5 1174 c 128,-1,57
 488 1118 488 1118 488 1026 c 2,58,-1
 488 900 l 1,59,-1
 1300 900 l 1,60,-1
 1300 670 l 1,61,-1
 827 670 l 1,62,-1
 1088 298 l 1,63,-1
 1088 267 l 1,64,-1
 1033 4 l 1,65,-1
 1003 4 l 1,66,-1
 740 670 l 1,67,-1
 533 670 l 1,25,26
EndSplineSet
EndChar

StartChar: uniE013
Encoding: 57363 57363 19
Width: 900
Flags: W
LayerCount: 2
Fore
SplineSet
310 -29 m 4,0,1
 310 -41 310 -41 301 -51.5 c 132,-1,2
 292 -62 292 -62 282 -72.5 c 132,-1,3
 272 -83 272 -83 255 -94.5 c 132,-1,4
 238 -106 238 -106 224 -123 c 4,5,6
 211 -139 211 -139 200 -153.5 c 132,-1,7
 189 -168 189 -168 181 -178.5 c 132,-1,8
 173 -189 173 -189 166 -194.5 c 132,-1,9
 159 -200 159 -200 149 -200 c 4,10,11
 128 -200 128 -200 112.5 -191 c 132,-1,12
 97 -182 97 -182 97 -156 c 4,13,14
 97 -128 97 -128 101.5 -104.5 c 132,-1,15
 106 -81 106 -81 116 -50 c 4,16,17
 123 -34 123 -34 132.5 -13.5 c 132,-1,18
 142 7 142 7 156 24.5 c 132,-1,19
 170 42 170 42 186.5 52.5 c 132,-1,20
 203 63 203 63 222 63 c 260,21,22
 241 63 241 63 267 40 c 4,23,24
 310 2 310 2 310 -29 c 4,0,1
440 670 m 1,25,-1
 238 670 l 1,26,27
 236 640 236 640 230 586 c 128,-1,28
 224 532 224 532 218 473 c 128,-1,29
 212 414 212 414 204 361 c 128,-1,30
 196 308 196 308 186 277 c 1,31,-1
 141 261 l 1,32,33
 101 355 101 355 78.5 459.5 c 128,-1,34
 56 564 56 564 47 670 c 1,35,-1
 0 670 l 1,36,-1
 0 900 l 1,37,-1
 1000 900 l 1,38,-1
 1000 670 l 1,39,-1
 527 670 l 1,40,-1
 788 298 l 1,41,-1
 788 267 l 1,42,-1
 733 4 l 1,43,-1
 703 4 l 1,44,-1
 440 670 l 1,25,-1
EndSplineSet
EndChar

StartChar: uniE014
Encoding: 57364 57364 20
Width: 989
Flags: W
LayerCount: 2
Fore
SplineSet
255 -29 m 0,0,1
 255 -41 255 -41 246 -51.5 c 128,-1,2
 237 -62 237 -62 227 -72.5 c 128,-1,3
 217 -83 217 -83 200 -94.5 c 128,-1,4
 183 -106 183 -106 169 -123 c 0,5,6
 156 -139 156 -139 145 -153.5 c 128,-1,7
 134 -168 134 -168 126 -178.5 c 128,-1,8
 118 -189 118 -189 111 -194.5 c 128,-1,9
 104 -200 104 -200 94 -200 c 0,10,11
 73 -200 73 -200 57.5 -191 c 128,-1,12
 42 -182 42 -182 42 -156 c 0,13,14
 42 -128 42 -128 46.5 -104.5 c 128,-1,15
 51 -81 51 -81 61 -50 c 0,16,17
 68 -34 68 -34 77.5 -13.5 c 128,-1,18
 87 7 87 7 101 24.5 c 128,-1,19
 115 42 115 42 131.5 52.5 c 128,-1,20
 148 63 148 63 167 63 c 256,21,22
 186 63 186 63 212 40 c 0,23,24
 255 2 255 2 255 -29 c 0,0,1
390 900 m 1,25,26
 398 1013 398 1013 427 1081.5 c 128,-1,27
 456 1150 456 1150 493.5 1187.5 c 128,-1,28
 531 1225 531 1225 569.5 1237 c 128,-1,29
 608 1249 608 1249 635 1249 c 0,30,31
 708 1249 708 1249 761.5 1206 c 128,-1,32
 815 1163 815 1163 849.5 1091.5 c 128,-1,33
 884 1020 884 1020 899.5 928.5 c 128,-1,34
 915 837 915 837 915 742 c 0,35,36
 915 703 915 703 911 685.5 c 128,-1,37
 907 668 907 668 890 668 c 0,38,39
 876 668 876 668 868.5 684 c 128,-1,40
 861 700 861 700 855 720 c 0,41,42
 844 773 844 773 832 830 c 128,-1,43
 820 887 820 887 798 934.5 c 128,-1,44
 776 982 776 982 737.5 1013.5 c 128,-1,45
 699 1045 699 1045 634 1045 c 0,46,47
 602 1045 602 1045 569.5 1035 c 128,-1,48
 537 1025 537 1025 509 996 c 128,-1,49
 481 967 481 967 463 917 c 128,-1,50
 445 867 445 867 445 789 c 0,51,52
 445 744 445 744 463.5 703 c 128,-1,53
 482 662 482 662 508.5 625 c 128,-1,54
 535 588 535 588 566.5 554.5 c 128,-1,55
 598 521 598 521 621 493 c 1,56,-1
 586 282 l 1,57,-1
 569 282 l 1,58,59
 563 298 563 298 549 317.5 c 128,-1,60
 535 337 535 337 520 359 c 128,-1,61
 505 381 505 381 489 404.5 c 128,-1,62
 473 428 473 428 462 446 c 0,63,64
 448 467 448 467 436 493 c 128,-1,65
 424 519 424 519 412.5 548 c 128,-1,66
 401 577 401 577 395.5 607.5 c 128,-1,67
 390 638 390 638 390 670 c 1,68,-1
 192 670 l 1,69,70
 190 640 190 640 184 586 c 128,-1,71
 178 532 178 532 172 473 c 128,-1,72
 166 414 166 414 158 361 c 128,-1,73
 150 308 150 308 140 277 c 1,74,-1
 95 261 l 1,75,76
 55 355 55 355 32.5 459.5 c 128,-1,77
 10 564 10 564 1 670 c 1,78,-1
 1 900 l 1,79,-1
 390 900 l 1,25,26
EndSplineSet
EndChar

StartChar: uniE015
Encoding: 57365 57365 21
Width: 1300
Flags: W
LayerCount: 2
Fore
SplineSet
520 -29 m 4,0,1
 520 -41 520 -41 511 -51.5 c 132,-1,2
 502 -62 502 -62 492 -72.5 c 132,-1,3
 482 -83 482 -83 465 -94.5 c 132,-1,4
 448 -106 448 -106 434 -123 c 4,5,6
 421 -139 421 -139 410 -153.5 c 132,-1,7
 399 -168 399 -168 391 -178.5 c 132,-1,8
 383 -189 383 -189 376 -194.5 c 132,-1,9
 369 -200 369 -200 359 -200 c 4,10,11
 338 -200 338 -200 322.5 -191 c 132,-1,12
 307 -182 307 -182 307 -156 c 4,13,14
 307 -128 307 -128 311.5 -104.5 c 132,-1,15
 316 -81 316 -81 326 -50 c 4,16,17
 333 -34 333 -34 342.5 -13.5 c 132,-1,18
 352 7 352 7 366 24.5 c 132,-1,19
 380 42 380 42 396.5 52.5 c 132,-1,20
 413 63 413 63 432 63 c 260,21,22
 451 63 451 63 477 40 c 4,23,24
 520 2 520 2 520 -29 c 4,0,1
814 670 m 1,25,-1
 814 497 l 2,26,27
 814 423 814 423 860 388 c 128,-1,28
 906 353 906 353 980 353 c 0,29,30
 1052 353 1052 353 1092 388 c 128,-1,31
 1132 423 1132 423 1132 497 c 2,32,-1
 1132 670 l 1,33,-1
 814 670 l 1,25,-1
1202 670 m 1,34,-1
 1202 497 l 2,35,36
 1202 344 1202 344 1148 258.5 c 128,-1,37
 1094 173 1094 173 978 173 c 0,38,39
 863 173 863 173 805.5 258.5 c 128,-1,40
 748 344 748 344 748 497 c 2,41,-1
 748 670 l 1,42,-1
 533 670 l 1,43,44
 531 572 531 572 518 473.5 c 128,-1,45
 505 375 505 375 488 273 c 1,46,-1
 441 262 l 1,47,48
 415 316 415 316 397.5 382 c 128,-1,49
 380 448 380 448 367 513 c 128,-1,50
 354 578 354 578 348 631 c 128,-1,51
 342 684 342 684 342 709 c 2,52,-1
 342 900 l 2,53,54
 342 952 342 952 330.5 983.5 c 128,-1,55
 319 1015 319 1015 291 1015 c 0,56,57
 270 1015 270 1015 253.5 1011.5 c 128,-1,58
 237 1008 237 1008 222.5 1001 c 128,-1,59
 208 994 208 994 193 986 c 128,-1,60
 178 978 178 978 158 963 c 0,61,62
 129 943 129 943 111 926 c 128,-1,63
 93 909 93 909 84 909 c 1,64,65
 69 924 69 924 58.5 939 c 128,-1,66
 48 954 48 954 48 966 c 1,67,68
 62 981 62 981 79.5 1003.5 c 128,-1,69
 97 1026 97 1026 114 1044 c 0,70,71
 201 1141 201 1141 261.5 1185.5 c 128,-1,72
 322 1230 322 1230 365 1230 c 0,73,74
 425 1230 425 1230 456.5 1174 c 128,-1,75
 488 1118 488 1118 488 1026 c 2,76,-1
 488 900 l 1,77,-1
 1400 900 l 1,78,-1
 1400 670 l 1,79,-1
 1202 670 l 1,34,-1
EndSplineSet
EndChar

StartChar: uniE016
Encoding: 57366 57366 22
Width: 1000
Flags: W
LayerCount: 2
Fore
SplineSet
274 -29 m 4,0,1
 274 -41 274 -41 265 -51.5 c 132,-1,2
 256 -62 256 -62 246 -72.5 c 132,-1,3
 236 -83 236 -83 219 -94.5 c 132,-1,4
 202 -106 202 -106 188 -123 c 4,5,6
 175 -139 175 -139 164 -153.5 c 132,-1,7
 153 -168 153 -168 145 -178.5 c 132,-1,8
 137 -189 137 -189 130 -194.5 c 132,-1,9
 123 -200 123 -200 113 -200 c 4,10,11
 92 -200 92 -200 76.5 -191 c 132,-1,12
 61 -182 61 -182 61 -156 c 4,13,14
 61 -128 61 -128 65.5 -104.5 c 132,-1,15
 70 -81 70 -81 80 -50 c 4,16,17
 87 -34 87 -34 96.5 -13.5 c 132,-1,18
 106 7 106 7 120 24.5 c 132,-1,19
 134 42 134 42 150.5 52.5 c 132,-1,20
 167 63 167 63 186 63 c 260,21,22
 205 63 205 63 231 40 c 4,23,24
 274 2 274 2 274 -29 c 4,0,1
516 670 m 1,25,-1
 516 497 l 2,26,27
 516 423 516 423 562 388 c 128,-1,28
 608 353 608 353 682 353 c 0,29,30
 754 353 754 353 794 388 c 128,-1,31
 834 423 834 423 834 497 c 2,32,-1
 834 670 l 1,33,-1
 516 670 l 1,25,-1
238 670 m 1,34,35
 236 640 236 640 230 586 c 128,-1,36
 224 532 224 532 218 473 c 128,-1,37
 212 414 212 414 204 361 c 128,-1,38
 196 308 196 308 186 277 c 1,39,-1
 141 261 l 1,40,41
 101 355 101 355 78.5 459.5 c 128,-1,42
 56 564 56 564 47 670 c 1,43,-1
 0 670 l 1,44,-1
 0 900 l 1,45,-1
 1100 900 l 1,46,-1
 1100 670 l 1,47,-1
 904 670 l 1,48,-1
 904 497 l 2,49,50
 904 344 904 344 850 258.5 c 128,-1,51
 796 173 796 173 680 173 c 0,52,53
 565 173 565 173 507.5 258.5 c 128,-1,54
 450 344 450 344 450 497 c 2,55,-1
 450 670 l 1,56,-1
 238 670 l 1,34,35
EndSplineSet
EndChar

StartChar: uniE017
Encoding: 57367 57367 23
Width: 1231
Flags: W
LayerCount: 2
Fore
SplineSet
274 -29 m 4,0,1
 274 -41 274 -41 265 -51.5 c 132,-1,2
 256 -62 256 -62 246 -72.5 c 132,-1,3
 236 -83 236 -83 219 -94.5 c 132,-1,4
 202 -106 202 -106 188 -123 c 4,5,6
 175 -139 175 -139 164 -153.5 c 132,-1,7
 153 -168 153 -168 145 -178.5 c 132,-1,8
 137 -189 137 -189 130 -194.5 c 132,-1,9
 123 -200 123 -200 113 -200 c 4,10,11
 92 -200 92 -200 76.5 -191 c 132,-1,12
 61 -182 61 -182 61 -156 c 4,13,14
 61 -128 61 -128 65.5 -104.5 c 132,-1,15
 70 -81 70 -81 80 -50 c 4,16,17
 87 -34 87 -34 96.5 -13.5 c 132,-1,18
 106 7 106 7 120 24.5 c 132,-1,19
 134 42 134 42 150.5 52.5 c 132,-1,20
 167 63 167 63 186 63 c 260,21,22
 205 63 205 63 231 40 c 4,23,24
 274 2 274 2 274 -29 c 4,0,1
533 670 m 1,25,26
 533 602 533 602 535 546 c 128,-1,27
 537 490 537 490 552.5 447.5 c 128,-1,28
 568 405 568 405 601 380 c 128,-1,29
 634 355 634 355 695 355 c 256,30,31
 756 355 756 355 790.5 378.5 c 128,-1,32
 825 402 825 402 840 443.5 c 128,-1,33
 855 485 855 485 858 543.5 c 128,-1,34
 861 602 861 602 861 670 c 1,35,-1
 533 670 l 1,25,26
450 900 m 17,36,37
 470 1153 470 1153 556 1286 c 0,38,39
 641 1418 641 1418 798 1418 c 0,40,41
 877 1418 877 1418 936.5 1376.5 c 128,-1,42
 996 1335 996 1335 1037.5 1262 c 128,-1,43
 1079 1189 1079 1189 1100.5 1087.5 c 128,-1,44
 1122 986 1122 986 1122 866 c 0,45,46
 1122 819 1122 819 1111 795 c 128,-1,47
 1100 771 1100 771 1093 771 c 0,48,49
 1077 771 1077 771 1069 791.5 c 128,-1,50
 1061 812 1061 812 1048 868 c 1,51,52
 1037 958 1037 958 1011 1024 c 128,-1,53
 985 1090 985 1090 953.5 1132.5 c 128,-1,54
 922 1175 922 1175 881.5 1196.5 c 128,-1,55
 841 1218 841 1218 798 1218 c 0,56,57
 591 1218 591 1218 537 900 c 1,58,-1
 834 900 l 2,59,60
 940 900 940 900 940 791 c 2,61,-1
 940 555 l 2,62,63
 940 485 940 485 929.5 417.5 c 128,-1,64
 919 350 919 350 890 296 c 128,-1,65
 861 242 861 242 813.5 210 c 128,-1,66
 766 178 766 178 695 178 c 0,67,68
 641 178 641 178 603.5 201.5 c 128,-1,69
 566 225 566 225 537.5 266.5 c 128,-1,70
 509 308 509 308 492.5 358.5 c 128,-1,71
 476 409 476 409 466.5 464.5 c 128,-1,72
 457 520 457 520 453.5 573 c 128,-1,73
 450 626 450 626 450 670 c 1,74,-1
 238 670 l 1,75,76
 236 640 236 640 230 586 c 128,-1,77
 224 532 224 532 218 473 c 128,-1,78
 212 414 212 414 204 361 c 128,-1,79
 196 308 196 308 186 277 c 1,80,-1
 141 261 l 1,81,82
 101 355 101 355 78.5 459.5 c 128,-1,83
 56 564 56 564 47 670 c 1,84,-1
 0 670 l 1,85,-1
 0 900 l 9,86,-1
 450 900 l 17,36,37
EndSplineSet
EndChar

StartChar: uniE018
Encoding: 57368 57368 24
Width: 1799
Flags: W
LayerCount: 2
Fore
SplineSet
578 -29 m 4,0,1
 578 -41 578 -41 569 -51.5 c 132,-1,2
 560 -62 560 -62 550 -72.5 c 132,-1,3
 540 -83 540 -83 523 -94.5 c 132,-1,4
 506 -106 506 -106 492 -123 c 4,5,6
 479 -139 479 -139 468 -153.5 c 132,-1,7
 457 -168 457 -168 449 -178.5 c 132,-1,8
 441 -189 441 -189 434 -194.5 c 132,-1,9
 427 -200 427 -200 417 -200 c 4,10,11
 396 -200 396 -200 380.5 -191 c 132,-1,12
 365 -182 365 -182 365 -156 c 4,13,14
 365 -128 365 -128 369.5 -104.5 c 132,-1,15
 374 -81 374 -81 384 -50 c 4,16,17
 391 -34 391 -34 400.5 -13.5 c 132,-1,18
 410 7 410 7 424 24.5 c 132,-1,19
 438 42 438 42 454.5 52.5 c 132,-1,20
 471 63 471 63 490 63 c 260,21,22
 509 63 509 63 535 40 c 4,23,24
 578 2 578 2 578 -29 c 4,0,1
814 670 m 1,25,-1
 814 497 l 2,26,27
 814 423 814 423 860 388 c 128,-1,28
 906 353 906 353 980 353 c 0,29,30
 1052 353 1052 353 1092 388 c 128,-1,31
 1132 423 1132 423 1132 497 c 2,32,-1
 1132 670 l 1,33,-1
 814 670 l 1,25,-1
1202 670 m 1,34,-1
 1202 497 l 2,35,36
 1202 344 1202 344 1148 258.5 c 128,-1,37
 1094 173 1094 173 978 173 c 0,38,39
 863 173 863 173 805.5 258.5 c 128,-1,40
 748 344 748 344 748 497 c 2,41,-1
 748 670 l 1,42,-1
 533 670 l 1,43,44
 531 572 531 572 518 473.5 c 128,-1,45
 505 375 505 375 488 273 c 1,46,-1
 441 262 l 1,47,48
 415 316 415 316 397.5 382 c 128,-1,49
 380 448 380 448 367 513 c 128,-1,50
 354 578 354 578 348 631 c 128,-1,51
 342 684 342 684 342 709 c 2,52,-1
 342 900 l 2,53,54
 342 952 342 952 330.5 983.5 c 128,-1,55
 319 1015 319 1015 291 1015 c 0,56,57
 270 1015 270 1015 253.5 1011.5 c 128,-1,58
 237 1008 237 1008 222.5 1001 c 128,-1,59
 208 994 208 994 193 986 c 128,-1,60
 178 978 178 978 158 963 c 0,61,62
 129 943 129 943 111 926 c 128,-1,63
 93 909 93 909 84 909 c 1,64,65
 69 924 69 924 58.5 939 c 128,-1,66
 48 954 48 954 48 966 c 1,67,68
 62 981 62 981 79.5 1003.5 c 128,-1,69
 97 1026 97 1026 114 1044 c 0,70,71
 201 1141 201 1141 261.5 1185.5 c 128,-1,72
 322 1230 322 1230 365 1230 c 0,73,74
 425 1230 425 1230 456.5 1174 c 128,-1,75
 488 1118 488 1118 488 1026 c 2,76,-1
 488 900 l 1,77,-1
 1898 900 l 1,78,-1
 1898 670 l 1,79,-1
 1425 670 l 1,80,-1
 1686 298 l 1,81,-1
 1686 267 l 1,82,-1
 1631 4 l 1,83,-1
 1601 4 l 1,84,-1
 1338 670 l 1,85,-1
 1202 670 l 1,34,-1
EndSplineSet
EndChar

StartChar: uniE019
Encoding: 57369 57369 25
Width: 1696
Flags: W
LayerCount: 2
Fore
SplineSet
543 670 m 1,0,-1
 211 670 l 1,1,2
 211 605 211 605 213.5 546 c 128,-1,3
 216 487 216 487 231 444 c 128,-1,4
 246 401 246 401 280 377 c 128,-1,5
 314 353 314 353 376 353 c 0,6,7
 440 353 440 353 473.5 376.5 c 128,-1,8
 507 400 507 400 522.5 442 c 128,-1,9
 538 484 538 484 540.5 542.5 c 128,-1,10
 543 601 543 601 543 670 c 1,0,-1
927 670 m 1,11,12
 925 640 925 640 919 586 c 128,-1,13
 913 532 913 532 907 473 c 128,-1,14
 901 414 901 414 893 361 c 128,-1,15
 885 308 885 308 875 277 c 1,16,-1
 830 261 l 1,17,18
 790 355 790 355 767.5 459.5 c 128,-1,19
 745 564 745 564 738 808 c 0,20,21
 736 886 736 886 717 960 c 0,22,23
 696 1039 696 1039 663 1097 c 128,-1,24
 630 1155 630 1155 585.5 1188 c 128,-1,25
 541 1221 541 1221 481 1221 c 0,26,27
 274 1221 274 1221 216 900 c 1,28,-1
 518 900 l 2,29,30
 626 900 626 900 626 790 c 2,31,-1
 626 554 l 2,32,33
 626 480 626 480 613.5 411 c 128,-1,34
 601 342 601 342 572 288.5 c 128,-1,35
 543 235 543 235 496 203 c 128,-1,36
 449 171 449 171 376 171 c 0,37,38
 322 171 322 171 283 195 c 128,-1,39
 244 219 244 219 216.5 260 c 128,-1,40
 189 301 189 301 172 353.5 c 128,-1,41
 155 406 155 406 145.5 460.5 c 128,-1,42
 136 515 136 515 132.5 569.5 c 128,-1,43
 129 624 129 624 129 670 c 2,44,-1
 129 901 l 1,45,46
 147 1157 147 1157 234.5 1291.5 c 128,-1,47
 322 1426 322 1426 481 1426 c 0,48,49
 558 1426 558 1426 618.5 1387.5 c 128,-1,50
 679 1349 679 1349 721.5 1280 c 128,-1,51
 764 1211 764 1211 790 1114 c 128,-1,52
 816 1017 816 1017 826 900 c 1,53,-1
 1297 900 l 2,54,55
 1424 900 1424 900 1487.5 785.5 c 128,-1,56
 1551 671 1551 671 1551 438 c 2,57,-1
 1551 22 l 2,58,59
 1551 -65 1551 -65 1535 -129 c 128,-1,60
 1519 -193 1519 -193 1488.5 -240.5 c 128,-1,61
 1458 -288 1458 -288 1412 -322 c 128,-1,62
 1366 -356 1366 -356 1308 -382 c 0,63,64
 1273 -397 1273 -397 1253.5 -409 c 128,-1,65
 1234 -421 1234 -421 1219.5 -434.5 c 128,-1,66
 1205 -448 1205 -448 1194.5 -466 c 128,-1,67
 1184 -484 1184 -484 1171 -513 c 1,68,-1
 1148 -513 l 1,69,-1
 1214 -226 l 1,70,71
 1228 -222 1228 -222 1241.5 -218 c 128,-1,72
 1255 -214 1255 -214 1271 -209 c 128,-1,73
 1287 -204 1287 -204 1304.5 -194.5 c 128,-1,74
 1322 -185 1322 -185 1348 -170 c 0,75,76
 1363 -161 1363 -161 1382.5 -148 c 128,-1,77
 1402 -135 1402 -135 1418.5 -112.5 c 128,-1,78
 1435 -90 1435 -90 1446.5 -57 c 128,-1,79
 1458 -24 1458 -24 1458 22 c 2,80,-1
 1458 438 l 2,81,82
 1458 552 1458 552 1415.5 611 c 128,-1,83
 1373 670 1373 670 1297 670 c 2,84,-1
 927 670 l 1,11,12
EndSplineSet
EndChar

StartChar: uniE01A
Encoding: 57370 57370 26
Width: 1737
Flags: W
LayerCount: 2
Fore
SplineSet
535 670 m 1,0,-1
 204 670 l 1,1,2
 204 602 204 602 206 543.5 c 128,-1,3
 208 485 208 485 223 442.5 c 128,-1,4
 238 400 238 400 272.5 375 c 128,-1,5
 307 350 307 350 370 350 c 0,6,7
 431 350 431 350 464.5 374 c 128,-1,8
 498 398 498 398 514 440.5 c 128,-1,9
 530 483 530 483 532.5 540.5 c 128,-1,10
 535 598 535 598 535 670 c 1,0,-1
879 670 m 1,11,12
 898 598 898 598 924 541.5 c 128,-1,13
 950 485 950 485 977 443.5 c 128,-1,14
 1004 402 1004 402 1030 370.5 c 128,-1,15
 1056 339 1056 339 1072 315 c 1,16,-1
 1032 112 l 1,17,-1
 1004 112 l 1,18,19
 910 221 910 221 846 409.5 c 128,-1,20
 782 598 782 598 756 766.5 c 128,-1,21
 730 935 730 935 702 1005.5 c 128,-1,22
 674 1076 674 1076 637.5 1123 c 128,-1,23
 601 1170 601 1170 558.5 1196 c 128,-1,24
 516 1222 516 1222 471 1222 c 0,25,26
 267 1222 267 1222 208 900 c 1,27,-1
 509 900 l 2,28,29
 615 900 615 900 615 791 c 2,30,-1
 615 553 l 2,31,32
 615 483 615 483 603.5 414.5 c 128,-1,33
 592 346 592 346 563.5 292 c 128,-1,34
 535 238 535 238 487.5 204.5 c 128,-1,35
 440 171 440 171 370 171 c 0,36,37
 314 171 314 171 275 196 c 128,-1,38
 236 221 236 221 209 262 c 128,-1,39
 182 303 182 303 164 355 c 128,-1,40
 146 407 146 407 137 461 c 128,-1,41
 128 515 128 515 125.5 570.5 c 128,-1,42
 123 626 123 626 123 670 c 2,43,-1
 123 901 l 1,44,45
 139 1155 139 1155 226.5 1290 c 128,-1,46
 314 1425 314 1425 471 1425 c 0,47,48
 550 1425 550 1425 609.5 1376.5 c 128,-1,49
 669 1328 669 1328 711.5 1252.5 c 128,-1,50
 754 1177 754 1177 779 1084 c 128,-1,51
 804 991 804 991 813 900 c 1,52,-1
 1380 900 l 1,53,54
 1475 894 1475 894 1526.5 824 c 128,-1,55
 1578 754 1578 754 1578 636 c 2,56,-1
 1578 517 l 2,57,58
 1578 445 1578 445 1553.5 400.5 c 128,-1,59
 1529 356 1529 356 1491 356 c 1,60,-1
 1491 379 l 2,61,62
 1491 517 1491 517 1441 591.5 c 128,-1,63
 1391 666 1391 666 1291 670 c 1,64,-1
 879 670 l 1,11,12
EndSplineSet
EndChar

StartChar: uniE01B
Encoding: 57371 57371 27
Width: 1094
Flags: W
LayerCount: 2
Fore
SplineSet
950 901 m 1,0,-1
 950 666 l 2,1,2
 950 560 950 560 938 476.5 c 128,-1,3
 926 393 926 393 900 335 c 128,-1,4
 874 277 874 277 835.5 246.5 c 128,-1,5
 797 216 797 216 737 216 c 0,6,7
 643 216 643 216 592.5 286.5 c 128,-1,8
 542 357 542 357 539 499 c 1,9,10
 535 357 535 357 484.5 286.5 c 128,-1,11
 434 216 434 216 339 216 c 0,12,13
 281 216 281 216 240.5 246.5 c 128,-1,14
 200 277 200 277 175.5 335 c 128,-1,15
 151 393 151 393 140.5 476.5 c 128,-1,16
 130 560 130 560 130 666 c 2,17,-1
 130 901 l 1,18,19
 137 1029 137 1029 172.5 1128 c 128,-1,20
 208 1227 208 1227 263.5 1293.5 c 128,-1,21
 319 1360 319 1360 390.5 1394.5 c 128,-1,22
 462 1429 462 1429 542 1429 c 0,23,24
 651 1429 651 1429 725 1383 c 128,-1,25
 799 1337 799 1337 847.5 1263 c 128,-1,26
 896 1189 896 1189 920.5 1093.5 c 128,-1,27
 945 998 945 998 950 901 c 1,0,-1
851 900 m 1,28,29
 844 951 844 951 826.5 1008.5 c 128,-1,30
 809 1066 809 1066 772 1113 c 128,-1,31
 735 1160 735 1160 678.5 1192 c 128,-1,32
 622 1224 622 1224 542 1224 c 0,33,34
 488 1224 488 1224 436 1203 c 128,-1,35
 384 1182 384 1182 339 1141.5 c 128,-1,36
 294 1101 294 1101 262.5 1041.5 c 128,-1,37
 231 982 231 982 217 900 c 1,38,-1
 429 900 l 2,39,40
 481 900 481 900 508 869 c 128,-1,41
 535 838 535 838 539 786 c 1,42,43
 542 838 542 838 569 869 c 128,-1,44
 596 900 596 900 649 900 c 2,45,-1
 851 900 l 1,28,29
458 670 m 1,46,-1
 213 670 l 1,47,48
 213 530 213 530 237.5 462.5 c 128,-1,49
 262 395 262 395 339 395 c 0,50,51
 377 395 377 395 400.5 410 c 128,-1,52
 424 425 424 425 435.5 459.5 c 128,-1,53
 447 494 447 494 452.5 544.5 c 128,-1,54
 458 595 458 595 458 670 c 1,46,-1
867 670 m 1,55,-1
 622 670 l 1,56,57
 622 595 622 595 625.5 544.5 c 128,-1,58
 629 494 629 494 641 459.5 c 128,-1,59
 653 425 653 425 676.5 410 c 128,-1,60
 700 395 700 395 737 395 c 0,61,62
 815 395 815 395 841 462.5 c 128,-1,63
 867 530 867 530 867 670 c 1,55,-1
EndSplineSet
EndChar

StartChar: uniE01C
Encoding: 57372 57372 28
Width: 1564
Flags: W
LayerCount: 2
Fore
SplineSet
872 900 m 5,0,1
 670 900 l 6,2,3
 617 900 617 900 590 869 c 128,-1,4
 563 838 563 838 560 786 c 5,5,6
 556 838 556 838 529 869 c 128,-1,7
 502 900 502 900 450 900 c 6,8,-1
 238 900 l 5,9,10
 252 982 252 982 283.5 1041.5 c 132,-1,11
 315 1101 315 1101 360 1141.5 c 128,-1,12
 405 1182 405 1182 457 1203 c 132,-1,13
 509 1224 509 1224 563 1224 c 4,14,15
 643 1224 643 1224 699.5 1192 c 132,-1,16
 756 1160 756 1160 793 1113 c 132,-1,17
 830 1066 830 1066 847.5 1008.5 c 132,-1,18
 865 951 865 951 872 900 c 5,0,1
888 670 m 5,19,20
 888 530 888 530 862 462.5 c 132,-1,21
 836 395 836 395 758 395 c 4,22,23
 721 395 721 395 697.5 410 c 132,-1,24
 674 425 674 425 662 459.5 c 132,-1,25
 650 494 650 494 646.5 544.5 c 132,-1,26
 643 595 643 595 643 670 c 5,27,-1
 888 670 l 5,19,20
479 670 m 5,28,29
 479 595 479 595 473.5 544.5 c 132,-1,30
 468 494 468 494 456.5 459.5 c 132,-1,31
 445 425 445 425 421.5 410 c 132,-1,32
 398 395 398 395 360 395 c 4,33,34
 283 395 283 395 258.5 462.5 c 132,-1,35
 234 530 234 530 234 670 c 5,36,-1
 479 670 l 5,28,29
151 670 m 17,37,-1
 151 666 l 2,38,39
 151 560 151 560 161.5 476.5 c 128,-1,40
 172 393 172 393 196.5 335 c 128,-1,41
 221 277 221 277 261.5 246.5 c 128,-1,42
 302 216 302 216 360 216 c 0,43,44
 455 216 455 216 505.5 286.5 c 128,-1,45
 556 357 556 357 560 499 c 1,46,47
 563 357 563 357 613.5 286.5 c 128,-1,48
 664 216 664 216 758 216 c 0,49,50
 818 216 818 216 856.5 246.5 c 128,-1,51
 895 277 895 277 921 335 c 128,-1,52
 947 393 947 393 959 476.5 c 128,-1,53
 971 560 971 560 971 666 c 2,54,-1
 971 670 l 1,55,-1
 1118 670 l 1,56,57
 1218 666 1218 666 1268 591.5 c 128,-1,58
 1318 517 1318 517 1318 379 c 2,59,-1
 1318 356 l 1,60,61
 1356 356 1356 356 1380.5 400.5 c 128,-1,62
 1405 445 1405 445 1405 517 c 2,63,-1
 1405 636 l 2,64,65
 1405 754 1405 754 1353.5 824 c 128,-1,66
 1302 894 1302 894 1207 900 c 1,67,-1
 971 900 l 1,68,-1
 971 901 l 1,69,70
 966 998 966 998 941.5 1093.5 c 128,-1,71
 917 1189 917 1189 868.5 1263 c 128,-1,72
 820 1337 820 1337 746 1383 c 128,-1,73
 672 1429 672 1429 563 1429 c 0,74,75
 483 1429 483 1429 411.5 1394.5 c 128,-1,76
 340 1360 340 1360 284.5 1293.5 c 128,-1,77
 229 1227 229 1227 193.5 1128 c 128,-1,78
 158 1029 158 1029 151 901 c 1,79,-1
 151 900 l 9,80,-1
 151 670 l 17,37,-1
EndSplineSet
EndChar

StartChar: uniE01D
Encoding: 57373 57373 29
Width: 1075
Flags: W
LayerCount: 2
Fore
SplineSet
528 670 m 1,0,-1
 196 670 l 1,1,2
 196 605 196 605 198.5 546 c 128,-1,3
 201 487 201 487 216 444 c 128,-1,4
 231 401 231 401 265 377 c 128,-1,5
 299 353 299 353 361 353 c 0,6,7
 425 353 425 353 458.5 376.5 c 128,-1,8
 492 400 492 400 507.5 442 c 128,-1,9
 523 484 523 484 525.5 542.5 c 128,-1,10
 528 601 528 601 528 670 c 1,0,-1
723 808 m 0,11,12
 721 886 721 886 702 960 c 0,13,14
 681 1039 681 1039 648 1097 c 128,-1,15
 615 1155 615 1155 570.5 1188 c 128,-1,16
 526 1221 526 1221 466 1221 c 0,17,18
 259 1221 259 1221 201 900 c 1,19,-1
 503 900 l 2,20,21
 611 900 611 900 611 790 c 2,22,-1
 611 554 l 2,23,24
 611 480 611 480 598.5 411 c 128,-1,25
 586 342 586 342 557 288.5 c 128,-1,26
 528 235 528 235 481 203 c 128,-1,27
 434 171 434 171 361 171 c 0,28,29
 307 171 307 171 268 195 c 128,-1,30
 229 219 229 219 201.5 260 c 128,-1,31
 174 301 174 301 157 353.5 c 128,-1,32
 140 406 140 406 130.5 460.5 c 128,-1,33
 121 515 121 515 117.5 569.5 c 128,-1,34
 114 624 114 624 114 670 c 2,35,-1
 114 901 l 1,36,37
 132 1157 132 1157 219.5 1291.5 c 128,-1,38
 307 1426 307 1426 466 1426 c 0,39,40
 543 1426 543 1426 603.5 1387.5 c 128,-1,41
 664 1349 664 1349 706.5 1280 c 128,-1,42
 749 1211 749 1211 775 1114 c 128,-1,43
 801 1017 801 1017 811 900 c 1,44,-1
 1175 900 l 1,45,-1
 1175 670 l 1,46,-1
 912 670 l 1,47,48
 910 640 910 640 904 586 c 128,-1,49
 898 532 898 532 892 473 c 128,-1,50
 886 414 886 414 878 361 c 128,-1,51
 870 308 870 308 860 277 c 1,52,-1
 815 261 l 1,53,54
 775 355 775 355 752.5 459.5 c 128,-1,55
 730 564 730 564 723 808 c 0,11,12
EndSplineSet
EndChar

StartChar: uniE01E
Encoding: 57374 57374 30
Width: 1081
Flags: W
LayerCount: 2
Fore
SplineSet
121 670 m 9,0,1
 0 670 l 25,2,-1
 0 900 l 25,3,-1
 121 900 l 1,4,-1
 121 901 l 1,5,6
 139 1157 139 1157 226.5 1291.5 c 128,-1,7
 314 1426 314 1426 473 1426 c 0,8,9
 550 1426 550 1426 610.5 1387.5 c 128,-1,10
 671 1349 671 1349 713.5 1280 c 128,-1,11
 756 1211 756 1211 782 1114 c 128,-1,12
 808 1017 808 1017 818 900 c 1,13,-1
 1181 900 l 1,14,-1
 1181 670 l 1,15,-1
 919 670 l 1,16,17
 917 640 917 640 911 586 c 128,-1,18
 905 532 905 532 899 473 c 128,-1,19
 893 414 893 414 885 361 c 128,-1,20
 877 308 877 308 867 277 c 1,21,-1
 822 261 l 1,22,23
 782 355 782 355 759.5 459.5 c 128,-1,24
 737 564 737 564 730 808 c 0,25,26
 728 886 728 886 709 960 c 0,27,28
 688 1039 688 1039 655 1097 c 128,-1,29
 622 1155 622 1155 577.5 1188 c 128,-1,30
 533 1221 533 1221 473 1221 c 0,31,32
 266 1221 266 1221 208 900 c 1,33,-1
 510 900 l 2,34,35
 618 900 618 900 618 790 c 2,36,-1
 618 554 l 2,37,38
 618 480 618 480 605.5 411 c 128,-1,39
 593 342 593 342 564 288.5 c 128,-1,40
 535 235 535 235 488 203 c 128,-1,41
 441 171 441 171 368 171 c 0,42,43
 314 171 314 171 275 195 c 128,-1,44
 236 219 236 219 208.5 260 c 128,-1,45
 181 301 181 301 164 353.5 c 128,-1,46
 147 406 147 406 137.5 460.5 c 128,-1,47
 128 515 128 515 124.5 569.5 c 128,-1,48
 121 624 121 624 121 670 c 9,0,1
203 670 m 5,49,50
 203 605 203 605 205.5 546 c 132,-1,51
 208 487 208 487 223 444 c 132,-1,52
 238 401 238 401 272 377 c 132,-1,53
 306 353 306 353 368 353 c 4,54,55
 432 353 432 353 465.5 376.5 c 132,-1,56
 499 400 499 400 514.5 442 c 132,-1,57
 530 484 530 484 532.5 542.5 c 132,-1,58
 535 601 535 601 535 670 c 5,59,-1
 203 670 l 5,49,50
EndSplineSet
EndChar

StartChar: uniE026
Encoding: 57382 57382 31
Width: 1502
Flags: W
LayerCount: 2
Fore
SplineSet
863 900 m 1,0,1
 856 951 856 951 838.5 1008.5 c 128,-1,2
 821 1066 821 1066 784 1113 c 128,-1,3
 747 1160 747 1160 690.5 1192 c 128,-1,4
 634 1224 634 1224 554 1224 c 0,5,6
 500 1224 500 1224 448 1203 c 128,-1,7
 396 1182 396 1182 351 1141.5 c 128,-1,8
 306 1101 306 1101 274.5 1041.5 c 128,-1,9
 243 982 243 982 229 900 c 1,10,-1
 441 900 l 2,11,12
 493 900 493 900 520 869 c 128,-1,13
 547 838 547 838 551 786 c 1,14,15
 554 838 554 838 581 869 c 128,-1,16
 608 900 608 900 661 900 c 2,17,-1
 863 900 l 1,0,1
470 670 m 1,18,-1
 225 670 l 1,19,20
 225 530 225 530 249.5 462.5 c 128,-1,21
 274 395 274 395 351 395 c 0,22,23
 389 395 389 395 412.5 410 c 128,-1,24
 436 425 436 425 447.5 459.5 c 128,-1,25
 459 494 459 494 464.5 544.5 c 128,-1,26
 470 595 470 595 470 670 c 1,18,-1
879 670 m 1,27,-1
 634 670 l 1,28,29
 634 595 634 595 637.5 544.5 c 128,-1,30
 641 494 641 494 653 459.5 c 128,-1,31
 665 425 665 425 688.5 410 c 128,-1,32
 712 395 712 395 749 395 c 0,33,34
 827 395 827 395 853 462.5 c 128,-1,35
 879 530 879 530 879 670 c 1,27,-1
962 670 m 1,36,-1
 962 666 l 2,37,38
 962 560 962 560 950 476.5 c 128,-1,39
 938 393 938 393 912 335 c 128,-1,40
 886 277 886 277 847.5 246.5 c 128,-1,41
 809 216 809 216 749 216 c 0,42,43
 655 216 655 216 604.5 286.5 c 128,-1,44
 554 357 554 357 551 499 c 1,45,46
 547 357 547 357 496.5 286.5 c 128,-1,47
 446 216 446 216 351 216 c 0,48,49
 293 216 293 216 252.5 246.5 c 128,-1,50
 212 277 212 277 187.5 335 c 128,-1,51
 163 393 163 393 152.5 476.5 c 128,-1,52
 142 560 142 560 142 666 c 2,53,-1
 142 901 l 1,54,55
 149 1029 149 1029 184.5 1128 c 128,-1,56
 220 1227 220 1227 275.5 1293.5 c 128,-1,57
 331 1360 331 1360 402.5 1394.5 c 128,-1,58
 474 1429 474 1429 554 1429 c 0,59,60
 663 1429 663 1429 737 1383 c 128,-1,61
 811 1337 811 1337 859.5 1263 c 128,-1,62
 908 1189 908 1189 932.5 1093.5 c 128,-1,63
 957 998 957 998 962 901 c 1,64,-1
 962 900 l 1,65,-1
 1602 900 l 1,66,-1
 1602 670 l 1,67,-1
 1129 670 l 1,68,-1
 1390 298 l 1,69,-1
 1390 267 l 1,70,-1
 1335 4 l 1,71,-1
 1305 4 l 1,72,-1
 1042 670 l 1,73,-1
 962 670 l 1,36,-1
EndSplineSet
EndChar

StartChar: uniE01F
Encoding: 57375 57375 32
Width: 1710
Flags: W
LayerCount: 2
Fore
SplineSet
519 900 m 2,0,1
 627 900 627 900 627 790 c 2,2,-1
 627 554 l 2,3,4
 627 480 627 480 614.5 411 c 128,-1,5
 602 342 602 342 573 288.5 c 128,-1,6
 544 235 544 235 497 203 c 128,-1,7
 450 171 450 171 377 171 c 0,8,9
 323 171 323 171 284 195 c 128,-1,10
 245 219 245 219 217.5 260 c 128,-1,11
 190 301 190 301 173 353.5 c 128,-1,12
 156 406 156 406 146.5 460.5 c 128,-1,13
 137 515 137 515 133.5 569.5 c 128,-1,14
 130 624 130 624 130 670 c 1,15,-1
 0 670 l 1,16,-1
 0 900 l 5,17,-1
 130 900 l 1,18,-1
 130 901 l 1,19,20
 148 1157 148 1157 235.5 1291.5 c 128,-1,21
 323 1426 323 1426 482 1426 c 0,22,23
 559 1426 559 1426 619.5 1387.5 c 128,-1,24
 680 1349 680 1349 722.5 1280 c 128,-1,25
 765 1211 765 1211 791 1114 c 128,-1,26
 817 1017 817 1017 827 900 c 1,27,-1
 1298 900 l 2,28,29
 1425 900 1425 900 1488.5 785.5 c 128,-1,30
 1552 671 1552 671 1552 438 c 2,31,-1
 1552 22 l 2,32,33
 1552 -65 1552 -65 1536 -129 c 128,-1,34
 1520 -193 1520 -193 1489.5 -240.5 c 128,-1,35
 1459 -288 1459 -288 1413 -322 c 128,-1,36
 1367 -356 1367 -356 1309 -382 c 0,37,38
 1274 -397 1274 -397 1254.5 -409 c 128,-1,39
 1235 -421 1235 -421 1220.5 -434.5 c 128,-1,40
 1206 -448 1206 -448 1195.5 -466 c 128,-1,41
 1185 -484 1185 -484 1172 -513 c 1,42,-1
 1149 -513 l 1,43,-1
 1215 -226 l 1,44,45
 1229 -222 1229 -222 1242.5 -218 c 128,-1,46
 1256 -214 1256 -214 1272 -209 c 128,-1,47
 1288 -204 1288 -204 1305.5 -194.5 c 128,-1,48
 1323 -185 1323 -185 1349 -170 c 0,49,50
 1364 -161 1364 -161 1383.5 -148 c 128,-1,51
 1403 -135 1403 -135 1419.5 -112.5 c 128,-1,52
 1436 -90 1436 -90 1447.5 -57 c 128,-1,53
 1459 -24 1459 -24 1459 22 c 2,54,-1
 1459 438 l 2,55,56
 1459 552 1459 552 1416.5 611 c 128,-1,57
 1374 670 1374 670 1298 670 c 2,58,-1
 928 670 l 1,59,60
 926 640 926 640 920 586 c 128,-1,61
 914 532 914 532 908 473 c 128,-1,62
 902 414 902 414 894 361 c 128,-1,63
 886 308 886 308 876 277 c 1,64,-1
 831 261 l 1,65,66
 791 355 791 355 768.5 459.5 c 128,-1,67
 746 564 746 564 739 808 c 0,68,69
 737 886 737 886 718 960 c 0,70,71
 697 1039 697 1039 664 1097 c 128,-1,72
 631 1155 631 1155 586.5 1188 c 128,-1,73
 542 1221 542 1221 482 1221 c 0,74,75
 275 1221 275 1221 217 900 c 1,76,-1
 519 900 l 2,0,1
212 670 m 1,77,78
 212 605 212 605 214.5 546 c 128,-1,79
 217 487 217 487 232 444 c 128,-1,80
 247 401 247 401 281 377 c 128,-1,81
 315 353 315 353 377 353 c 0,82,83
 441 353 441 353 474.5 376.5 c 128,-1,84
 508 400 508 400 523.5 442 c 128,-1,85
 539 484 539 484 541.5 542.5 c 128,-1,86
 544 601 544 601 544 670 c 1,87,-1
 212 670 l 1,77,78
EndSplineSet
EndChar

StartChar: uniE020
Encoding: 57376 57376 33
Width: 1190
Flags: W
LayerCount: 2
Fore
SplineSet
1290 900 m 1,0,-1
 1290 670 l 1,1,-1
 885 670 l 1,2,3
 904 598 904 598 930 541.5 c 128,-1,4
 956 485 956 485 983 443.5 c 128,-1,5
 1010 402 1010 402 1036 370.5 c 128,-1,6
 1062 339 1062 339 1078 315 c 1,7,-1
 1038 112 l 1,8,-1
 1010 112 l 1,9,10
 916 221 916 221 852 409.5 c 128,-1,11
 788 598 788 598 762 766.5 c 128,-1,12
 736 935 736 935 708 1005.5 c 128,-1,13
 680 1076 680 1076 643.5 1123 c 128,-1,14
 607 1170 607 1170 564.5 1196 c 128,-1,15
 522 1222 522 1222 477 1222 c 0,16,17
 273 1222 273 1222 214 900 c 1,18,-1
 515 900 l 2,19,20
 621 900 621 900 621 791 c 2,21,-1
 621 553 l 2,22,23
 621 483 621 483 609.5 414.5 c 128,-1,24
 598 346 598 346 569.5 292 c 128,-1,25
 541 238 541 238 493.5 204.5 c 128,-1,26
 446 171 446 171 376 171 c 0,27,28
 320 171 320 171 281 196 c 128,-1,29
 242 221 242 221 215 262 c 128,-1,30
 188 303 188 303 170 355 c 128,-1,31
 152 407 152 407 143 461 c 128,-1,32
 134 515 134 515 131.5 570.5 c 128,-1,33
 129 626 129 626 129 670 c 2,34,-1
 129 901 l 1,35,36
 145 1155 145 1155 232.5 1290 c 128,-1,37
 320 1425 320 1425 477 1425 c 0,38,39
 556 1425 556 1425 615.5 1376.5 c 128,-1,40
 675 1328 675 1328 717.5 1252.5 c 128,-1,41
 760 1177 760 1177 785 1084 c 128,-1,42
 810 991 810 991 819 900 c 1,43,-1
 1290 900 l 1,0,-1
541 670 m 1,44,-1
 210 670 l 1,45,46
 210 602 210 602 212 543.5 c 128,-1,47
 214 485 214 485 229 442.5 c 128,-1,48
 244 400 244 400 278.5 375 c 128,-1,49
 313 350 313 350 376 350 c 0,50,51
 437 350 437 350 470.5 374 c 128,-1,52
 504 398 504 398 520 440.5 c 128,-1,53
 536 483 536 483 538.5 540.5 c 128,-1,54
 541 598 541 598 541 670 c 1,44,-1
EndSplineSet
EndChar

StartChar: uniE021
Encoding: 57377 57377 34
Width: 1208
Flags: W
LayerCount: 2
Fore
SplineSet
533 900 m 2,0,1
 639 900 639 900 639 791 c 2,2,-1
 639 553 l 2,3,4
 639 483 639 483 627.5 414.5 c 128,-1,5
 616 346 616 346 587.5 292 c 128,-1,6
 559 238 559 238 511.5 204.5 c 128,-1,7
 464 171 464 171 394 171 c 0,8,9
 338 171 338 171 299 196 c 128,-1,10
 260 221 260 221 233 262 c 128,-1,11
 206 303 206 303 188 355 c 128,-1,12
 170 407 170 407 161 461 c 128,-1,13
 152 515 152 515 149.5 570.5 c 128,-1,14
 147 626 147 626 147 670 c 1,15,-1
 0 670 l 1,16,-1
 0 900 l 5,17,-1
 147 900 l 1,18,-1
 147 901 l 1,19,20
 163 1155 163 1155 250.5 1290 c 128,-1,21
 338 1425 338 1425 495 1425 c 0,22,23
 574 1425 574 1425 633.5 1376.5 c 128,-1,24
 693 1328 693 1328 735.5 1252.5 c 128,-1,25
 778 1177 778 1177 803 1084 c 128,-1,26
 828 991 828 991 837 900 c 1,27,-1
 1308 900 l 1,28,-1
 1308 670 l 1,29,-1
 903 670 l 1,30,31
 922 598 922 598 948 541.5 c 128,-1,32
 974 485 974 485 1001 443.5 c 128,-1,33
 1028 402 1028 402 1054 370.5 c 128,-1,34
 1080 339 1080 339 1096 315 c 1,35,-1
 1056 112 l 1,36,-1
 1028 112 l 1,37,38
 934 221 934 221 870 409.5 c 128,-1,39
 806 598 806 598 780 766.5 c 128,-1,40
 754 935 754 935 726 1005.5 c 128,-1,41
 698 1076 698 1076 661.5 1123 c 128,-1,42
 625 1170 625 1170 582.5 1196 c 128,-1,43
 540 1222 540 1222 495 1222 c 0,44,45
 291 1222 291 1222 232 900 c 1,46,-1
 533 900 l 2,0,1
228 670 m 1,47,48
 228 602 228 602 230 543.5 c 128,-1,49
 232 485 232 485 247 442.5 c 128,-1,50
 262 400 262 400 296.5 375 c 128,-1,51
 331 350 331 350 394 350 c 0,52,53
 455 350 455 350 488.5 374 c 128,-1,54
 522 398 522 398 538 440.5 c 128,-1,55
 554 483 554 483 556.5 540.5 c 128,-1,56
 559 598 559 598 559 670 c 1,57,-1
 228 670 l 1,47,48
EndSplineSet
EndChar

StartChar: uniE022
Encoding: 57378 57378 35
Width: 1754
Flags: W
LayerCount: 2
Fore
SplineSet
565 670 m 1,0,-1
 234 670 l 1,1,2
 234 602 234 602 236 543.5 c 128,-1,3
 238 485 238 485 253 442.5 c 128,-1,4
 268 400 268 400 302.5 375 c 128,-1,5
 337 350 337 350 400 350 c 0,6,7
 461 350 461 350 494.5 374 c 128,-1,8
 528 398 528 398 544 440.5 c 128,-1,9
 560 483 560 483 562.5 540.5 c 128,-1,10
 565 598 565 598 565 670 c 1,0,-1
153 900 m 1,11,-1
 153 901 l 1,12,13
 169 1155 169 1155 256.5 1290 c 128,-1,14
 344 1425 344 1425 501 1425 c 0,15,16
 580 1425 580 1425 639.5 1376.5 c 128,-1,17
 699 1328 699 1328 741.5 1252.5 c 128,-1,18
 784 1177 784 1177 809 1084 c 128,-1,19
 834 991 834 991 843 900 c 1,20,-1
 1410 900 l 1,21,22
 1505 894 1505 894 1556.5 824 c 128,-1,23
 1608 754 1608 754 1608 636 c 2,24,-1
 1608 517 l 2,25,26
 1608 445 1608 445 1583.5 400.5 c 128,-1,27
 1559 356 1559 356 1521 356 c 1,28,-1
 1521 379 l 2,29,30
 1521 517 1521 517 1471 591.5 c 128,-1,31
 1421 666 1421 666 1321 670 c 1,32,-1
 909 670 l 1,33,34
 928 598 928 598 954 541.5 c 128,-1,35
 980 485 980 485 1007 443.5 c 128,-1,36
 1034 402 1034 402 1060 370.5 c 128,-1,37
 1086 339 1086 339 1102 315 c 1,38,-1
 1062 112 l 1,39,-1
 1034 112 l 1,40,41
 940 221 940 221 876 409.5 c 0,42,43
 818 581 818 581 775 843 c 0,44,45
 760 935 760 935 732 1005.5 c 128,-1,46
 704 1076 704 1076 667.5 1123 c 128,-1,47
 631 1170 631 1170 588.5 1196 c 128,-1,48
 546 1222 546 1222 501 1222 c 0,49,50
 297 1222 297 1222 238 900 c 1,51,-1
 539 900 l 2,52,53
 645 900 645 900 645 791 c 2,54,-1
 645 553 l 2,55,56
 645 483 645 483 633.5 414.5 c 128,-1,57
 622 346 622 346 593.5 292 c 128,-1,58
 565 238 565 238 517.5 204.5 c 128,-1,59
 470 171 470 171 400 171 c 0,60,61
 344 171 344 171 305 196 c 128,-1,62
 266 221 266 221 239 262 c 128,-1,63
 212 303 212 303 194 355 c 128,-1,64
 176 407 176 407 167 461 c 128,-1,65
 158 515 158 515 155.5 570.5 c 128,-1,66
 153 626 153 626 153 670 c 1,67,-1
 0 670 l 1,68,-1
 0 900 l 1,69,-1
 153 900 l 1,11,-1
EndSplineSet
EndChar

StartChar: uniE023
Encoding: 57379 57379 36
Width: 981
Flags: W
LayerCount: 2
Fore
SplineSet
842 900 m 1,0,1
 835 951 835 951 817.5 1008.5 c 128,-1,2
 800 1066 800 1066 763 1113 c 128,-1,3
 726 1160 726 1160 669.5 1192 c 128,-1,4
 613 1224 613 1224 533 1224 c 0,5,6
 479 1224 479 1224 427 1203 c 128,-1,7
 375 1182 375 1182 330 1141.5 c 128,-1,8
 285 1101 285 1101 253.5 1041.5 c 128,-1,9
 222 982 222 982 208 900 c 1,10,-1
 420 900 l 2,11,12
 472 900 472 900 499 869 c 128,-1,13
 526 838 526 838 530 786 c 1,14,15
 533 838 533 838 560 869 c 128,-1,16
 587 900 587 900 640 900 c 2,17,-1
 842 900 l 1,0,1
858 670 m 1,18,-1
 613 670 l 1,19,20
 613 595 613 595 616.5 544.5 c 128,-1,21
 620 494 620 494 632 459.5 c 128,-1,22
 644 425 644 425 667.5 410 c 128,-1,23
 691 395 691 395 728 395 c 0,24,25
 806 395 806 395 832 462.5 c 128,-1,26
 858 530 858 530 858 670 c 1,18,-1
449 670 m 1,27,-1
 204 670 l 1,28,29
 204 530 204 530 228.5 462.5 c 128,-1,30
 253 395 253 395 330 395 c 0,31,32
 368 395 368 395 391.5 410 c 128,-1,33
 415 425 415 425 426.5 459.5 c 128,-1,34
 438 494 438 494 443.5 544.5 c 128,-1,35
 449 595 449 595 449 670 c 1,27,-1
941 670 m 1,36,-1
 941 666 l 2,37,38
 941 560 941 560 929 476.5 c 128,-1,39
 917 393 917 393 891 335 c 128,-1,40
 865 277 865 277 826.5 246.5 c 128,-1,41
 788 216 788 216 728 216 c 0,42,43
 634 216 634 216 583.5 286.5 c 128,-1,44
 533 357 533 357 530 499 c 1,45,46
 526 357 526 357 475.5 286.5 c 128,-1,47
 425 216 425 216 330 216 c 0,48,49
 272 216 272 216 231.5 246.5 c 128,-1,50
 191 277 191 277 166.5 335 c 128,-1,51
 142 393 142 393 131.5 476.5 c 128,-1,52
 121 560 121 560 121 666 c 2,53,-1
 121 901 l 1,54,55
 128 1029 128 1029 163.5 1128 c 128,-1,56
 199 1227 199 1227 254.5 1293.5 c 128,-1,57
 310 1360 310 1360 381.5 1394.5 c 128,-1,58
 453 1429 453 1429 533 1429 c 0,59,60
 642 1429 642 1429 716 1383 c 128,-1,61
 790 1337 790 1337 838.5 1263 c 128,-1,62
 887 1189 887 1189 911.5 1093.5 c 128,-1,63
 936 998 936 998 941 901 c 1,64,-1
 941 900 l 1,65,-1
 1081 900 l 1,66,-1
 1081 670 l 1,67,-1
 941 670 l 1,36,-1
EndSplineSet
EndChar

StartChar: uniE024
Encoding: 57380 57380 37
Width: 996
Flags: W
LayerCount: 2
Fore
SplineSet
857 900 m 1,0,1
 850 951 850 951 832.5 1008.5 c 128,-1,2
 815 1066 815 1066 778 1113 c 128,-1,3
 741 1160 741 1160 684.5 1192 c 128,-1,4
 628 1224 628 1224 548 1224 c 0,5,6
 494 1224 494 1224 442 1203 c 128,-1,7
 390 1182 390 1182 345 1141.5 c 128,-1,8
 300 1101 300 1101 268.5 1041.5 c 128,-1,9
 237 982 237 982 223 900 c 1,10,-1
 435 900 l 2,11,12
 487 900 487 900 514 869 c 128,-1,13
 541 838 541 838 545 786 c 1,14,15
 548 838 548 838 575 869 c 128,-1,16
 602 900 602 900 655 900 c 2,17,-1
 857 900 l 1,0,1
464 670 m 1,18,-1
 219 670 l 1,19,20
 219 530 219 530 243.5 462.5 c 128,-1,21
 268 395 268 395 345 395 c 0,22,23
 383 395 383 395 406.5 410 c 128,-1,24
 430 425 430 425 441.5 459.5 c 128,-1,25
 453 494 453 494 458.5 544.5 c 128,-1,26
 464 595 464 595 464 670 c 1,18,-1
873 670 m 1,27,-1
 628 670 l 1,28,29
 628 595 628 595 631.5 544.5 c 128,-1,30
 635 494 635 494 647 459.5 c 128,-1,31
 659 425 659 425 682.5 410 c 128,-1,32
 706 395 706 395 743 395 c 0,33,34
 821 395 821 395 847 462.5 c 128,-1,35
 873 530 873 530 873 670 c 1,27,-1
956 670 m 1,36,-1
 956 666 l 2,37,38
 956 560 956 560 944 476.5 c 128,-1,39
 932 393 932 393 906 335 c 128,-1,40
 880 277 880 277 841.5 246.5 c 128,-1,41
 803 216 803 216 743 216 c 0,42,43
 649 216 649 216 598.5 286.5 c 128,-1,44
 548 357 548 357 545 499 c 1,45,46
 541 357 541 357 490.5 286.5 c 128,-1,47
 440 216 440 216 345 216 c 0,48,49
 287 216 287 216 246.5 246.5 c 128,-1,50
 206 277 206 277 181.5 335 c 128,-1,51
 157 393 157 393 146.5 476.5 c 128,-1,52
 136 560 136 560 136 666 c 2,53,-1
 136 670 l 1,54,-1
 0 670 l 5,55,-1
 0 900 l 1,56,-1
 136 900 l 1,57,-1
 136 901 l 1,58,59
 143 1029 143 1029 178.5 1128 c 128,-1,60
 214 1227 214 1227 269.5 1293.5 c 128,-1,61
 325 1360 325 1360 396.5 1394.5 c 128,-1,62
 468 1429 468 1429 548 1429 c 0,63,64
 657 1429 657 1429 731 1383 c 128,-1,65
 805 1337 805 1337 853.5 1263 c 128,-1,66
 902 1189 902 1189 926.5 1093.5 c 128,-1,67
 951 998 951 998 956 901 c 1,68,-1
 956 900 l 1,69,-1
 1096 900 l 1,70,-1
 1096 670 l 1,71,-1
 956 670 l 1,36,-1
EndSplineSet
EndChar

StartChar: uniE025
Encoding: 57381 57381 38
Width: 1089
Flags: W
LayerCount: 2
Fore
SplineSet
872 900 m 5,0,1
 865 951 865 951 847.5 1008.5 c 132,-1,2
 830 1066 830 1066 793 1113 c 132,-1,3
 756 1160 756 1160 699.5 1192 c 132,-1,4
 643 1224 643 1224 563 1224 c 4,5,6
 509 1224 509 1224 457 1203 c 132,-1,7
 405 1182 405 1182 360 1141.5 c 132,-1,8
 315 1101 315 1101 283.5 1041.5 c 132,-1,9
 252 982 252 982 238 900 c 5,10,-1
 450 900 l 6,11,12
 502 900 502 900 529 869 c 132,-1,13
 556 838 556 838 560 786 c 5,14,15
 563 838 563 838 590 869 c 132,-1,16
 617 900 617 900 670 900 c 6,17,-1
 872 900 l 5,0,1
888 670 m 1,18,-1
 643 670 l 1,19,20
 643 595 643 595 646.5 544.5 c 128,-1,21
 650 494 650 494 662 459.5 c 128,-1,22
 674 425 674 425 697.5 410 c 128,-1,23
 721 395 721 395 758 395 c 0,24,25
 836 395 836 395 862 462.5 c 128,-1,26
 888 530 888 530 888 670 c 1,18,-1
479 670 m 1,27,-1
 234 670 l 1,28,29
 234 530 234 530 258.5 462.5 c 128,-1,30
 283 395 283 395 360 395 c 0,31,32
 398 395 398 395 421.5 410 c 128,-1,33
 445 425 445 425 456.5 459.5 c 128,-1,34
 468 494 468 494 473.5 544.5 c 128,-1,35
 479 595 479 595 479 670 c 1,27,-1
151 670 m 9,36,-1
 0 670 l 25,37,-1
 0 900 l 25,38,-1
 151 900 l 17,39,-1
 151 901 l 1,40,41
 158 1029 158 1029 193.5 1128 c 128,-1,42
 229 1227 229 1227 284.5 1293.5 c 128,-1,43
 340 1360 340 1360 411.5 1394.5 c 128,-1,44
 483 1429 483 1429 563 1429 c 0,45,46
 672 1429 672 1429 746 1383 c 128,-1,47
 820 1337 820 1337 868.5 1263 c 128,-1,48
 917 1189 917 1189 941.5 1093.5 c 128,-1,49
 966 998 966 998 971 901 c 1,50,-1
 971 666 l 2,51,52
 971 560 971 560 959 476.5 c 128,-1,53
 947 393 947 393 921 335 c 128,-1,54
 895 277 895 277 856.5 246.5 c 128,-1,55
 818 216 818 216 758 216 c 0,56,57
 664 216 664 216 613.5 286.5 c 128,-1,58
 563 357 563 357 560 499 c 1,59,60
 556 357 556 357 505.5 286.5 c 128,-1,61
 455 216 455 216 360 216 c 0,62,63
 302 216 302 216 261.5 246.5 c 128,-1,64
 221 277 221 277 196.5 335 c 128,-1,65
 172 393 172 393 161.5 476.5 c 128,-1,66
 151 560 151 560 151 666 c 2,67,-1
 151 670 l 9,36,-1
EndSplineSet
EndChar

StartChar: uniE027
Encoding: 57383 57383 39
Width: 1674
Flags: W
LayerCount: 2
Fore
SplineSet
918 670 m 1,0,1
 916 637 916 637 911 581.5 c 128,-1,2
 906 526 906 526 899.5 467.5 c 128,-1,3
 893 409 893 409 884.5 355 c 128,-1,4
 876 301 876 301 866 271 c 1,5,-1
 822 256 l 1,6,7
 802 303 802 303 785 371 c 128,-1,8
 768 439 768 439 754.5 512.5 c 128,-1,9
 741 586 741 586 733 656.5 c 128,-1,10
 725 727 725 727 725 781 c 0,11,12
 725 893 725 893 702 976.5 c 128,-1,13
 679 1060 679 1060 644 1114 c 128,-1,14
 609 1168 609 1168 565 1194 c 128,-1,15
 521 1220 521 1220 479 1220 c 0,16,17
 272 1220 272 1220 213 900 c 1,18,-1
 516 900 l 2,19,20
 623 900 623 900 623 790 c 2,21,-1
 623 579 l 2,22,23
 623 494 623 494 608 433 c 128,-1,24
 593 372 593 372 563 330 c 128,-1,25
 533 288 533 288 487.5 266 c 128,-1,26
 442 244 442 244 381 237 c 0,27,28
 289 226 289 226 239 204.5 c 128,-1,29
 189 183 189 183 163 170 c 1,30,31
 160 187 160 187 158.5 208.5 c 128,-1,32
 157 230 157 230 157 240 c 0,33,34
 157 285 157 285 166 317.5 c 128,-1,35
 175 350 175 350 201.5 375 c 128,-1,36
 228 400 228 400 275.5 415 c 128,-1,37
 323 430 323 430 397 439 c 0,38,39
 429 442 429 442 454.5 451 c 128,-1,40
 480 460 480 460 497.5 477.5 c 128,-1,41
 515 495 515 495 523.5 527 c 128,-1,42
 532 559 532 559 532 608 c 2,43,-1
 532 670 l 1,44,-1
 127 670 l 1,45,-1
 127 900 l 1,46,47
 145 1155 145 1155 232.5 1290 c 128,-1,48
 320 1425 320 1425 479 1425 c 0,49,50
 556 1425 556 1425 616 1387.5 c 128,-1,51
 676 1350 676 1350 718.5 1281 c 128,-1,52
 761 1212 761 1212 787.5 1114.5 c 128,-1,53
 814 1017 814 1017 824 900 c 1,54,-1
 1295 900 l 2,55,56
 1422 900 1422 900 1485.5 785.5 c 128,-1,57
 1549 671 1549 671 1549 438 c 2,58,-1
 1549 22 l 2,59,60
 1549 -65 1549 -65 1533 -129 c 128,-1,61
 1517 -193 1517 -193 1486.5 -240.5 c 128,-1,62
 1456 -288 1456 -288 1410 -322 c 128,-1,63
 1364 -356 1364 -356 1306 -382 c 0,64,65
 1271 -397 1271 -397 1251.5 -409 c 128,-1,66
 1232 -421 1232 -421 1217.5 -434.5 c 128,-1,67
 1203 -448 1203 -448 1192.5 -466 c 128,-1,68
 1182 -484 1182 -484 1169 -513 c 1,69,-1
 1146 -513 l 1,70,-1
 1212 -226 l 1,71,72
 1226 -222 1226 -222 1239.5 -218 c 128,-1,73
 1253 -214 1253 -214 1269 -209 c 128,-1,74
 1285 -204 1285 -204 1302.5 -194.5 c 128,-1,75
 1320 -185 1320 -185 1346 -170 c 0,76,77
 1361 -161 1361 -161 1380.5 -148 c 128,-1,78
 1400 -135 1400 -135 1416.5 -112.5 c 128,-1,79
 1433 -90 1433 -90 1444.5 -57 c 128,-1,80
 1456 -24 1456 -24 1456 22 c 2,81,-1
 1456 438 l 2,82,83
 1456 552 1456 552 1413.5 611 c 128,-1,84
 1371 670 1371 670 1295 670 c 2,85,-1
 918 670 l 1,0,1
EndSplineSet
EndChar

StartChar: uniE028
Encoding: 57384 57384 40
Width: 1764
Flags: W
LayerCount: 2
Fore
SplineSet
924 670 m 1,0,1
 947 571 947 571 995 483 c 128,-1,2
 1043 395 1043 395 1106 317 c 1,3,-1
 1072 110 l 1,4,-1
 1041 110 l 1,5,6
 937 258 937 258 879 430 c 128,-1,7
 821 602 821 602 791 786 c 0,8,9
 770 898 770 898 739.5 980.5 c 128,-1,10
 709 1063 709 1063 672.5 1116.5 c 128,-1,11
 636 1170 636 1170 594.5 1196 c 128,-1,12
 553 1222 553 1222 508 1222 c 0,13,14
 304 1222 304 1222 245 900 c 1,15,-1
 546 900 l 2,16,17
 652 900 652 900 652 791 c 2,18,-1
 652 584 l 2,19,20
 652 499 652 499 636.5 437.5 c 128,-1,21
 621 376 621 376 592 335 c 128,-1,22
 563 294 563 294 518 271.5 c 128,-1,23
 473 249 473 249 412 240 c 0,24,25
 320 230 320 230 269.5 209 c 128,-1,26
 219 188 219 188 196 173 c 1,27,28
 193 193 193 193 192 214 c 128,-1,29
 191 235 191 235 191 245 c 0,30,31
 191 290 191 290 199 322.5 c 128,-1,32
 207 355 207 355 234 380 c 128,-1,33
 261 405 261 405 307 420.5 c 128,-1,34
 353 436 353 436 428 445 c 0,35,36
 459 447 459 447 483.5 455 c 128,-1,37
 508 463 508 463 526 481 c 128,-1,38
 544 499 544 499 552 529.5 c 128,-1,39
 560 560 560 560 560 612 c 2,40,-1
 560 670 l 1,41,-1
 160 670 l 1,42,-1
 160 900 l 1,43,44
 176 1153 176 1153 263.5 1289 c 128,-1,45
 351 1425 351 1425 508 1425 c 0,46,47
 587 1425 587 1425 645.5 1381 c 128,-1,48
 704 1337 704 1337 747.5 1264 c 128,-1,49
 791 1191 791 1191 819.5 1095.5 c 128,-1,50
 848 1000 848 1000 862 900 c 1,51,-1
 1398 900 l 1,52,53
 1491 893 1491 893 1544.5 822.5 c 128,-1,54
 1598 752 1598 752 1598 632 c 2,55,-1
 1598 511 l 2,56,57
 1598 439 1598 439 1573 395.5 c 128,-1,58
 1548 352 1548 352 1511 352 c 1,59,-1
 1511 375 l 2,60,61
 1511 511 1511 511 1460 588.5 c 128,-1,62
 1409 666 1409 666 1310 670 c 1,63,-1
 924 670 l 1,0,1
EndSplineSet
EndChar

StartChar: uniE029
Encoding: 57385 57385 41
Width: 1132
Flags: W
LayerCount: 2
Fore
SplineSet
875 900 m 1,0,1
 868 951 868 951 850.5 1008.5 c 128,-1,2
 833 1066 833 1066 796 1113 c 128,-1,3
 759 1160 759 1160 702.5 1192 c 128,-1,4
 646 1224 646 1224 566 1224 c 0,5,6
 512 1224 512 1224 460 1203 c 128,-1,7
 408 1182 408 1182 363 1141.5 c 128,-1,8
 318 1101 318 1101 286.5 1041.5 c 128,-1,9
 255 982 255 982 241 900 c 1,10,-1
 453 900 l 2,11,12
 505 900 505 900 532 869 c 128,-1,13
 559 838 559 838 563 786 c 1,14,15
 566 838 566 838 593 869 c 128,-1,16
 620 900 620 900 673 900 c 2,17,-1
 875 900 l 1,0,1
891 670 m 1,18,-1
 646 670 l 1,19,20
 646 595 646 595 649.5 544.5 c 128,-1,21
 653 494 653 494 665 459.5 c 128,-1,22
 677 425 677 425 700.5 410 c 128,-1,23
 724 395 724 395 761 395 c 0,24,25
 839 395 839 395 865 462.5 c 128,-1,26
 891 530 891 530 891 670 c 1,18,-1
483 670 m 1,27,-1
 154 670 l 1,28,-1
 154 901 l 1,29,30
 161 1029 161 1029 196.5 1128 c 128,-1,31
 232 1227 232 1227 287.5 1293.5 c 128,-1,32
 343 1360 343 1360 414.5 1394.5 c 128,-1,33
 486 1429 486 1429 566 1429 c 0,34,35
 675 1429 675 1429 749 1383 c 128,-1,36
 823 1337 823 1337 871.5 1263 c 128,-1,37
 920 1189 920 1189 944.5 1093.5 c 128,-1,38
 969 998 969 998 974 901 c 1,39,-1
 974 666 l 2,40,41
 974 560 974 560 962 476.5 c 128,-1,42
 950 393 950 393 924 335 c 128,-1,43
 898 277 898 277 859.5 246.5 c 128,-1,44
 821 216 821 216 761 216 c 0,45,46
 667 216 667 216 617 287 c 0,47,48
 568 354 568 354 563 489 c 1,49,50
 557 386 557 386 509 324 c 0,51,52
 456 256 456 256 352 242 c 0,53,54
 270 232 270 232 225.5 211.5 c 128,-1,55
 181 191 181 191 158 176 c 1,56,57
 156 193 156 193 155 215.5 c 128,-1,58
 154 238 154 238 154 247 c 0,59,60
 154 292 154 292 161.5 324.5 c 128,-1,61
 169 357 169 357 193 382 c 128,-1,62
 217 407 217 407 257.5 421.5 c 128,-1,63
 298 436 298 436 364 445 c 0,64,65
 393 449 393 449 415 457 c 128,-1,66
 437 465 437 465 453 483 c 128,-1,67
 469 501 469 501 476 531.5 c 128,-1,68
 483 562 483 562 483 612 c 2,69,-1
 483 670 l 1,27,-1
EndSplineSet
EndChar

StartChar: uniE02A
Encoding: 57386 57386 42
Width: 1585
Flags: W
LayerCount: 2
Fore
SplineSet
906 670 m 5,0,-1
 661 670 l 5,1,2
 661 595 661 595 664.5 544.5 c 132,-1,3
 668 494 668 494 680 459.5 c 132,-1,4
 692 425 692 425 715.5 410 c 132,-1,5
 739 395 739 395 776 395 c 4,6,7
 854 395 854 395 880 462.5 c 132,-1,8
 906 530 906 530 906 670 c 5,0,-1
468 900 m 6,9,10
 520 900 520 900 547 869 c 132,-1,11
 574 838 574 838 578 786 c 5,12,13
 581 838 581 838 608 869 c 132,-1,14
 635 900 635 900 688 900 c 6,15,-1
 890 900 l 5,16,17
 883 951 883 951 865.5 1008.5 c 132,-1,18
 848 1066 848 1066 811 1113 c 132,-1,19
 774 1160 774 1160 717.5 1192 c 132,-1,20
 661 1224 661 1224 581 1224 c 4,21,22
 527 1224 527 1224 475 1203 c 132,-1,23
 423 1182 423 1182 378 1141.5 c 132,-1,24
 333 1101 333 1101 301.5 1041.5 c 132,-1,25
 270 982 270 982 256 900 c 5,26,-1
 468 900 l 6,9,10
169 900 m 21,27,-1
 169 901 l 5,28,29
 176 1029 176 1029 211.5 1128 c 132,-1,30
 247 1227 247 1227 302.5 1293.5 c 132,-1,31
 358 1360 358 1360 429.5 1394.5 c 132,-1,32
 501 1429 501 1429 581 1429 c 4,33,34
 690 1429 690 1429 764 1383 c 132,-1,35
 838 1337 838 1337 886.5 1263 c 132,-1,36
 935 1189 935 1189 959.5 1093.5 c 132,-1,37
 984 998 984 998 989 901 c 5,38,-1
 989 900 l 5,39,-1
 1225 900 l 5,40,41
 1320 894 1320 894 1371.5 824 c 132,-1,42
 1423 754 1423 754 1423 636 c 6,43,-1
 1423 517 l 6,44,45
 1423 445 1423 445 1398.5 400.5 c 132,-1,46
 1374 356 1374 356 1336 356 c 5,47,-1
 1336 379 l 6,48,49
 1336 517 1336 517 1286 591.5 c 132,-1,50
 1236 666 1236 666 1136 670 c 5,51,-1
 989 670 l 5,52,-1
 989 666 l 6,53,54
 989 560 989 560 977 476.5 c 132,-1,55
 965 393 965 393 939 335 c 132,-1,56
 913 277 913 277 874.5 246.5 c 132,-1,57
 836 216 836 216 776 216 c 4,58,59
 684 216 684 216 632 287 c 4,60,61
 583 354 583 354 578 489 c 5,62,63
 572 386 572 386 524 324 c 4,64,65
 470 255 470 255 367 242 c 4,66,67
 285 232 285 232 240.5 211.5 c 132,-1,68
 196 191 196 191 173 176 c 5,69,70
 171 193 171 193 170 215.5 c 132,-1,71
 169 238 169 238 169 247 c 4,72,73
 169 292 169 292 176.5 324.5 c 132,-1,74
 184 357 184 357 208 382 c 132,-1,75
 232 407 232 407 272.5 421.5 c 132,-1,76
 313 436 313 436 379 445 c 4,77,78
 408 449 408 449 430 457 c 132,-1,79
 452 465 452 465 468 483 c 132,-1,80
 484 501 484 501 491 531.5 c 132,-1,81
 498 562 498 562 498 612 c 6,82,-1
 498 670 l 5,83,-1
 168 670 l 13,84,-1
 169 900 l 21,27,-1
EndSplineSet
EndChar

StartChar: uniE02B
Encoding: 57387 57387 43
Width: 1123
Flags: W
LayerCount: 2
Fore
SplineSet
1223 900 m 1,0,-1
 1223 670 l 1,1,-1
 953 670 l 1,2,3
 951 637 951 637 946 581.5 c 128,-1,4
 941 526 941 526 934.5 467.5 c 128,-1,5
 928 409 928 409 919.5 355 c 128,-1,6
 911 301 911 301 901 271 c 1,7,-1
 857 256 l 1,8,9
 837 303 837 303 820 371 c 128,-1,10
 803 439 803 439 789.5 512.5 c 128,-1,11
 776 586 776 586 768 656.5 c 128,-1,12
 760 727 760 727 760 781 c 0,13,14
 760 893 760 893 737 976.5 c 128,-1,15
 714 1060 714 1060 679 1114 c 128,-1,16
 644 1168 644 1168 600 1194 c 128,-1,17
 556 1220 556 1220 514 1220 c 0,18,19
 307 1220 307 1220 248 900 c 1,20,-1
 551 900 l 2,21,22
 658 900 658 900 658 790 c 2,23,-1
 658 579 l 2,24,25
 658 494 658 494 643 433 c 128,-1,26
 628 372 628 372 598 330 c 128,-1,27
 568 288 568 288 522.5 266 c 128,-1,28
 477 244 477 244 416 237 c 0,29,30
 324 226 324 226 274 204.5 c 128,-1,31
 224 183 224 183 198 170 c 1,32,33
 195 187 195 187 193.5 208.5 c 128,-1,34
 192 230 192 230 192 240 c 0,35,36
 192 285 192 285 201 317.5 c 128,-1,37
 210 350 210 350 236.5 375 c 128,-1,38
 263 400 263 400 310.5 415 c 128,-1,39
 358 430 358 430 432 439 c 0,40,41
 464 442 464 442 489.5 451 c 128,-1,42
 515 460 515 460 532.5 477.5 c 128,-1,43
 550 495 550 495 558.5 527 c 128,-1,44
 567 559 567 559 567 608 c 2,45,-1
 567 670 l 1,46,-1
 162 670 l 1,47,-1
 162 900 l 1,48,49
 180 1155 180 1155 267.5 1290 c 128,-1,50
 355 1425 355 1425 514 1425 c 0,51,52
 591 1425 591 1425 651 1387.5 c 128,-1,53
 711 1350 711 1350 753.5 1281 c 128,-1,54
 796 1212 796 1212 822.5 1114.5 c 128,-1,55
 849 1017 849 1017 859 900 c 1,56,-1
 1223 900 l 1,0,-1
EndSplineSet
EndChar

StartChar: uniE02C
Encoding: 57388 57388 44
Width: 1120
Flags: W
LayerCount: 2
Fore
SplineSet
160 900 m 1,0,1
 178 1155 178 1155 265.5 1290 c 128,-1,2
 353 1425 353 1425 512 1425 c 0,3,4
 589 1425 589 1425 649 1387.5 c 128,-1,5
 709 1350 709 1350 751.5 1281 c 128,-1,6
 794 1212 794 1212 820.5 1114.5 c 128,-1,7
 847 1017 847 1017 857 900 c 1,8,-1
 1220 900 l 1,9,-1
 1220 670 l 1,10,-1
 951 670 l 1,11,12
 949 637 949 637 944 581.5 c 128,-1,13
 939 526 939 526 932.5 467.5 c 128,-1,14
 926 409 926 409 917.5 355 c 128,-1,15
 909 301 909 301 899 271 c 1,16,-1
 855 256 l 1,17,18
 835 303 835 303 818 371 c 128,-1,19
 801 439 801 439 787.5 512.5 c 128,-1,20
 774 586 774 586 766 656.5 c 128,-1,21
 758 727 758 727 758 781 c 0,22,23
 758 893 758 893 735 976.5 c 128,-1,24
 712 1060 712 1060 677 1114 c 128,-1,25
 642 1168 642 1168 598 1194 c 128,-1,26
 554 1220 554 1220 512 1220 c 0,27,28
 305 1220 305 1220 246 900 c 1,29,-1
 549 900 l 2,30,31
 656 900 656 900 656 790 c 2,32,-1
 656 579 l 2,33,34
 656 494 656 494 641 433 c 128,-1,35
 626 372 626 372 596 330 c 128,-1,36
 566 288 566 288 520.5 266 c 128,-1,37
 475 244 475 244 414 237 c 0,38,39
 322 226 322 226 272 204.5 c 128,-1,40
 222 183 222 183 196 170 c 1,41,42
 193 187 193 187 191.5 208.5 c 128,-1,43
 190 230 190 230 190 240 c 0,44,45
 190 285 190 285 199 317.5 c 128,-1,46
 208 350 208 350 234.5 375 c 128,-1,47
 261 400 261 400 308.5 415 c 0,48,49
 365 433 365 433 430 439 c 0,50,51
 462 442 462 442 487.5 451 c 128,-1,52
 513 460 513 460 530.5 477.5 c 128,-1,53
 548 495 548 495 556.5 527 c 128,-1,54
 565 559 565 559 565 608 c 2,55,-1
 565 670 l 1,56,-1
 0 670 l 1,57,-1
 0 900 l 1,58,-1
 160 900 l 1,0,1
EndSplineSet
EndChar

StartChar: uniE02D
Encoding: 57389 57389 45
Width: 1737
Flags: W
LayerCount: 2
Fore
SplineSet
166 900 m 1,0,1
 184 1155 184 1155 271.5 1290 c 128,-1,2
 359 1425 359 1425 518 1425 c 0,3,4
 595 1425 595 1425 655 1387.5 c 128,-1,5
 715 1350 715 1350 757.5 1281 c 128,-1,6
 800 1212 800 1212 826.5 1114.5 c 128,-1,7
 853 1017 853 1017 863 900 c 1,8,-1
 1334 900 l 2,9,10
 1461 900 1461 900 1524.5 785.5 c 128,-1,11
 1588 671 1588 671 1588 438 c 2,12,-1
 1588 22 l 2,13,14
 1588 -65 1588 -65 1572 -129 c 128,-1,15
 1556 -193 1556 -193 1525.5 -240.5 c 128,-1,16
 1495 -288 1495 -288 1449 -322 c 128,-1,17
 1403 -356 1403 -356 1345 -382 c 0,18,19
 1310 -397 1310 -397 1290.5 -409 c 128,-1,20
 1271 -421 1271 -421 1256.5 -434.5 c 128,-1,21
 1242 -448 1242 -448 1231.5 -466 c 128,-1,22
 1221 -484 1221 -484 1208 -513 c 1,23,-1
 1185 -513 l 1,24,-1
 1251 -226 l 1,25,26
 1265 -222 1265 -222 1278.5 -218 c 128,-1,27
 1292 -214 1292 -214 1308 -209 c 128,-1,28
 1324 -204 1324 -204 1341.5 -194.5 c 128,-1,29
 1359 -185 1359 -185 1385 -170 c 0,30,31
 1400 -161 1400 -161 1419.5 -148 c 128,-1,32
 1439 -135 1439 -135 1455.5 -112.5 c 128,-1,33
 1472 -90 1472 -90 1483.5 -57 c 128,-1,34
 1495 -24 1495 -24 1495 22 c 2,35,-1
 1495 438 l 2,36,37
 1495 552 1495 552 1452.5 611 c 128,-1,38
 1410 670 1410 670 1334 670 c 2,39,-1
 957 670 l 1,40,41
 955 637 955 637 950 581.5 c 128,-1,42
 945 526 945 526 938.5 467.5 c 128,-1,43
 932 409 932 409 923.5 355 c 128,-1,44
 915 301 915 301 905 271 c 1,45,-1
 861 256 l 1,46,47
 841 303 841 303 824 371 c 128,-1,48
 807 439 807 439 793.5 512.5 c 128,-1,49
 780 586 780 586 772 656.5 c 128,-1,50
 764 727 764 727 764 781 c 0,51,52
 764 893 764 893 741 976.5 c 128,-1,53
 718 1060 718 1060 683 1114 c 128,-1,54
 648 1168 648 1168 604 1194 c 128,-1,55
 560 1220 560 1220 518 1220 c 0,56,57
 311 1220 311 1220 252 900 c 1,58,-1
 555 900 l 2,59,60
 662 900 662 900 662 790 c 2,61,-1
 662 579 l 2,62,63
 662 494 662 494 647 433 c 128,-1,64
 632 372 632 372 602 330 c 128,-1,65
 572 288 572 288 526.5 266 c 128,-1,66
 481 244 481 244 420 237 c 0,67,68
 328 226 328 226 278 204.5 c 128,-1,69
 228 183 228 183 202 170 c 1,70,71
 199 187 199 187 197.5 208.5 c 128,-1,72
 196 230 196 230 196 240 c 0,73,74
 196 285 196 285 205 317.5 c 128,-1,75
 214 350 214 350 240.5 375 c 128,-1,76
 267 400 267 400 314.5 415 c 0,77,78
 371 433 371 433 436 439 c 0,79,80
 468 442 468 442 493.5 451 c 128,-1,81
 519 460 519 460 536.5 477.5 c 128,-1,82
 554 495 554 495 562.5 527 c 128,-1,83
 571 559 571 559 571 608 c 2,84,-1
 571 670 l 1,85,-1
 0 670 l 5,86,-1
 0 900 l 1,87,-1
 166 900 l 1,0,1
EndSplineSet
EndChar

StartChar: uniE02E
Encoding: 57390 57390 46
Width: 1223
Flags: W
LayerCount: 2
Fore
SplineSet
1323 900 m 1,0,-1
 1323 670 l 1,1,-1
 927 670 l 1,2,3
 950 571 950 571 998 483 c 128,-1,4
 1046 395 1046 395 1109 317 c 1,5,-1
 1075 110 l 1,6,-1
 1044 110 l 1,7,8
 940 258 940 258 882 430 c 128,-1,9
 824 602 824 602 794 786 c 0,10,11
 773 898 773 898 742.5 980.5 c 128,-1,12
 712 1063 712 1063 675.5 1116.5 c 128,-1,13
 639 1170 639 1170 597.5 1196 c 128,-1,14
 556 1222 556 1222 511 1222 c 0,15,16
 307 1222 307 1222 248 900 c 1,17,-1
 549 900 l 2,18,19
 655 900 655 900 655 791 c 2,20,-1
 655 584 l 2,21,22
 655 499 655 499 639.5 437.5 c 128,-1,23
 624 376 624 376 595 335 c 128,-1,24
 566 294 566 294 521 271.5 c 128,-1,25
 476 249 476 249 415 240 c 0,26,27
 323 230 323 230 272.5 209 c 128,-1,28
 222 188 222 188 199 173 c 1,29,30
 196 193 196 193 195 214 c 128,-1,31
 194 235 194 235 194 245 c 0,32,33
 194 290 194 290 202 322.5 c 128,-1,34
 210 355 210 355 237 380 c 128,-1,35
 264 405 264 405 310 420.5 c 128,-1,36
 356 436 356 436 431 445 c 0,37,38
 462 447 462 447 486.5 455 c 128,-1,39
 511 463 511 463 529 481 c 128,-1,40
 547 499 547 499 555 529.5 c 128,-1,41
 563 560 563 560 563 612 c 2,42,-1
 563 670 l 1,43,-1
 163 670 l 1,44,-1
 163 900 l 1,45,46
 179 1153 179 1153 266.5 1289 c 128,-1,47
 354 1425 354 1425 511 1425 c 0,48,49
 590 1425 590 1425 648.5 1381 c 128,-1,50
 707 1337 707 1337 750.5 1264 c 128,-1,51
 794 1191 794 1191 822.5 1095.5 c 128,-1,52
 851 1000 851 1000 865 900 c 1,53,-1
 1323 900 l 1,0,-1
EndSplineSet
EndChar

StartChar: uniE02F
Encoding: 57391 57391 47
Width: 1220
Flags: W
LayerCount: 2
Fore
SplineSet
161 900 m 1,0,1
 177 1153 177 1153 264.5 1289 c 128,-1,2
 352 1425 352 1425 509 1425 c 0,3,4
 588 1425 588 1425 646.5 1381 c 128,-1,5
 705 1337 705 1337 748.5 1264 c 128,-1,6
 792 1191 792 1191 820.5 1095.5 c 128,-1,7
 849 1000 849 1000 863 900 c 1,8,-1
 1320 900 l 1,9,-1
 1320 670 l 1,10,-1
 925 670 l 1,11,12
 948 571 948 571 996 483 c 128,-1,13
 1044 395 1044 395 1107 317 c 1,14,-1
 1073 110 l 1,15,-1
 1042 110 l 1,16,17
 938 258 938 258 880 430 c 0,18,19
 825 592 825 592 792 786 c 0,20,21
 774 889 774 889 740.5 980.5 c 0,22,23
 710 1063 710 1063 673.5 1116.5 c 128,-1,24
 637 1170 637 1170 595.5 1196 c 128,-1,25
 554 1222 554 1222 509 1222 c 0,26,27
 305 1222 305 1222 246 900 c 1,28,-1
 547 900 l 2,29,30
 653 900 653 900 653 791 c 2,31,-1
 653 584 l 2,32,33
 653 499 653 499 637.5 437.5 c 128,-1,34
 622 376 622 376 593 335 c 128,-1,35
 564 294 564 294 519 271.5 c 0,36,37
 470 247 470 247 413 240 c 0,38,39
 316 228 316 228 270.5 209 c 0,40,41
 220 188 220 188 197 173 c 1,42,43
 194 193 194 193 193 214 c 128,-1,44
 192 235 192 235 192 245 c 0,45,46
 192 290 192 290 200 322.5 c 128,-1,47
 208 355 208 355 235 380 c 128,-1,48
 262 405 262 405 308 420.5 c 0,49,50
 359 438 359 438 429 445 c 0,51,52
 465 449 465 449 484.5 455 c 0,53,54
 509 463 509 463 527 481 c 128,-1,55
 545 499 545 499 553 529.5 c 128,-1,56
 561 560 561 560 561 612 c 2,57,-1
 561 670 l 1,58,-1
 0 670 l 5,59,-1
 0 900 l 1,60,-1
 161 900 l 1,0,1
EndSplineSet
EndChar

StartChar: uniE030
Encoding: 57392 57392 48
Width: 1632
Flags: W
LayerCount: 2
Fore
SplineSet
937 670 m 1,0,1
 960 571 960 571 1008 483 c 128,-1,2
 1056 395 1056 395 1119 317 c 1,3,-1
 1085 110 l 1,4,-1
 1054 110 l 1,5,6
 950 258 950 258 892 430 c 0,7,8
 837 592 837 592 804 786 c 0,9,10
 786 889 786 889 752.5 980.5 c 0,11,12
 722 1063 722 1063 685.5 1116.5 c 128,-1,13
 649 1170 649 1170 607.5 1196 c 128,-1,14
 566 1222 566 1222 521 1222 c 0,15,16
 317 1222 317 1222 258 900 c 1,17,-1
 559 900 l 2,18,19
 665 900 665 900 665 791 c 2,20,-1
 665 584 l 2,21,22
 665 499 665 499 649.5 437.5 c 128,-1,23
 634 376 634 376 605 335 c 128,-1,24
 576 294 576 294 531 271.5 c 0,25,26
 482 247 482 247 425 240 c 0,27,28
 328 228 328 228 282.5 209 c 0,29,30
 232 188 232 188 209 173 c 1,31,32
 206 193 206 193 205 214 c 128,-1,33
 204 235 204 235 204 245 c 0,34,35
 204 290 204 290 212 322.5 c 128,-1,36
 220 355 220 355 247 380 c 128,-1,37
 274 405 274 405 320 420.5 c 0,38,39
 371 438 371 438 441 445 c 0,40,41
 477 449 477 449 496.5 455 c 0,42,43
 521 463 521 463 539 481 c 128,-1,44
 557 499 557 499 565 529.5 c 128,-1,45
 573 560 573 560 573 612 c 2,46,-1
 573 670 l 1,47,-1
 0 670 l 5,48,-1
 0 900 l 1,49,-1
 173 900 l 1,50,51
 189 1153 189 1153 276.5 1289 c 128,-1,52
 364 1425 364 1425 521 1425 c 0,53,54
 600 1425 600 1425 658.5 1381 c 128,-1,55
 717 1337 717 1337 760.5 1264 c 128,-1,56
 804 1191 804 1191 832.5 1095.5 c 128,-1,57
 861 1000 861 1000 875 900 c 1,58,-1
 1411 900 l 1,59,60
 1504 893 1504 893 1557.5 822.5 c 128,-1,61
 1611 752 1611 752 1611 632 c 2,62,-1
 1611 511 l 2,63,64
 1611 439 1611 439 1586 395.5 c 128,-1,65
 1561 352 1561 352 1524 352 c 1,66,-1
 1524 375 l 2,67,68
 1524 511 1524 511 1473 588.5 c 128,-1,69
 1422 666 1422 666 1323 670 c 1,70,-1
 937 670 l 1,0,1
EndSplineSet
EndChar

StartChar: uniE031
Encoding: 57393 57393 49
Width: 996
Flags: W
LayerCount: 2
Fore
SplineSet
857 900 m 1,0,1
 850 951 850 951 832.5 1008.5 c 128,-1,2
 815 1066 815 1066 778 1113 c 128,-1,3
 741 1160 741 1160 684.5 1192 c 128,-1,4
 628 1224 628 1224 548 1224 c 0,5,6
 494 1224 494 1224 442 1203 c 128,-1,7
 390 1182 390 1182 345 1141.5 c 128,-1,8
 300 1101 300 1101 268.5 1041.5 c 128,-1,9
 237 982 237 982 223 900 c 1,10,-1
 435 900 l 2,11,12
 487 900 487 900 514 869 c 128,-1,13
 541 838 541 838 545 786 c 1,14,15
 548 838 548 838 575 869 c 128,-1,16
 602 900 602 900 655 900 c 2,17,-1
 857 900 l 1,0,1
873 670 m 1,18,-1
 628 670 l 1,19,20
 628 595 628 595 631.5 544.5 c 128,-1,21
 635 494 635 494 647 459.5 c 128,-1,22
 659 425 659 425 682.5 410 c 128,-1,23
 706 395 706 395 743 395 c 0,24,25
 821 395 821 395 847 462.5 c 128,-1,26
 873 530 873 530 873 670 c 1,18,-1
956 670 m 1,27,-1
 956 666 l 2,28,29
 956 560 956 560 944 476.5 c 128,-1,30
 932 393 932 393 906 335 c 128,-1,31
 880 277 880 277 841.5 246.5 c 128,-1,32
 803 216 803 216 743 216 c 0,33,34
 649 216 649 216 599 287 c 0,35,36
 550 354 550 354 545 489 c 1,37,38
 539 386 539 386 491 324 c 0,39,40
 438 256 438 256 334 242 c 0,41,42
 252 232 252 232 207.5 211.5 c 128,-1,43
 163 191 163 191 140 176 c 1,44,45
 138 193 138 193 137 215.5 c 128,-1,46
 136 238 136 238 136 247 c 0,47,48
 136 292 136 292 143.5 324.5 c 128,-1,49
 151 357 151 357 175 382 c 128,-1,50
 199 407 199 407 239.5 421.5 c 128,-1,51
 280 436 280 436 346 445 c 0,52,53
 375 449 375 449 397 457 c 128,-1,54
 419 465 419 465 435 483 c 128,-1,55
 451 501 451 501 458 531.5 c 128,-1,56
 465 562 465 562 465 612 c 2,57,-1
 465 670 l 1,58,-1
 136 670 l 1,59,-1
 136 901 l 1,60,61
 143 1029 143 1029 178.5 1128 c 128,-1,62
 214 1227 214 1227 269.5 1293.5 c 128,-1,63
 325 1360 325 1360 396.5 1394.5 c 128,-1,64
 468 1429 468 1429 548 1429 c 0,65,66
 657 1429 657 1429 731 1383 c 128,-1,67
 805 1337 805 1337 853.5 1263 c 128,-1,68
 902 1189 902 1189 926.5 1093.5 c 128,-1,69
 951 998 951 998 956 901 c 1,70,-1
 956 900 l 1,71,-1
 1096 900 l 1,72,-1
 1096 670 l 1,73,-1
 956 670 l 1,27,-1
EndSplineSet
EndChar

StartChar: uniE032
Encoding: 57394 57394 50
Width: 1030
Flags: W
LayerCount: 2
Fore
SplineSet
907 670 m 1,0,-1
 662 670 l 1,1,2
 662 595 662 595 665.5 544.5 c 128,-1,3
 669 494 669 494 681 459.5 c 128,-1,4
 693 425 693 425 716.5 410 c 128,-1,5
 740 395 740 395 777 395 c 0,6,7
 855 395 855 395 881 462.5 c 128,-1,8
 907 530 907 530 907 670 c 1,0,-1
170 900 m 1,9,-1
 170 901 l 1,10,11
 177 1029 177 1029 212.5 1128 c 128,-1,12
 248 1227 248 1227 303.5 1293.5 c 128,-1,13
 359 1360 359 1360 430.5 1394.5 c 128,-1,14
 502 1429 502 1429 582 1429 c 0,15,16
 691 1429 691 1429 765 1383 c 128,-1,17
 839 1337 839 1337 887.5 1263 c 128,-1,18
 936 1189 936 1189 960.5 1093.5 c 128,-1,19
 985 998 985 998 990 901 c 1,20,-1
 990 900 l 1,21,-1
 1130 900 l 1,22,-1
 1130 670 l 1,23,-1
 990 670 l 1,24,-1
 990 666 l 2,25,26
 990 560 990 560 978 476.5 c 128,-1,27
 966 393 966 393 940 335 c 128,-1,28
 914 277 914 277 875.5 246.5 c 128,-1,29
 837 216 837 216 777 216 c 0,30,31
 685 216 685 216 633 287 c 0,32,33
 584 354 584 354 579 489 c 1,34,35
 573 386 573 386 525 324 c 0,36,37
 471 255 471 255 368 242 c 0,38,39
 286 232 286 232 241.5 211.5 c 128,-1,40
 197 191 197 191 174 176 c 1,41,42
 172 193 172 193 171 215.5 c 128,-1,43
 170 238 170 238 170 247 c 0,44,45
 170 292 170 292 177.5 324.5 c 128,-1,46
 185 357 185 357 209 382 c 128,-1,47
 233 407 233 407 273.5 421.5 c 128,-1,48
 314 436 314 436 380 445 c 0,49,50
 409 449 409 449 431 457 c 128,-1,51
 453 465 453 465 469 483 c 128,-1,52
 485 501 485 501 492 531.5 c 128,-1,53
 499 562 499 562 499 612 c 2,54,-1
 499 670 l 1,55,-1
 0 670 l 1,56,-1
 0 900 l 1,57,-1
 170 900 l 1,9,-1
469 900 m 2,58,59
 521 900 521 900 548 869 c 128,-1,60
 575 838 575 838 579 786 c 1,61,62
 582 838 582 838 609 869 c 128,-1,63
 636 900 636 900 689 900 c 2,64,-1
 891 900 l 1,65,66
 884 951 884 951 866.5 1008.5 c 128,-1,67
 849 1066 849 1066 812 1113 c 128,-1,68
 775 1160 775 1160 718.5 1192 c 128,-1,69
 662 1224 662 1224 582 1224 c 0,70,71
 528 1224 528 1224 476 1203 c 128,-1,72
 424 1182 424 1182 379 1141.5 c 128,-1,73
 334 1101 334 1101 302.5 1041.5 c 128,-1,74
 271 982 271 982 257 900 c 1,75,-1
 469 900 l 2,58,59
EndSplineSet
EndChar

StartChar: uniE033
Encoding: 57395 57395 51
Width: 1128
Flags: W
LayerCount: 2
Fore
SplineSet
891 670 m 1,0,-1
 646 670 l 1,1,2
 646 595 646 595 649.5 544.5 c 128,-1,3
 653 494 653 494 665 459.5 c 128,-1,4
 677 425 677 425 700.5 410 c 128,-1,5
 724 395 724 395 761 395 c 0,6,7
 839 395 839 395 865 462.5 c 128,-1,8
 891 530 891 530 891 670 c 1,0,-1
154 900 m 1,9,-1
 154 901 l 1,10,11
 161 1029 161 1029 196.5 1128 c 128,-1,12
 232 1227 232 1227 287.5 1293.5 c 128,-1,13
 343 1360 343 1360 414.5 1394.5 c 128,-1,14
 486 1429 486 1429 566 1429 c 0,15,16
 675 1429 675 1429 749 1383 c 128,-1,17
 823 1337 823 1337 871.5 1263 c 128,-1,18
 920 1189 920 1189 944.5 1093.5 c 128,-1,19
 969 998 969 998 974 901 c 1,20,-1
 974 666 l 2,21,22
 974 560 974 560 962 476.5 c 128,-1,23
 950 393 950 393 924 335 c 128,-1,24
 898 277 898 277 859.5 246.5 c 128,-1,25
 821 216 821 216 761 216 c 0,26,27
 669 216 669 216 617 287 c 0,28,29
 568 354 568 354 563 489 c 1,30,31
 557 386 557 386 509 324 c 0,32,33
 455 255 455 255 352 242 c 0,34,35
 270 232 270 232 225.5 211.5 c 128,-1,36
 181 191 181 191 158 176 c 1,37,38
 156 193 156 193 155 215.5 c 128,-1,39
 154 238 154 238 154 247 c 0,40,41
 154 292 154 292 161.5 324.5 c 128,-1,42
 169 357 169 357 193 382 c 128,-1,43
 217 407 217 407 257.5 421.5 c 128,-1,44
 298 436 298 436 364 445 c 0,45,46
 393 449 393 449 415 457 c 128,-1,47
 437 465 437 465 453 483 c 128,-1,48
 469 501 469 501 476 531.5 c 128,-1,49
 483 562 483 562 483 612 c 2,50,-1
 483 670 l 1,51,-1
 0 670 l 1,52,-1
 0 900 l 5,53,-1
 154 900 l 1,9,-1
453 900 m 2,54,55
 505 900 505 900 532 869 c 128,-1,56
 559 838 559 838 563 786 c 1,57,58
 566 838 566 838 593 869 c 128,-1,59
 620 900 620 900 673 900 c 2,60,-1
 875 900 l 1,61,62
 868 951 868 951 850.5 1008.5 c 128,-1,63
 833 1066 833 1066 796 1113 c 128,-1,64
 759 1160 759 1160 702.5 1192 c 128,-1,65
 646 1224 646 1224 566 1224 c 0,66,67
 512 1224 512 1224 460 1203 c 128,-1,68
 408 1182 408 1182 363 1141.5 c 128,-1,69
 318 1101 318 1101 286.5 1041.5 c 128,-1,70
 255 982 255 982 241 900 c 1,71,-1
 453 900 l 2,54,55
EndSplineSet
EndChar

StartChar: uniE034
Encoding: 57396 57396 52
Width: 1541
Flags: W
LayerCount: 2
Fore
SplineSet
902 900 m 1,0,1
 895 951 895 951 877.5 1008.5 c 128,-1,2
 860 1066 860 1066 823 1113 c 128,-1,3
 786 1160 786 1160 729.5 1192 c 128,-1,4
 673 1224 673 1224 593 1224 c 0,5,6
 539 1224 539 1224 487 1203 c 128,-1,7
 435 1182 435 1182 390 1141.5 c 128,-1,8
 345 1101 345 1101 313.5 1041.5 c 128,-1,9
 282 982 282 982 268 900 c 1,10,-1
 480 900 l 2,11,12
 532 900 532 900 559 869 c 128,-1,13
 586 838 586 838 590 786 c 1,14,15
 593 838 593 838 620 869 c 128,-1,16
 647 900 647 900 700 900 c 2,17,-1
 902 900 l 1,0,1
918 670 m 1,18,-1
 673 670 l 1,19,20
 673 595 673 595 676.5 544.5 c 128,-1,21
 680 494 680 494 692 459.5 c 128,-1,22
 704 425 704 425 727.5 410 c 128,-1,23
 751 395 751 395 788 395 c 0,24,25
 866 395 866 395 892 462.5 c 128,-1,26
 918 530 918 530 918 670 c 1,18,-1
1001 670 m 1,27,-1
 1001 666 l 2,28,29
 1001 560 1001 560 989 476.5 c 128,-1,30
 977 393 977 393 951 335 c 128,-1,31
 925 277 925 277 886.5 246.5 c 128,-1,32
 848 216 848 216 788 216 c 0,33,34
 694 216 694 216 644 287 c 0,35,36
 595 354 595 354 590 489 c 1,37,38
 584 386 584 386 536 324 c 0,39,40
 483 256 483 256 379 242 c 0,41,42
 297 232 297 232 252.5 211.5 c 128,-1,43
 208 191 208 191 185 176 c 1,44,45
 183 193 183 193 182 215.5 c 128,-1,46
 181 238 181 238 181 247 c 0,47,48
 181 292 181 292 188.5 324.5 c 128,-1,49
 196 357 196 357 220 382 c 128,-1,50
 244 407 244 407 284.5 421.5 c 128,-1,51
 325 436 325 436 391 445 c 0,52,53
 420 449 420 449 442 457 c 128,-1,54
 464 465 464 465 480 483 c 128,-1,55
 496 501 496 501 503 531.5 c 128,-1,56
 510 562 510 562 510 612 c 2,57,-1
 510 670 l 1,58,-1
 181 670 l 1,59,-1
 181 901 l 1,60,61
 188 1029 188 1029 223.5 1128 c 128,-1,62
 259 1227 259 1227 314.5 1293.5 c 128,-1,63
 370 1360 370 1360 441.5 1394.5 c 128,-1,64
 513 1429 513 1429 593 1429 c 0,65,66
 702 1429 702 1429 776 1383 c 128,-1,67
 850 1337 850 1337 898.5 1263 c 128,-1,68
 947 1189 947 1189 971.5 1093.5 c 128,-1,69
 996 998 996 998 1001 901 c 1,70,-1
 1001 900 l 1,71,-1
 1641 900 l 1,72,-1
 1641 670 l 1,73,-1
 1168 670 l 1,74,-1
 1429 298 l 1,75,-1
 1429 267 l 1,76,-1
 1374 4 l 1,77,-1
 1344 4 l 1,78,-1
 1081 670 l 1,79,-1
 1001 670 l 1,27,-1
EndSplineSet
EndChar

StartChar: uniE035
Encoding: 57397 57397 53
Width: 2164
Flags: W
LayerCount: 2
Fore
SplineSet
1244 900 m 17,0,-1
 1244 761 l 2,1,2
 1244 714 1244 714 1261.5 654 c 128,-1,3
 1279 594 1279 594 1305 536 c 128,-1,4
 1331 478 1331 478 1358 431.5 c 128,-1,5
 1385 385 1385 385 1409 365 c 1,6,7
 1403 383 1403 383 1403 416 c 0,8,9
 1403 437 1403 437 1406 463 c 0,10,11
 1412 526 1412 526 1440.5 655.5 c 128,-1,12
 1469 785 1469 785 1555.5 1003 c 128,-1,13
 1642 1221 1642 1221 1682 1370.5 c 128,-1,14
 1722 1520 1722 1520 1722 1560 c 0,15,16
 1722 1586 1722 1586 1716.5 1619.5 c 128,-1,17
 1711 1653 1711 1653 1705 1687.5 c 128,-1,18
 1699 1722 1699 1722 1692.5 1751.5 c 128,-1,19
 1686 1781 1686 1781 1686 1790 c 0,20,21
 1686 1824 1686 1824 1695 1839.5 c 128,-1,22
 1704 1855 1704 1855 1729 1855 c 0,23,24
 1736 1855 1736 1855 1749 1838 c 128,-1,25
 1762 1821 1762 1821 1776 1797 c 0,26,27
 1807 1739 1807 1739 1830.5 1691.5 c 128,-1,28
 1854 1644 1854 1644 1876.5 1597 c 128,-1,29
 1899 1550 1899 1550 1924 1501.5 c 128,-1,30
 1949 1453 1949 1453 1978 1395 c 1,31,32
 1886 1276 1886 1276 1821.5 1182.5 c 128,-1,33
 1757 1089 1757 1089 1689 918 c 128,-1,34
 1621 747 1621 747 1564.5 544.5 c 128,-1,35
 1508 342 1508 342 1508 145 c 1,36,37
 1437 181 1437 181 1376 245 c 128,-1,38
 1315 309 1315 309 1269 383 c 128,-1,39
 1223 457 1223 457 1193.5 532.5 c 128,-1,40
 1164 608 1164 608 1160 670 c 1,41,-1
 961 670 l 1,42,43
 959 640 959 640 953 586 c 128,-1,44
 947 532 947 532 940.5 473 c 128,-1,45
 934 414 934 414 926 361 c 128,-1,46
 918 308 918 308 909 277 c 1,47,-1
 864 261 l 1,48,49
 824 355 824 355 799 477.5 c 128,-1,50
 774 600 774 600 774 800 c 256,51,52
 774 1000 774 1000 727.5 1084 c 128,-1,53
 681 1168 681 1168 622 1168 c 0,54,55
 580 1168 580 1168 546 1139.5 c 128,-1,56
 512 1111 512 1111 488.5 1062.5 c 128,-1,57
 465 1014 465 1014 451.5 948.5 c 128,-1,58
 438 883 438 883 438 805 c 0,59,60
 438 722 438 722 459.5 664.5 c 128,-1,61
 481 607 481 607 508 560 c 128,-1,62
 535 513 535 513 556 470.5 c 128,-1,63
 577 428 577 428 577 376 c 0,64,65
 577 265 577 265 434 265 c 0,66,67
 401 265 401 265 373 270 c 128,-1,68
 345 275 345 275 325 283.5 c 128,-1,69
 305 292 305 292 293 301 c 0,70,71
 283 309 283 309 283 317 c 2,72,-1
 283 319 l 2,73,74
 285 348 285 348 308.5 362 c 128,-1,75
 332 376 332 376 357 392.5 c 128,-1,76
 382 409 382 409 403 440.5 c 128,-1,77
 424 472 424 472 424 534 c 0,78,79
 424 560 424 560 416 589 c 128,-1,80
 408 618 408 618 391.5 643 c 128,-1,81
 375 668 375 668 351.5 683.5 c 128,-1,82
 328 699 328 699 298 699 c 0,83,84
 283 699 283 699 271.5 694.5 c 128,-1,85
 260 690 260 690 245.5 684 c 128,-1,86
 231 678 231 678 218.5 674 c 128,-1,87
 206 670 206 670 197 670 c 1,88,89
 177 692 177 692 172.5 721.5 c 128,-1,90
 168 751 168 751 168 791 c 0,91,92
 168 827 168 827 178.5 850.5 c 128,-1,93
 189 874 189 874 205.5 886.5 c 128,-1,94
 222 899 222 899 244.5 908 c 128,-1,95
 267 917 267 917 287 928 c 128,-1,96
 307 939 307 939 325 953 c 128,-1,97
 343 967 343 967 352 993 c 0,98,99
 415 1177 415 1177 489.5 1274 c 128,-1,100
 564 1371 564 1371 651 1371 c 0,101,102
 696 1371 696 1371 735.5 1348.5 c 128,-1,103
 775 1326 775 1326 807.5 1278.5 c 128,-1,104
 840 1231 840 1231 858 1158 c 128,-1,105
 876 1085 876 1085 876 984 c 2,106,-1
 875 900 l 9,107,-1
 1244 900 l 17,0,-1
EndSplineSet
EndChar

StartChar: uniE036
Encoding: 57398 57398 54
Width: 1636
Flags: W
LayerCount: 2
Fore
SplineSet
856 670 m 1,0,1
 854 640 854 640 848.5 586 c 128,-1,2
 843 532 843 532 836.5 473 c 128,-1,3
 830 414 830 414 822 361 c 128,-1,4
 814 308 814 308 805 277 c 1,5,-1
 760 261 l 1,6,7
 720 355 720 355 694 475 c 128,-1,8
 668 595 668 595 668 750 c 0,9,10
 668 900 668 900 662 949 c 128,-1,11
 656 998 656 998 642.5 1035 c 128,-1,12
 629 1072 629 1072 606.5 1102 c 128,-1,13
 584 1132 584 1132 552.5 1151 c 128,-1,14
 521 1170 521 1170 480 1170 c 0,15,16
 416 1170 416 1170 370.5 1130 c 128,-1,17
 325 1090 325 1090 294 1032.5 c 128,-1,18
 263 975 263 975 249 909 c 128,-1,19
 235 843 235 843 235 789 c 0,20,21
 235 687 235 687 281 577.5 c 128,-1,22
 327 468 327 468 422 362 c 1,23,-1
 362 160 l 1,24,-1
 341 160 l 1,25,26
 249 275 249 275 198.5 406 c 128,-1,27
 148 537 148 537 148 670 c 2,28,-1
 148 901 l 1,29,30
 155 1003 155 1003 184.5 1090 c 128,-1,31
 214 1177 214 1177 257.5 1239.5 c 128,-1,32
 301 1302 301 1302 358.5 1337.5 c 128,-1,33
 416 1373 416 1373 485 1373 c 0,34,35
 553 1373 553 1373 603.5 1337.5 c 128,-1,36
 654 1302 654 1302 689.5 1238.5 c 128,-1,37
 725 1175 725 1175 741.5 1089 c 128,-1,38
 758 1003 758 1003 762 900 c 1,39,-1
 1226 900 l 2,40,41
 1353 900 1353 900 1416.5 785.5 c 128,-1,42
 1480 671 1480 671 1480 438 c 2,43,-1
 1480 22 l 2,44,45
 1480 -65 1480 -65 1464 -129 c 128,-1,46
 1448 -193 1448 -193 1417.5 -240.5 c 128,-1,47
 1387 -288 1387 -288 1341 -322 c 128,-1,48
 1295 -356 1295 -356 1237 -382 c 0,49,50
 1202 -397 1202 -397 1182.5 -409 c 128,-1,51
 1163 -421 1163 -421 1148.5 -434.5 c 128,-1,52
 1134 -448 1134 -448 1123.5 -466 c 128,-1,53
 1113 -484 1113 -484 1100 -513 c 1,54,-1
 1077 -513 l 1,55,-1
 1143 -226 l 1,56,57
 1157 -222 1157 -222 1170.5 -218 c 128,-1,58
 1184 -214 1184 -214 1200 -209 c 128,-1,59
 1216 -204 1216 -204 1233.5 -194.5 c 128,-1,60
 1251 -185 1251 -185 1277 -170 c 0,61,62
 1292 -161 1292 -161 1311.5 -148 c 128,-1,63
 1331 -135 1331 -135 1347.5 -112.5 c 128,-1,64
 1364 -90 1364 -90 1375.5 -57 c 128,-1,65
 1387 -24 1387 -24 1387 22 c 2,66,-1
 1387 438 l 2,67,68
 1387 552 1387 552 1344.5 611 c 128,-1,69
 1302 670 1302 670 1226 670 c 2,70,-1
 856 670 l 1,0,1
EndSplineSet
EndChar

StartChar: uniE037
Encoding: 57399 57399 55
Width: 1568
Flags: W
LayerCount: 2
Fore
SplineSet
1206 900 m 1,0,1
 1299 893 1299 893 1352.5 822.5 c 128,-1,2
 1406 752 1406 752 1406 632 c 2,3,-1
 1406 511 l 2,4,5
 1406 439 1406 439 1381 395.5 c 128,-1,6
 1356 352 1356 352 1319 352 c 1,7,-1
 1319 375 l 2,8,9
 1319 511 1319 511 1268 588.5 c 128,-1,10
 1217 666 1217 666 1118 670 c 1,11,-1
 781 670 l 1,12,13
 808 569 808 569 855 480.5 c 128,-1,14
 902 392 902 392 969 315 c 1,15,-1
 933 106 l 1,16,-1
 901 106 l 1,17,18
 835 200 835 200 795.5 282.5 c 128,-1,19
 756 365 756 365 732 443.5 c 128,-1,20
 708 522 708 522 678 678 c 0,21,22
 648 833 648 833 635 915 c 128,-1,23
 622 997 622 997 601.5 1064.5 c 128,-1,24
 581 1132 581 1132 549 1177 c 128,-1,25
 517 1222 517 1222 464 1222 c 0,26,27
 420 1222 420 1222 388 1199.5 c 128,-1,28
 356 1177 356 1177 333 1141.5 c 128,-1,29
 310 1106 310 1106 295 1059.5 c 128,-1,30
 280 1013 280 1013 270.5 965 c 128,-1,31
 261 917 261 917 257.5 870.5 c 128,-1,32
 254 824 254 824 254 787 c 0,33,34
 254 717 254 717 265.5 661 c 128,-1,35
 277 605 277 605 301 556 c 128,-1,36
 325 507 325 507 360.5 460 c 128,-1,37
 396 413 396 413 444 360 c 1,38,-1
 384 155 l 1,39,-1
 361 155 l 1,40,41
 272 271 272 271 219.5 405.5 c 128,-1,42
 167 540 167 540 167 789 c 0,43,44
 167 965 167 965 194 1080.5 c 128,-1,45
 221 1196 221 1196 258.5 1269 c 128,-1,46
 296 1342 296 1342 347.5 1384.5 c 128,-1,47
 399 1427 399 1427 467 1427 c 0,48,49
 534 1427 534 1427 580.5 1388.5 c 128,-1,50
 627 1350 627 1350 658 1280.5 c 128,-1,51
 689 1211 689 1211 707.5 1114 c 128,-1,52
 726 1017 726 1017 733 900 c 1,53,-1
 1206 900 l 1,0,1
EndSplineSet
EndChar

StartChar: uniE038
Encoding: 57400 57400 56
Width: 1768
Flags: W
LayerCount: 2
Fore
SplineSet
1214 670 m 1,0,-1
 1214 497 l 2,1,2
 1214 423 1214 423 1260 388 c 128,-1,3
 1306 353 1306 353 1380 353 c 0,4,5
 1452 353 1452 353 1492 388 c 128,-1,6
 1532 423 1532 423 1532 497 c 2,7,-1
 1532 670 l 1,8,-1
 1214 670 l 1,0,-1
1602 900 m 17,9,-1
 1602 497 l 2,10,11
 1602 344 1602 344 1548 258.5 c 128,-1,12
 1494 173 1494 173 1378 173 c 0,13,14
 1263 173 1263 173 1205.5 258.5 c 128,-1,15
 1148 344 1148 344 1148 497 c 2,16,-1
 1148 670 l 1,17,-1
 937 670 l 1,18,19
 935 640 935 640 929 586 c 128,-1,20
 923 532 923 532 916.5 473 c 128,-1,21
 910 414 910 414 902 361 c 128,-1,22
 894 308 894 308 885 277 c 1,23,-1
 840 261 l 1,24,25
 800 355 800 355 775 477.5 c 128,-1,26
 750 600 750 600 750 800 c 256,27,28
 750 1000 750 1000 703.5 1084 c 128,-1,29
 657 1168 657 1168 598 1168 c 0,30,31
 556 1168 556 1168 522 1139.5 c 128,-1,32
 488 1111 488 1111 464.5 1062.5 c 128,-1,33
 441 1014 441 1014 427.5 948.5 c 128,-1,34
 414 883 414 883 414 805 c 0,35,36
 414 722 414 722 435.5 664.5 c 128,-1,37
 457 607 457 607 484 560 c 128,-1,38
 511 513 511 513 532 470.5 c 128,-1,39
 553 428 553 428 553 376 c 0,40,41
 553 265 553 265 410 265 c 0,42,43
 377 265 377 265 349 270 c 128,-1,44
 321 275 321 275 301 283.5 c 128,-1,45
 281 292 281 292 269 301 c 0,46,47
 259 309 259 309 259 317 c 2,48,-1
 259 319 l 2,49,50
 261 348 261 348 284.5 362 c 128,-1,51
 308 376 308 376 333 392.5 c 128,-1,52
 358 409 358 409 379 440.5 c 128,-1,53
 400 472 400 472 400 534 c 0,54,55
 400 560 400 560 392 589 c 128,-1,56
 384 618 384 618 367.5 643 c 128,-1,57
 351 668 351 668 327.5 683.5 c 128,-1,58
 304 699 304 699 274 699 c 0,59,60
 259 699 259 699 247.5 694.5 c 128,-1,61
 236 690 236 690 221.5 684 c 128,-1,62
 207 678 207 678 194.5 674 c 128,-1,63
 182 670 182 670 173 670 c 1,64,65
 153 692 153 692 148.5 721.5 c 128,-1,66
 144 751 144 751 144 791 c 0,67,68
 144 827 144 827 154.5 850.5 c 128,-1,69
 165 874 165 874 181.5 886.5 c 128,-1,70
 198 899 198 899 220.5 908 c 128,-1,71
 243 917 243 917 263 928 c 128,-1,72
 283 939 283 939 301 953 c 128,-1,73
 319 967 319 967 328 993 c 0,74,75
 391 1177 391 1177 465.5 1274 c 128,-1,76
 540 1371 540 1371 627 1371 c 0,77,78
 672 1371 672 1371 711.5 1348.5 c 128,-1,79
 751 1326 751 1326 783.5 1278.5 c 128,-1,80
 816 1231 816 1231 834 1158 c 128,-1,81
 852 1085 852 1085 852 984 c 2,82,-1
 851 900 l 9,83,-1
 1602 900 l 17,9,-1
EndSplineSet
EndChar

StartChar: uniE039
Encoding: 57401 57401 57
Width: 1469
Flags: W
LayerCount: 2
Fore
SplineSet
843 670 m 5,0,-1
 843 569 l 6,1,2
 843 522 843 522 839.5 490.5 c 132,-1,3
 836 459 836 459 824.5 438.5 c 132,-1,4
 813 418 813 418 792.5 411.5 c 132,-1,5
 772 405 772 405 741 405 c 260,6,7
 710 405 710 405 692 411.5 c 132,-1,8
 674 418 674 418 661.5 437 c 132,-1,9
 649 456 649 456 644.5 488 c 132,-1,10
 640 520 640 520 640 569 c 6,11,-1
 640 670 l 5,12,-1
 843 670 l 5,0,-1
130 670 m 0,13,14
 132 643 l 0,15,16
 143 551 143 551 164.5 459 c 128,-1,17
 186 367 186 367 219 284.5 c 128,-1,18
 252 202 252 202 299 137 c 1,19,-1
 386 317 l 1,20,21
 344 382 344 382 313.5 436 c 128,-1,22
 283 490 283 490 260.5 546 c 128,-1,23
 238 602 238 602 224.5 668.5 c 128,-1,24
 211 735 211 735 211 821 c 0,25,26
 211 892 211 892 228 963 c 128,-1,27
 245 1034 245 1034 283 1090 c 128,-1,28
 321 1146 321 1146 384 1182 c 128,-1,29
 447 1218 447 1218 544 1218 c 0,30,31
 697 1218 697 1218 770 1131 c 128,-1,32
 843 1044 843 1044 843 900 c 1,33,-1
 640 900 l 2,34,35
 615 900 615 900 598.5 894 c 128,-1,36
 582 888 582 888 573.5 875.5 c 128,-1,37
 565 863 565 863 562.5 848 c 128,-1,38
 560 833 560 833 560 816 c 2,39,-1
 560 503 l 2,40,41
 560 360 560 360 603.5 292.5 c 128,-1,42
 647 225 647 225 741 225 c 0,43,44
 800 225 800 225 835.5 244 c 128,-1,45
 871 263 871 263 891.5 298.5 c 128,-1,46
 912 334 912 334 918.5 386 c 128,-1,47
 925 438 925 438 925 503 c 2,48,-1
 925 670 l 1,49,-1
 1043 670 l 1,50,51
 1142 666 1142 666 1193 588.5 c 128,-1,52
 1244 511 1244 511 1244 375 c 2,53,-1
 1244 352 l 1,54,55
 1281 352 1281 352 1306 395.5 c 128,-1,56
 1331 439 1331 439 1331 511 c 2,57,-1
 1331 632 l 2,58,59
 1331 752 1331 752 1277.5 822.5 c 128,-1,60
 1224 893 1224 893 1131 900 c 1,61,-1
 925 900 l 1,62,63
 925 1015 925 1015 898 1118.5 c 128,-1,64
 871 1222 871 1222 827.5 1286.5 c 128,-1,65
 784 1351 784 1351 714.5 1385.5 c 128,-1,66
 645 1420 645 1420 544 1420 c 0,67,68
 465 1420 465 1420 404.5 1395.5 c 128,-1,69
 344 1371 344 1371 296.5 1327 c 128,-1,70
 249 1283 249 1283 216.5 1224 c 128,-1,71
 184 1165 184 1165 163.5 1099.5 c 128,-1,72
 143 1034 143 1034 132 962 c 0,73,74
 129 931 129 931 128 900 c 9,75,76
 121 818 121 818 130 670 c 0,13,14
EndSplineSet
EndChar

StartChar: uniE03A
Encoding: 57402 57402 58
Width: 1477
Flags: W
LayerCount: 2
Fore
SplineSet
1124 670 m 17,0,1
 1133 564 1133 564 1155.5 459.5 c 128,-1,2
 1178 355 1178 355 1218 261 c 1,3,-1
 1263 277 l 1,4,5
 1273 308 1273 308 1281 361 c 128,-1,6
 1289 414 1289 414 1295 473 c 128,-1,7
 1301 532 1301 532 1307 586 c 128,-1,8
 1313 640 1313 640 1315 670 c 1,9,-1
 1577 670 l 1,10,-1
 1577 900 l 1,11,-1
 832 900 l 1,12,-1
 833 984 l 2,13,14
 833 1085 833 1085 815 1158 c 128,-1,15
 797 1231 797 1231 764.5 1278.5 c 128,-1,16
 732 1326 732 1326 692.5 1348.5 c 128,-1,17
 653 1371 653 1371 608 1371 c 0,18,19
 521 1371 521 1371 446.5 1274 c 128,-1,20
 372 1177 372 1177 309 993 c 0,21,22
 300 967 300 967 282 953 c 128,-1,23
 264 939 264 939 244 928 c 128,-1,24
 224 917 224 917 201.5 908 c 128,-1,25
 179 899 179 899 162.5 886.5 c 128,-1,26
 146 874 146 874 135.5 850.5 c 128,-1,27
 125 827 125 827 125 791 c 0,28,29
 125 751 125 751 129.5 721.5 c 128,-1,30
 134 692 134 692 154 670 c 1,31,32
 163 670 163 670 175.5 674 c 128,-1,33
 188 678 188 678 202.5 684 c 128,-1,34
 217 690 217 690 228.5 694.5 c 128,-1,35
 240 699 240 699 255 699 c 0,36,37
 285 699 285 699 308.5 683.5 c 128,-1,38
 332 668 332 668 348.5 643 c 128,-1,39
 365 618 365 618 373 589 c 128,-1,40
 381 560 381 560 381 534 c 0,41,42
 381 472 381 472 360 440.5 c 128,-1,43
 339 409 339 409 314 392.5 c 128,-1,44
 289 376 289 376 265.5 362 c 128,-1,45
 242 348 242 348 240 319 c 2,46,-1
 240 317 l 2,47,48
 240 309 240 309 250 301 c 0,49,50
 262 292 262 292 282 283.5 c 128,-1,51
 302 275 302 275 330 270 c 128,-1,52
 358 265 358 265 391 265 c 0,53,54
 534 265 534 265 534 376 c 0,55,56
 534 428 534 428 513 470.5 c 128,-1,57
 492 513 492 513 465 560 c 128,-1,58
 438 607 438 607 416.5 664.5 c 128,-1,59
 395 722 395 722 395 805 c 0,60,61
 395 883 395 883 408.5 948.5 c 128,-1,62
 422 1014 422 1014 445.5 1062.5 c 128,-1,63
 469 1111 469 1111 503 1139.5 c 128,-1,64
 537 1168 537 1168 579 1168 c 0,65,66
 638 1168 638 1168 684.5 1084 c 128,-1,67
 731 1000 731 1000 731 800 c 256,68,69
 731 600 731 600 756 477.5 c 128,-1,70
 781 355 781 355 821 261 c 1,71,-1
 866 277 l 1,72,73
 875 308 875 308 883 361 c 128,-1,74
 891 414 891 414 897.5 473 c 128,-1,75
 904 532 904 532 910 586 c 128,-1,76
 916 640 916 640 918 670 c 9,77,-1
 1124 670 l 17,0,1
EndSplineSet
EndChar

StartChar: uniE03B
Encoding: 57403 57403 59
Width: 1251
Flags: W
LayerCount: 2
Fore
SplineSet
1359 900 m 17,0,-1
 1359 670 l 1,1,-1
 1097 670 l 1,2,3
 1095 640 1095 640 1089 586 c 128,-1,4
 1083 532 1083 532 1077 473 c 128,-1,5
 1071 414 1071 414 1063 361 c 128,-1,6
 1055 308 1055 308 1045 277 c 1,7,-1
 1000 261 l 1,8,9
 960 355 960 355 937.5 459.5 c 128,-1,10
 915 564 915 564 906 670 c 1,11,-1
 697 670 l 1,12,13
 695 640 695 640 689 586 c 128,-1,14
 683 532 683 532 677 473 c 128,-1,15
 671 414 671 414 663 361 c 128,-1,16
 655 308 655 308 645 277 c 1,17,-1
 600 261 l 1,18,19
 560 355 560 355 537.5 459.5 c 128,-1,20
 515 564 515 564 506 670 c 1,21,-1
 297 670 l 1,22,23
 295 640 295 640 289 586 c 128,-1,24
 283 532 283 532 277 473 c 128,-1,25
 271 414 271 414 263 361 c 128,-1,26
 255 308 255 308 245 277 c 1,27,-1
 200 261 l 1,28,29
 160 355 160 355 137.5 459.5 c 128,-1,30
 115 564 115 564 106 670 c 1,31,-1
 -1 670 l 1,32,-1
 -1 900 l 9,33,-1
 1359 900 l 17,0,-1
EndSplineSet
EndChar

StartChar: uniE03C
Encoding: 57404 57404 60
Width: 1672
Flags: W
LayerCount: 2
Fore
SplineSet
1548 438 m 2,0,-1
 1548 22 l 2,1,2
 1548 -65 1548 -65 1532 -129 c 128,-1,3
 1516 -193 1516 -193 1485.5 -240.5 c 128,-1,4
 1455 -288 1455 -288 1409 -322 c 128,-1,5
 1363 -356 1363 -356 1305 -382 c 0,6,7
 1270 -397 1270 -397 1250.5 -409 c 128,-1,8
 1231 -421 1231 -421 1216.5 -434.5 c 128,-1,9
 1202 -448 1202 -448 1191.5 -466 c 128,-1,10
 1181 -484 1181 -484 1168 -513 c 1,11,-1
 1145 -513 l 1,12,-1
 1211 -226 l 1,13,14
 1225 -222 1225 -222 1238.5 -218 c 128,-1,15
 1252 -214 1252 -214 1268 -209 c 128,-1,16
 1284 -204 1284 -204 1301.5 -194.5 c 128,-1,17
 1319 -185 1319 -185 1345 -170 c 0,18,19
 1360 -161 1360 -161 1379.5 -148 c 128,-1,20
 1399 -135 1399 -135 1415.5 -112.5 c 128,-1,21
 1432 -90 1432 -90 1443.5 -57 c 128,-1,22
 1455 -24 1455 -24 1455 22 c 2,23,-1
 1455 438 l 2,24,25
 1455 552 1455 552 1412.5 611 c 128,-1,26
 1370 670 1370 670 1294 670 c 2,27,-1
 1086 670 l 1,28,-1
 1086 900 l 1,29,-1
 1294 900 l 2,30,31
 1421 900 1421 900 1484.5 785.5 c 128,-1,32
 1548 671 1548 671 1548 438 c 2,0,-1
543 900 m 1,33,34
 543 682 543 682 558 634.5 c 128,-1,35
 573 587 573 587 596.5 547 c 128,-1,36
 620 507 620 507 647 475.5 c 128,-1,37
 674 444 674 444 696 422 c 1,38,39
 696 464 696 464 697 513.5 c 128,-1,40
 698 563 698 563 704 623.5 c 128,-1,41
 710 684 710 684 724 748.5 c 128,-1,42
 738 813 738 813 761 886 c 1,43,44
 799 985 799 985 825 1058 c 128,-1,45
 851 1131 851 1131 868 1185 c 128,-1,46
 885 1239 885 1239 893 1285 c 128,-1,47
 901 1331 901 1331 901 1379 c 0,48,49
 901 1397 901 1397 896 1425 c 128,-1,50
 891 1453 891 1453 884.5 1480 c 128,-1,51
 878 1507 878 1507 871.5 1529.5 c 128,-1,52
 865 1552 865 1552 865 1563 c 0,53,54
 865 1595 865 1595 875 1610.5 c 128,-1,55
 885 1626 885 1626 910 1626 c 0,56,57
 932 1626 932 1626 956.5 1577.5 c 128,-1,58
 981 1529 981 1529 1020 1451 c 0,59,60
 1063 1367 1063 1367 1097.5 1305.5 c 128,-1,61
 1132 1244 1132 1244 1148 1197 c 1,62,63
 1117 1164 1117 1164 1082 1117 c 128,-1,64
 1047 1070 1047 1070 1012 1015.5 c 128,-1,65
 977 961 977 961 945.5 906 c 0,66,67
 918 858 918 858 898 799 c 128,-1,68
 878 740 878 740 860 686 c 128,-1,69
 842 632 842 632 829 568.5 c 128,-1,70
 816 505 816 505 809 423.5 c 128,-1,71
 802 342 802 342 802 226 c 1,72,73
 732 262 732 262 670.5 313.5 c 128,-1,74
 609 365 609 365 563 424.5 c 0,75,76
 521 479 521 479 489 547 c 0,77,78
 460 609 460 609 456 670 c 1,79,-1
 306 670 l 1,80,81
 304 640 304 640 298 586 c 128,-1,82
 292 532 292 532 286 473 c 128,-1,83
 280 414 280 414 272 361 c 128,-1,84
 264 308 264 308 254 277 c 1,85,-1
 209 261 l 1,86,87
 169 355 169 355 146.5 459.5 c 128,-1,88
 124 564 124 564 115 670 c 1,89,-1
 -2 670 l 1,90,-1
 -2 900 l 1,91,-1
 543 900 l 1,33,34
EndSplineSet
EndChar

StartChar: uniE03D
Encoding: 57405 57405 61
Width: 993
Flags: W
LayerCount: 2
Fore
SplineSet
643 750 m 0,0,1
 643 900 643 900 637 949 c 128,-1,2
 631 998 631 998 617.5 1035 c 128,-1,3
 604 1072 604 1072 581.5 1102 c 128,-1,4
 559 1132 559 1132 527.5 1151 c 128,-1,5
 496 1170 496 1170 455 1170 c 0,6,7
 391 1170 391 1170 345.5 1130 c 128,-1,8
 300 1090 300 1090 269 1032.5 c 128,-1,9
 238 975 238 975 224 909 c 128,-1,10
 210 843 210 843 210 789 c 0,11,12
 210 687 210 687 256 577.5 c 128,-1,13
 302 468 302 468 397 362 c 1,14,-1
 337 160 l 1,15,-1
 316 160 l 1,16,17
 224 275 224 275 173.5 406 c 128,-1,18
 123 537 123 537 123 670 c 2,19,-1
 123 901 l 1,20,21
 130 1003 130 1003 159.5 1090 c 128,-1,22
 189 1177 189 1177 232.5 1239.5 c 128,-1,23
 276 1302 276 1302 333.5 1337.5 c 128,-1,24
 391 1373 391 1373 460 1373 c 0,25,26
 528 1373 528 1373 578.5 1337.5 c 128,-1,27
 629 1302 629 1302 664.5 1238.5 c 128,-1,28
 700 1175 700 1175 716.5 1089 c 128,-1,29
 733 1003 733 1003 737 900 c 1,30,-1
 1093 900 l 1,31,-1
 1093 670 l 1,32,-1
 831 670 l 1,33,34
 829 640 829 640 823.5 586 c 128,-1,35
 818 532 818 532 811.5 473 c 128,-1,36
 805 414 805 414 797 361 c 128,-1,37
 789 308 789 308 780 277 c 1,38,-1
 735 261 l 1,39,40
 695 355 695 355 669 475 c 128,-1,41
 643 595 643 595 643 750 c 0,0,1
EndSplineSet
EndChar

StartChar: uniE03E
Encoding: 57406 57406 62
Width: 980
Flags: W
LayerCount: 2
Fore
SplineSet
110 900 m 1,0,-1
 110 901 l 1,1,2
 117 1003 117 1003 146.5 1090 c 128,-1,3
 176 1177 176 1177 219.5 1239.5 c 128,-1,4
 263 1302 263 1302 320.5 1337.5 c 128,-1,5
 378 1373 378 1373 447 1373 c 0,6,7
 515 1373 515 1373 565.5 1337.5 c 128,-1,8
 616 1302 616 1302 651.5 1238.5 c 128,-1,9
 687 1175 687 1175 703.5 1089 c 128,-1,10
 720 1003 720 1003 724 900 c 1,11,-1
 1080 900 l 1,12,-1
 1080 670 l 1,13,-1
 818 670 l 1,14,15
 816 640 816 640 810.5 586 c 128,-1,16
 805 532 805 532 798.5 473 c 128,-1,17
 792 414 792 414 784 361 c 128,-1,18
 776 308 776 308 767 277 c 1,19,-1
 722 261 l 1,20,21
 682 355 682 355 656 475 c 128,-1,22
 630 595 630 595 630 750 c 0,23,24
 630 900 630 900 624 949 c 128,-1,25
 618 998 618 998 604.5 1035 c 128,-1,26
 591 1072 591 1072 568.5 1102 c 128,-1,27
 546 1132 546 1132 514.5 1151 c 128,-1,28
 483 1170 483 1170 442 1170 c 0,29,30
 378 1170 378 1170 332.5 1130 c 128,-1,31
 287 1090 287 1090 256 1032.5 c 128,-1,32
 225 975 225 975 211 909 c 128,-1,33
 197 843 197 843 197 789 c 0,34,35
 197 687 197 687 243 577.5 c 128,-1,36
 289 468 289 468 384 362 c 1,37,-1
 324 160 l 1,38,-1
 303 160 l 1,39,40
 211 275 211 275 160.5 406 c 128,-1,41
 110 537 110 537 110 670 c 1,42,-1
 0 670 l 1,43,-1
 0 900 l 1,44,-1
 110 900 l 1,0,-1
EndSplineSet
EndChar

StartChar: uniE03F
Encoding: 57407 57407 63
Width: 1648
Flags: W
LayerCount: 2
Fore
SplineSet
150 900 m 1,0,-1
 150 901 l 1,1,2
 157 1003 157 1003 186.5 1090 c 128,-1,3
 216 1177 216 1177 259.5 1239.5 c 128,-1,4
 303 1302 303 1302 360.5 1337.5 c 128,-1,5
 418 1373 418 1373 487 1373 c 0,6,7
 555 1373 555 1373 605.5 1337.5 c 128,-1,8
 656 1302 656 1302 691.5 1238.5 c 128,-1,9
 727 1175 727 1175 743.5 1089 c 128,-1,10
 760 1003 760 1003 764 900 c 1,11,-1
 1228 900 l 2,12,13
 1355 900 1355 900 1418.5 785.5 c 128,-1,14
 1482 671 1482 671 1482 438 c 2,15,-1
 1482 22 l 2,16,17
 1482 -65 1482 -65 1466 -129 c 128,-1,18
 1450 -193 1450 -193 1419.5 -240.5 c 128,-1,19
 1389 -288 1389 -288 1343 -322 c 128,-1,20
 1297 -356 1297 -356 1239 -382 c 0,21,22
 1204 -397 1204 -397 1184.5 -409 c 128,-1,23
 1165 -421 1165 -421 1150.5 -434.5 c 128,-1,24
 1136 -448 1136 -448 1125.5 -466 c 128,-1,25
 1115 -484 1115 -484 1102 -513 c 1,26,-1
 1079 -513 l 1,27,-1
 1145 -226 l 1,28,29
 1159 -222 1159 -222 1172.5 -218 c 128,-1,30
 1186 -214 1186 -214 1202 -209 c 128,-1,31
 1218 -204 1218 -204 1235.5 -194.5 c 128,-1,32
 1253 -185 1253 -185 1279 -170 c 0,33,34
 1294 -161 1294 -161 1313.5 -148 c 128,-1,35
 1333 -135 1333 -135 1349.5 -112.5 c 128,-1,36
 1366 -90 1366 -90 1377.5 -57 c 128,-1,37
 1389 -24 1389 -24 1389 22 c 2,38,-1
 1389 438 l 2,39,40
 1389 552 1389 552 1346.5 611 c 128,-1,41
 1304 670 1304 670 1228 670 c 2,42,-1
 858 670 l 1,43,44
 856 640 856 640 850.5 586 c 128,-1,45
 845 532 845 532 838.5 473 c 128,-1,46
 832 414 832 414 824 361 c 128,-1,47
 816 308 816 308 807 277 c 1,48,-1
 762 261 l 1,49,50
 722 355 722 355 696 475 c 128,-1,51
 670 595 670 595 670 750 c 0,52,53
 670 900 670 900 664 949 c 128,-1,54
 658 998 658 998 644.5 1035 c 128,-1,55
 631 1072 631 1072 608.5 1102 c 128,-1,56
 586 1132 586 1132 554.5 1151 c 128,-1,57
 523 1170 523 1170 482 1170 c 0,58,59
 418 1170 418 1170 372.5 1130 c 128,-1,60
 327 1090 327 1090 296 1032.5 c 128,-1,61
 265 975 265 975 251 909 c 128,-1,62
 237 843 237 843 237 789 c 0,63,64
 237 687 237 687 283 577.5 c 128,-1,65
 329 468 329 468 424 362 c 1,66,-1
 364 160 l 1,67,-1
 343 160 l 1,68,69
 251 275 251 275 200.5 406 c 128,-1,70
 150 537 150 537 150 670 c 1,71,-1
 0 670 l 5,72,-1
 0 900 l 1,73,-1
 150 900 l 1,0,-1
EndSplineSet
EndChar

StartChar: uniE040
Encoding: 57408 57408 64
Width: 1034
Flags: W
LayerCount: 2
Fore
SplineSet
1134 900 m 1,0,-1
 1134 670 l 1,1,-1
 737 670 l 1,2,3
 764 569 764 569 811 480.5 c 128,-1,4
 858 392 858 392 925 315 c 1,5,-1
 889 106 l 1,6,-1
 857 106 l 1,7,8
 791 200 791 200 751.5 282.5 c 128,-1,9
 712 365 712 365 688 443.5 c 128,-1,10
 664 522 664 522 634 678 c 0,11,12
 604 833 604 833 591 915 c 128,-1,13
 578 997 578 997 557.5 1064.5 c 128,-1,14
 537 1132 537 1132 505 1177 c 128,-1,15
 473 1222 473 1222 420 1222 c 0,16,17
 376 1222 376 1222 344 1199.5 c 128,-1,18
 312 1177 312 1177 289 1141.5 c 128,-1,19
 266 1106 266 1106 251 1059.5 c 128,-1,20
 236 1013 236 1013 226.5 965 c 128,-1,21
 217 917 217 917 213.5 870.5 c 128,-1,22
 210 824 210 824 210 787 c 0,23,24
 210 717 210 717 221.5 661 c 128,-1,25
 233 605 233 605 257 556 c 128,-1,26
 281 507 281 507 316.5 460 c 128,-1,27
 352 413 352 413 400 360 c 1,28,-1
 340 155 l 1,29,-1
 317 155 l 1,30,31
 228 271 228 271 175.5 405.5 c 128,-1,32
 123 540 123 540 123 789 c 0,33,34
 123 965 123 965 150 1080.5 c 128,-1,35
 177 1196 177 1196 214.5 1269 c 128,-1,36
 252 1342 252 1342 303.5 1384.5 c 128,-1,37
 355 1427 355 1427 423 1427 c 0,38,39
 490 1427 490 1427 536.5 1388.5 c 128,-1,40
 583 1350 583 1350 614 1280.5 c 128,-1,41
 645 1211 645 1211 663.5 1114 c 128,-1,42
 682 1017 682 1017 689 900 c 1,43,-1
 1134 900 l 1,0,-1
EndSplineSet
EndChar

StartChar: uniE041
Encoding: 57409 57409 65
Width: 1040
Flags: W
LayerCount: 2
Fore
SplineSet
130 900 m 1,0,-1
 130 901 l 1,1,2
 139 1005 139 1005 161.5 1100.5 c 128,-1,3
 184 1196 184 1196 221.5 1269 c 128,-1,4
 259 1342 259 1342 310.5 1384.5 c 128,-1,5
 362 1427 362 1427 430 1427 c 0,6,7
 497 1427 497 1427 543.5 1388.5 c 128,-1,8
 590 1350 590 1350 621 1280.5 c 128,-1,9
 652 1211 652 1211 670.5 1114 c 128,-1,10
 689 1017 689 1017 696 900 c 1,11,-1
 1140 900 l 1,12,-1
 1140 670 l 1,13,-1
 744 670 l 1,14,15
 771 569 771 569 818 480.5 c 128,-1,16
 865 392 865 392 932 315 c 1,17,-1
 896 106 l 1,18,-1
 864 106 l 1,19,20
 798 200 798 200 758.5 282.5 c 128,-1,21
 719 365 719 365 695 443.5 c 128,-1,22
 671 522 671 522 655 599.5 c 0,23,24
 647 637 647 637 625 761 c 0,25,26
 603 884 603 884 598 915 c 0,27,28
 585 997 585 997 564.5 1064.5 c 128,-1,29
 544 1132 544 1132 512 1177 c 128,-1,30
 480 1222 480 1222 427 1222 c 0,31,32
 383 1222 383 1222 351 1199.5 c 128,-1,33
 319 1177 319 1177 296 1141.5 c 128,-1,34
 273 1106 273 1106 258 1059.5 c 128,-1,35
 243 1013 243 1013 233.5 965 c 128,-1,36
 224 917 224 917 220.5 870.5 c 128,-1,37
 217 824 217 824 217 787 c 0,38,39
 217 717 217 717 228.5 661 c 128,-1,40
 240 605 240 605 264 556 c 128,-1,41
 288 507 288 507 323.5 460 c 128,-1,42
 359 413 359 413 407 360 c 1,43,-1
 347 155 l 1,44,-1
 324 155 l 1,45,46
 235 271 235 271 182.5 405.5 c 128,-1,47
 130 540 130 540 130 669 c 2,48,-1
 130 670 l 1,49,-1
 0 670 l 1,50,-1
 0 900 l 1,51,-1
 130 900 l 1,0,-1
EndSplineSet
EndChar

StartChar: uniE042
Encoding: 57410 57410 66
Width: 1534
Flags: W
LayerCount: 2
Fore
SplineSet
130 900 m 1,0,-1
 130 901 l 1,1,2
 139 1005 139 1005 161.5 1100.5 c 128,-1,3
 184 1196 184 1196 221.5 1269 c 128,-1,4
 259 1342 259 1342 310.5 1384.5 c 128,-1,5
 362 1427 362 1427 430 1427 c 0,6,7
 497 1427 497 1427 543.5 1388.5 c 128,-1,8
 590 1350 590 1350 621 1280.5 c 128,-1,9
 652 1211 652 1211 670.5 1114 c 128,-1,10
 689 1017 689 1017 696 900 c 1,11,-1
 1169 900 l 1,12,13
 1262 893 1262 893 1315.5 822.5 c 128,-1,14
 1369 752 1369 752 1369 632 c 2,15,-1
 1369 511 l 2,16,17
 1369 439 1369 439 1344 395.5 c 128,-1,18
 1319 352 1319 352 1282 352 c 1,19,-1
 1282 375 l 2,20,21
 1282 511 1282 511 1231 588.5 c 128,-1,22
 1180 666 1180 666 1081 670 c 1,23,-1
 744 670 l 1,24,25
 771 569 771 569 818 480.5 c 128,-1,26
 865 392 865 392 932 315 c 1,27,-1
 896 106 l 1,28,-1
 864 106 l 1,29,30
 798 200 798 200 758.5 282.5 c 128,-1,31
 719 365 719 365 695 443.5 c 128,-1,32
 671 522 671 522 655 599.5 c 0,33,34
 647 637 647 637 625 761 c 0,35,36
 603 884 603 884 598 915 c 0,37,38
 585 997 585 997 564.5 1064.5 c 128,-1,39
 544 1132 544 1132 512 1177 c 128,-1,40
 480 1222 480 1222 427 1222 c 0,41,42
 383 1222 383 1222 351 1199.5 c 128,-1,43
 319 1177 319 1177 296 1141.5 c 128,-1,44
 273 1106 273 1106 258 1059.5 c 128,-1,45
 243 1013 243 1013 233.5 965 c 128,-1,46
 224 917 224 917 220.5 870.5 c 128,-1,47
 217 824 217 824 217 787 c 0,48,49
 217 717 217 717 228.5 661 c 128,-1,50
 240 605 240 605 264 556 c 128,-1,51
 288 507 288 507 323.5 460 c 128,-1,52
 359 413 359 413 407 360 c 1,53,-1
 347 155 l 1,54,-1
 324 155 l 1,55,56
 235 271 235 271 182.5 405.5 c 128,-1,57
 130 540 130 540 130 669 c 2,58,-1
 130 670 l 1,59,-1
 0 670 l 1,60,-1
 0 900 l 1,61,-1
 130 900 l 1,0,-1
EndSplineSet
EndChar

StartChar: uniE043
Encoding: 57411 57411 67
Width: 1601
Flags: W
LayerCount: 2
Fore
SplineSet
1115 670 m 1,0,-1
 1115 497 l 2,1,2
 1115 423 1115 423 1161 388 c 128,-1,3
 1207 353 1207 353 1281 353 c 0,4,5
 1353 353 1353 353 1393 388 c 128,-1,6
 1433 423 1433 423 1433 497 c 2,7,-1
 1433 670 l 1,8,-1
 1115 670 l 1,0,-1
1699 900 m 17,9,-1
 1699 670 l 1,10,-1
 1503 670 l 1,11,-1
 1503 497 l 2,12,13
 1503 344 1503 344 1449 258.5 c 128,-1,14
 1395 173 1395 173 1279 173 c 0,15,16
 1164 173 1164 173 1106.5 258.5 c 128,-1,17
 1049 344 1049 344 1049 497 c 2,18,-1
 1049 670 l 1,19,-1
 837 670 l 1,20,21
 835 640 835 640 829 586 c 128,-1,22
 823 532 823 532 816.5 473 c 128,-1,23
 810 414 810 414 802 361 c 128,-1,24
 794 308 794 308 785 277 c 1,25,-1
 740 261 l 1,26,27
 700 355 700 355 675 477.5 c 128,-1,28
 650 600 650 600 650 800 c 256,29,30
 650 1000 650 1000 603.5 1084 c 128,-1,31
 557 1168 557 1168 498 1168 c 0,32,33
 456 1168 456 1168 422 1139.5 c 128,-1,34
 388 1111 388 1111 364.5 1062.5 c 128,-1,35
 341 1014 341 1014 327.5 948.5 c 128,-1,36
 314 883 314 883 314 805 c 0,37,38
 314 722 314 722 335.5 664.5 c 128,-1,39
 357 607 357 607 384 560 c 128,-1,40
 411 513 411 513 432 470.5 c 128,-1,41
 453 428 453 428 453 376 c 0,42,43
 453 265 453 265 310 265 c 0,44,45
 277 265 277 265 249 270 c 128,-1,46
 221 275 221 275 201 283.5 c 128,-1,47
 181 292 181 292 169 301 c 0,48,49
 159 309 159 309 159 317 c 2,50,-1
 159 319 l 2,51,52
 161 348 161 348 184.5 362 c 128,-1,53
 208 376 208 376 233 392.5 c 128,-1,54
 258 409 258 409 279 440.5 c 128,-1,55
 300 472 300 472 300 534 c 0,56,57
 300 560 300 560 292 589 c 128,-1,58
 284 618 284 618 267.5 643 c 128,-1,59
 251 668 251 668 227.5 683.5 c 128,-1,60
 204 699 204 699 174 699 c 0,61,62
 159 699 159 699 147.5 694.5 c 128,-1,63
 136 690 136 690 121.5 684 c 128,-1,64
 107 678 107 678 94.5 674 c 128,-1,65
 82 670 82 670 73 670 c 1,66,67
 53 692 53 692 48.5 721.5 c 128,-1,68
 44 751 44 751 44 791 c 0,69,70
 44 827 44 827 54.5 850.5 c 128,-1,71
 65 874 65 874 81.5 886.5 c 128,-1,72
 98 899 98 899 120.5 908 c 128,-1,73
 143 917 143 917 163 928 c 128,-1,74
 183 939 183 939 201 953 c 128,-1,75
 219 967 219 967 228 993 c 0,76,77
 291 1177 291 1177 365.5 1274 c 128,-1,78
 440 1371 440 1371 527 1371 c 0,79,80
 572 1371 572 1371 611.5 1348.5 c 128,-1,81
 651 1326 651 1326 683.5 1278.5 c 128,-1,82
 716 1231 716 1231 734 1158 c 128,-1,83
 752 1085 752 1085 752 984 c 2,84,-1
 751 900 l 9,85,-1
 1699 900 l 17,9,-1
EndSplineSet
EndChar

StartChar: uniE044
Encoding: 57412 57412 68
Width: 1431
Flags: W
LayerCount: 2
Fore
SplineSet
955 670 m 1,0,-1
 955 497 l 2,1,2
 955 423 955 423 1001 388 c 128,-1,3
 1047 353 1047 353 1121 353 c 0,4,5
 1193 353 1193 353 1233 388 c 128,-1,6
 1273 423 1273 423 1273 497 c 2,7,-1
 1273 670 l 1,8,-1
 955 670 l 1,0,-1
1539 900 m 17,9,-1
 1539 670 l 1,10,-1
 1343 670 l 1,11,-1
 1343 497 l 2,12,13
 1343 344 1343 344 1289 258.5 c 128,-1,14
 1235 173 1235 173 1119 173 c 0,15,16
 1004 173 1004 173 946.5 258.5 c 128,-1,17
 889 344 889 344 889 497 c 2,18,-1
 889 670 l 1,19,-1
 677 670 l 1,20,21
 675 640 675 640 669 586 c 128,-1,22
 663 532 663 532 657 473 c 128,-1,23
 651 414 651 414 643 361 c 128,-1,24
 635 308 635 308 625 277 c 1,25,26
 580 261 l 1,27,28
 540 355 540 355 517.5 459.5 c 128,-1,29
 495 564 495 564 486 670 c 1,30,-1
 277 670 l 1,31,32
 275 640 275 640 269 586 c 128,-1,33
 263 532 263 532 257 473 c 128,-1,34
 251 414 251 414 243 361 c 128,-1,35
 235 308 235 308 225 277 c 1,36,-1
 180 261 l 1,37,38
 140 355 140 355 117.5 459.5 c 128,-1,39
 95 564 95 564 86 670 c 1,40,-1
 -1 670 l 1,41,-1
 -1 900 l 9,42,-1
 1539 900 l 17,9,-1
EndSplineSet
EndChar

StartChar: uniE045
Encoding: 57413 57413 69
Width: 1674
Flags: W
LayerCount: 2
Fore
SplineSet
992 670 m 5,0,1
 1320 670 l 5,2,3
 1320 602 1320 602 1317 543.5 c 132,-1,4
 1314 485 1314 485 1299 443.5 c 132,-1,5
 1284 402 1284 402 1249.5 378.5 c 128,-1,6
 1215 355 1215 355 1154 355 c 260,7,8
 1093 355 1093 355 1060 380 c 128,-1,9
 1027 405 1027 405 1011.5 447.5 c 132,-1,10
 996 490 996 490 994 546 c 132,-1,11
 992 602 992 602 992 670 c 5,0,1
909 670 m 17,12,13
 909 626 909 626 912.5 573 c 128,-1,14
 916 520 916 520 925.5 464.5 c 128,-1,15
 935 409 935 409 951.5 358.5 c 128,-1,16
 968 308 968 308 996.5 266.5 c 128,-1,17
 1025 225 1025 225 1062.5 201.5 c 128,-1,18
 1100 178 1100 178 1154 178 c 0,19,20
 1225 178 1225 178 1272.5 210 c 128,-1,21
 1320 242 1320 242 1349 296 c 128,-1,22
 1378 350 1378 350 1388.5 417.5 c 128,-1,23
 1399 485 1399 485 1399 555 c 2,24,-1
 1399 791 l 2,25,26
 1399 900 1399 900 1293 900 c 2,27,-1
 996 900 l 1,28,29
 1050 1218 1050 1218 1257 1218 c 0,30,31
 1300 1218 1300 1218 1340.5 1196.5 c 128,-1,32
 1381 1175 1381 1175 1412.5 1132.5 c 128,-1,33
 1444 1090 1444 1090 1470 1024 c 128,-1,34
 1496 958 1496 958 1507 868 c 1,35,36
 1520 812 1520 812 1528 791.5 c 128,-1,37
 1536 771 1536 771 1552 771 c 0,38,39
 1559 771 1559 771 1570 795 c 128,-1,40
 1581 819 1581 819 1581 866 c 0,41,42
 1581 986 1581 986 1559.5 1087.5 c 128,-1,43
 1538 1189 1538 1189 1496.5 1262 c 128,-1,44
 1455 1335 1455 1335 1395.5 1376.5 c 128,-1,45
 1336 1418 1336 1418 1257 1418 c 0,46,47
 1100 1418 1100 1418 1015 1286 c 0,48,49
 929 1153 929 1153 909 900 c 1,50,-1
 0 900 l 1,51,-1
 0 670 l 1,52,-1
 107 670 l 1,53,54
 116 564 116 564 138.5 459.5 c 128,-1,55
 161 355 161 355 201 261 c 1,56,-1
 246 277 l 1,57,58
 256 308 256 308 264 361 c 128,-1,59
 272 414 272 414 278 473 c 128,-1,60
 284 532 284 532 290 586 c 128,-1,61
 296 640 296 640 298 670 c 1,62,-1
 507 670 l 1,63,64
 516 564 516 564 538.5 459.5 c 128,-1,65
 561 355 561 355 601 261 c 1,66,-1
 646 277 l 1,67,68
 656 308 656 308 664 361 c 128,-1,69
 672 414 672 414 678 473 c 128,-1,70
 684 532 684 532 690 586 c 128,-1,71
 696 640 696 640 698 670 c 9,72,-1
 909 670 l 17,12,13
EndSplineSet
EndChar

StartChar: uniE046
Encoding: 57414 57414 70
Width: 1524
Flags: W
LayerCount: 2
Fore
SplineSet
865 670 m 1,0,-1
 662 670 l 1,1,-1
 662 569 l 2,2,3
 662 520 662 520 666.5 488 c 128,-1,4
 671 456 671 456 683.5 437 c 128,-1,5
 696 418 696 418 714 411.5 c 128,-1,6
 732 405 732 405 763 405 c 256,7,8
 794 405 794 405 814.5 411.5 c 128,-1,9
 835 418 835 418 846.5 438.5 c 128,-1,10
 858 459 858 459 861.5 490.5 c 128,-1,11
 865 522 865 522 865 569 c 2,12,-1
 865 670 l 1,0,-1
1624 900 m 1,13,-1
 1624 670 l 1,14,-1
 1151 670 l 1,15,-1
 1412 298 l 1,16,-1
 1412 267 l 1,17,-1
 1357 4 l 1,18,-1
 1327 4 l 1,19,-1
 1064 670 l 1,20,-1
 947 670 l 1,21,-1
 947 503 l 2,22,23
 947 438 947 438 940.5 386 c 128,-1,24
 934 334 934 334 913.5 298.5 c 128,-1,25
 893 263 893 263 857.5 244 c 128,-1,26
 822 225 822 225 763 225 c 0,27,28
 669 225 669 225 625.5 292.5 c 128,-1,29
 582 360 582 360 582 503 c 2,30,-1
 582 816 l 2,31,32
 582 833 582 833 584.5 848 c 128,-1,33
 587 863 587 863 595.5 875.5 c 128,-1,34
 604 888 604 888 620.5 894 c 128,-1,35
 637 900 637 900 662 900 c 2,36,-1
 865 900 l 1,37,38
 865 1044 865 1044 792 1131 c 128,-1,39
 719 1218 719 1218 566 1218 c 0,40,41
 469 1218 469 1218 406 1182 c 128,-1,42
 343 1146 343 1146 305 1090 c 128,-1,43
 267 1034 267 1034 250 963 c 128,-1,44
 233 892 233 892 233 821 c 0,45,46
 233 735 233 735 246.5 668.5 c 128,-1,47
 260 602 260 602 282.5 546 c 128,-1,48
 305 490 305 490 335.5 436 c 128,-1,49
 366 382 366 382 408 317 c 1,50,-1
 321 137 l 1,51,52
 274 202 274 202 241 284.5 c 128,-1,53
 208 367 208 367 186.5 459 c 128,-1,54
 165 551 165 551 154 643 c 0,55,56
 147 728 147 728 147 798 c 0,57,58
 147 878 147 878 154 962 c 1,59,60
 165 1034 165 1034 185.5 1099.5 c 128,-1,61
 206 1165 206 1165 238.5 1224 c 128,-1,62
 271 1283 271 1283 318.5 1327 c 128,-1,63
 366 1371 366 1371 426.5 1395.5 c 128,-1,64
 487 1420 487 1420 566 1420 c 0,65,66
 667 1420 667 1420 736.5 1385.5 c 128,-1,67
 806 1351 806 1351 849.5 1286.5 c 128,-1,68
 893 1222 893 1222 920 1118.5 c 128,-1,69
 947 1015 947 1015 947 900 c 1,70,-1
 1624 900 l 1,13,-1
EndSplineSet
EndChar

StartChar: uniE047
Encoding: 57415 57415 71
Width: 1004
Flags: W
LayerCount: 2
Fore
SplineSet
829 670 m 5,0,-1
 626 670 l 5,1,-1
 626 569 l 6,2,3
 626 520 626 520 630.5 488 c 132,-1,4
 635 456 635 456 647.5 437 c 132,-1,5
 660 418 660 418 678 411.5 c 132,-1,6
 696 405 696 405 727 405 c 260,7,8
 758 405 758 405 778.5 411.5 c 132,-1,9
 799 418 799 418 810.5 438.5 c 132,-1,10
 822 459 822 459 825.5 490.5 c 132,-1,11
 829 522 829 522 829 569 c 6,12,-1
 829 670 l 5,0,-1
116 670 m 5,13,-1
 -2 670 l 5,14,-1
 -2 900 l 5,15,-1
 114 900 l 5,16,17
 115 943 115 943 118 962 c 4,18,19
 127 1027 127 1027 149.5 1099.5 c 4,20,21
 170 1165 170 1165 202.5 1224 c 132,-1,22
 235 1283 235 1283 282.5 1327 c 132,-1,23
 330 1371 330 1371 390.5 1395.5 c 132,-1,24
 451 1420 451 1420 530 1420 c 4,25,26
 631 1420 631 1420 700.5 1385.5 c 132,-1,27
 770 1351 770 1351 813.5 1286.5 c 132,-1,28
 857 1222 857 1222 884 1118.5 c 132,-1,29
 911 1015 911 1015 911 900 c 5,30,-1
 1088 900 l 5,31,-1
 1088 670 l 5,32,-1
 911 670 l 5,33,-1
 911 503 l 6,34,35
 911 438 911 438 904.5 386 c 132,-1,36
 898 334 898 334 877.5 298.5 c 132,-1,37
 857 263 857 263 821.5 244 c 132,-1,38
 786 225 786 225 727 225 c 4,39,40
 633 225 633 225 589.5 292.5 c 132,-1,41
 546 360 546 360 546 503 c 6,42,-1
 546 816 l 6,43,44
 546 833 546 833 548.5 848 c 132,-1,45
 551 863 551 863 559.5 875.5 c 132,-1,46
 568 888 568 888 584.5 894 c 132,-1,47
 601 900 601 900 626 900 c 6,48,-1
 829 900 l 5,49,50
 829 1044 829 1044 756 1131 c 132,-1,51
 683 1218 683 1218 530 1218 c 4,52,53
 433 1218 433 1218 370 1182 c 132,-1,54
 307 1146 307 1146 269 1090 c 132,-1,55
 231 1034 231 1034 214 963 c 132,-1,56
 197 892 197 892 197 821 c 4,57,58
 197 735 197 735 210.5 668.5 c 132,-1,59
 224 602 224 602 246.5 546 c 132,-1,60
 269 490 269 490 299.5 436 c 132,-1,61
 330 382 330 382 372 317 c 5,62,-1
 285 137 l 5,63,64
 238 202 238 202 205 284.5 c 132,-1,65
 172 367 172 367 150.5 459 c 4,66,67
 123 578 123 578 118 643 c 4,68,69
 117 657 117 657 116 670 c 5,13,-1
EndSplineSet
EndChar

StartChar: uniE048
Encoding: 57416 57416 72
Width: 1029
Flags: W
LayerCount: 2
Fore
SplineSet
820 670 m 1,0,-1
 617 670 l 1,1,-1
 617 569 l 2,2,3
 617 520 617 520 621.5 488 c 128,-1,4
 626 456 626 456 638.5 437 c 128,-1,5
 651 418 651 418 669 411.5 c 128,-1,6
 687 405 687 405 718 405 c 256,7,8
 749 405 749 405 769.5 411.5 c 128,-1,9
 790 418 790 418 801.5 438.5 c 128,-1,10
 813 459 813 459 816.5 490.5 c 128,-1,11
 820 522 820 522 820 569 c 2,12,-1
 820 670 l 1,0,-1
105 900 m 1,13,14
 106 943 106 943 109 962 c 0,15,16
 118 1027 118 1027 140.5 1099.5 c 0,17,18
 161 1165 161 1165 193.5 1224 c 128,-1,19
 226 1283 226 1283 273.5 1327 c 128,-1,20
 321 1371 321 1371 381.5 1395.5 c 128,-1,21
 442 1420 442 1420 521 1420 c 0,22,23
 622 1420 622 1420 691.5 1385.5 c 128,-1,24
 761 1351 761 1351 804.5 1286.5 c 128,-1,25
 848 1222 848 1222 875 1118.5 c 128,-1,26
 902 1015 902 1015 902 900 c 2,27,-1
 902 503 l 2,28,29
 902 438 902 438 895.5 386 c 128,-1,30
 889 334 889 334 868.5 298.5 c 128,-1,31
 848 263 848 263 812.5 244 c 128,-1,32
 777 225 777 225 718 225 c 0,33,34
 624 225 624 225 580.5 292.5 c 128,-1,35
 537 360 537 360 537 503 c 2,36,-1
 537 816 l 2,37,38
 537 833 537 833 539.5 848 c 128,-1,39
 542 863 542 863 550.5 875.5 c 128,-1,40
 559 888 559 888 575.5 894 c 128,-1,41
 592 900 592 900 617 900 c 2,42,-1
 820 900 l 1,43,44
 820 1044 820 1044 747 1131 c 128,-1,45
 674 1218 674 1218 521 1218 c 0,46,47
 424 1218 424 1218 361 1182 c 128,-1,48
 298 1146 298 1146 260 1090 c 128,-1,49
 222 1034 222 1034 205 963 c 128,-1,50
 188 892 188 892 188 821 c 0,51,52
 188 735 188 735 201.5 668.5 c 128,-1,53
 215 602 215 602 237.5 546 c 128,-1,54
 260 490 260 490 290.5 436 c 128,-1,55
 321 382 321 382 363 317 c 1,56,-1
 276 137 l 1,57,58
 229 202 229 202 196 284.5 c 128,-1,59
 163 367 163 367 141.5 459 c 0,60,61
 114 578 114 578 109 643 c 0,62,63
 108 657 108 657 107 670 c 1,64,-1
 -1 670 l 1,65,-1
 -1 900 l 1,66,-1
 105 900 l 1,13,14
EndSplineSet
EndChar

StartChar: uniE049
Encoding: 57417 57417 73
Width: 2164
Flags: W
LayerCount: 2
Fore
SplineSet
724 -216 m 0,0,1
 724 -227 724 -227 717 -236.5 c 128,-1,2
 710 -246 710 -246 699.5 -255.5 c 128,-1,3
 689 -265 689 -265 675 -276 c 128,-1,4
 661 -287 661 -287 647 -302 c 0,5,6
 634 -316 634 -316 625 -328.5 c 128,-1,7
 616 -341 616 -341 608.5 -351 c 128,-1,8
 601 -361 601 -361 594 -366.5 c 128,-1,9
 587 -372 587 -372 579 -372 c 0,10,11
 560 -372 560 -372 546.5 -362 c 128,-1,12
 533 -352 533 -352 533 -332 c 0,13,14
 533 -305 533 -305 537 -284 c 128,-1,15
 541 -263 541 -263 551 -236 c 0,16,17
 556 -220 556 -220 565.5 -201.5 c 128,-1,18
 575 -183 575 -183 587 -167.5 c 128,-1,19
 599 -152 599 -152 613.5 -142.5 c 128,-1,20
 628 -133 628 -133 645 -133 c 0,21,22
 663 -133 663 -133 686 -154 c 0,23,24
 724 -188 724 -188 724 -216 c 0,0,1
621 60 m 0,25,26
 621 49 621 49 614 39.5 c 128,-1,27
 607 30 607 30 596 20.5 c 128,-1,28
 585 11 585 11 571 0 c 128,-1,29
 557 -11 557 -11 544 -26 c 0,30,31
 531 -40 531 -40 522 -52.5 c 128,-1,32
 513 -65 513 -65 505.5 -75 c 128,-1,33
 498 -85 498 -85 491 -90.5 c 128,-1,34
 484 -96 484 -96 476 -96 c 0,35,36
 456 -96 456 -96 443 -86 c 128,-1,37
 430 -76 430 -76 430 -56 c 0,38,39
 430 -29 430 -29 434 -8 c 128,-1,40
 438 13 438 13 447 40 c 0,41,42
 453 56 453 56 462 74.5 c 128,-1,43
 471 93 471 93 483 108.5 c 128,-1,44
 495 124 495 124 509.5 133.5 c 128,-1,45
 524 143 524 143 541 143 c 0,46,47
 560 143 560 143 583 122 c 0,48,49
 621 88 621 88 621 60 c 0,25,26
1244 900 m 17,50,-1
 1244 761 l 2,51,52
 1244 714 1244 714 1261.5 654 c 128,-1,53
 1279 594 1279 594 1305 536 c 128,-1,54
 1331 478 1331 478 1358 431.5 c 128,-1,55
 1385 385 1385 385 1409 365 c 1,56,57
 1403 383 1403 383 1403 416 c 0,58,59
 1403 437 1403 437 1406 463 c 0,60,61
 1412 526 1412 526 1440.5 655.5 c 128,-1,62
 1469 785 1469 785 1555.5 1003 c 128,-1,63
 1642 1221 1642 1221 1682 1370.5 c 128,-1,64
 1722 1520 1722 1520 1722 1560 c 0,65,66
 1722 1586 1722 1586 1716.5 1619.5 c 128,-1,67
 1711 1653 1711 1653 1705 1687.5 c 128,-1,68
 1699 1722 1699 1722 1692.5 1751.5 c 128,-1,69
 1686 1781 1686 1781 1686 1790 c 0,70,71
 1686 1824 1686 1824 1695 1839.5 c 128,-1,72
 1704 1855 1704 1855 1729 1855 c 0,73,74
 1736 1855 1736 1855 1749 1838 c 128,-1,75
 1762 1821 1762 1821 1776 1797 c 0,76,77
 1807 1739 1807 1739 1830.5 1691.5 c 128,-1,78
 1854 1644 1854 1644 1876.5 1597 c 128,-1,79
 1899 1550 1899 1550 1924 1501.5 c 128,-1,80
 1949 1453 1949 1453 1978 1395 c 1,81,82
 1886 1276 1886 1276 1821.5 1182.5 c 128,-1,83
 1757 1089 1757 1089 1689 918 c 128,-1,84
 1621 747 1621 747 1564.5 544.5 c 128,-1,85
 1508 342 1508 342 1508 145 c 1,86,87
 1437 181 1437 181 1376 245 c 128,-1,88
 1315 309 1315 309 1269 383 c 128,-1,89
 1223 457 1223 457 1193.5 532.5 c 128,-1,90
 1164 608 1164 608 1160 670 c 1,91,-1
 961 670 l 1,92,93
 959 640 959 640 953 586 c 128,-1,94
 947 532 947 532 940.5 473 c 128,-1,95
 934 414 934 414 926 361 c 128,-1,96
 918 308 918 308 909 277 c 1,97,-1
 864 261 l 1,98,99
 824 355 824 355 799 477.5 c 128,-1,100
 774 600 774 600 774 800 c 256,101,102
 774 1000 774 1000 727.5 1084 c 128,-1,103
 681 1168 681 1168 622 1168 c 0,104,105
 580 1168 580 1168 546 1139.5 c 128,-1,106
 512 1111 512 1111 488.5 1062.5 c 128,-1,107
 465 1014 465 1014 451.5 948.5 c 128,-1,108
 438 883 438 883 438 805 c 0,109,110
 438 722 438 722 459.5 664.5 c 128,-1,111
 481 607 481 607 508 560 c 128,-1,112
 535 513 535 513 556 470.5 c 128,-1,113
 577 428 577 428 577 376 c 0,114,115
 577 265 577 265 434 265 c 0,116,117
 401 265 401 265 373 270 c 128,-1,118
 345 275 345 275 325 283.5 c 128,-1,119
 305 292 305 292 293 301 c 0,120,121
 283 309 283 309 283 317 c 2,122,-1
 283 319 l 2,123,124
 285 348 285 348 308.5 362 c 128,-1,125
 332 376 332 376 357 392.5 c 128,-1,126
 382 409 382 409 403 440.5 c 128,-1,127
 424 472 424 472 424 534 c 0,128,129
 424 560 424 560 416 589 c 128,-1,130
 408 618 408 618 391.5 643 c 128,-1,131
 375 668 375 668 351.5 683.5 c 128,-1,132
 328 699 328 699 298 699 c 0,133,134
 283 699 283 699 271.5 694.5 c 128,-1,135
 260 690 260 690 245.5 684 c 128,-1,136
 231 678 231 678 218.5 674 c 128,-1,137
 206 670 206 670 197 670 c 1,138,139
 177 692 177 692 172.5 721.5 c 128,-1,140
 168 751 168 751 168 791 c 0,141,142
 168 827 168 827 178.5 850.5 c 128,-1,143
 189 874 189 874 205.5 886.5 c 128,-1,144
 222 899 222 899 244.5 908 c 128,-1,145
 267 917 267 917 287 928 c 128,-1,146
 307 939 307 939 325 953 c 128,-1,147
 343 967 343 967 352 993 c 0,148,149
 415 1177 415 1177 489.5 1274 c 128,-1,150
 564 1371 564 1371 651 1371 c 0,151,152
 696 1371 696 1371 735.5 1348.5 c 128,-1,153
 775 1326 775 1326 807.5 1278.5 c 128,-1,154
 840 1231 840 1231 858 1158 c 128,-1,155
 876 1085 876 1085 876 984 c 2,156,-1
 875 900 l 9,157,-1
 1244 900 l 17,50,-1
EndSplineSet
EndChar

StartChar: uniE04A
Encoding: 57418 57418 74
Width: 1768
Flags: W
LayerCount: 2
Fore
SplineSet
704 -216 m 4,0,1
 704 -227 704 -227 697 -236.5 c 132,-1,2
 690 -246 690 -246 679.5 -255.5 c 132,-1,3
 669 -265 669 -265 655 -276 c 132,-1,4
 641 -287 641 -287 627 -302 c 4,5,6
 614 -316 614 -316 605 -328.5 c 132,-1,7
 596 -341 596 -341 588.5 -351 c 132,-1,8
 581 -361 581 -361 574 -366.5 c 132,-1,9
 567 -372 567 -372 559 -372 c 4,10,11
 540 -372 540 -372 526.5 -362 c 132,-1,12
 513 -352 513 -352 513 -332 c 4,13,14
 513 -305 513 -305 517 -284 c 132,-1,15
 521 -263 521 -263 531 -236 c 4,16,17
 536 -220 536 -220 545.5 -201.5 c 132,-1,18
 555 -183 555 -183 567 -167.5 c 132,-1,19
 579 -152 579 -152 593.5 -142.5 c 132,-1,20
 608 -133 608 -133 625 -133 c 4,21,22
 643 -133 643 -133 666 -154 c 4,23,24
 704 -188 704 -188 704 -216 c 4,0,1
601 60 m 4,25,26
 601 49 601 49 594 39.5 c 132,-1,27
 587 30 587 30 576 20.5 c 132,-1,28
 565 11 565 11 551 0 c 132,-1,29
 537 -11 537 -11 524 -26 c 4,30,31
 511 -40 511 -40 502 -52.5 c 132,-1,32
 493 -65 493 -65 485.5 -75 c 132,-1,33
 478 -85 478 -85 471 -90.5 c 132,-1,34
 464 -96 464 -96 456 -96 c 4,35,36
 436 -96 436 -96 423 -86 c 132,-1,37
 410 -76 410 -76 410 -56 c 4,38,39
 410 -29 410 -29 414 -8 c 132,-1,40
 418 13 418 13 427 40 c 4,41,42
 433 56 433 56 442 74.5 c 132,-1,43
 451 93 451 93 463 108.5 c 132,-1,44
 475 124 475 124 489.5 133.5 c 132,-1,45
 504 143 504 143 521 143 c 4,46,47
 540 143 540 143 563 122 c 4,48,49
 601 88 601 88 601 60 c 4,25,26
1214 670 m 1,50,-1
 1214 497 l 2,51,52
 1214 423 1214 423 1260 388 c 128,-1,53
 1306 353 1306 353 1380 353 c 0,54,55
 1452 353 1452 353 1492 388 c 128,-1,56
 1532 423 1532 423 1532 497 c 2,57,-1
 1532 670 l 1,58,-1
 1214 670 l 1,50,-1
1602 900 m 17,59,-1
 1602 497 l 2,60,61
 1602 344 1602 344 1548 258.5 c 128,-1,62
 1494 173 1494 173 1378 173 c 0,63,64
 1263 173 1263 173 1205.5 258.5 c 128,-1,65
 1148 344 1148 344 1148 497 c 2,66,-1
 1148 670 l 1,67,-1
 937 670 l 1,68,69
 935 640 935 640 929 586 c 128,-1,70
 923 532 923 532 916.5 473 c 128,-1,71
 910 414 910 414 902 361 c 128,-1,72
 894 308 894 308 885 277 c 1,73,-1
 840 261 l 1,74,75
 800 355 800 355 775 477.5 c 128,-1,76
 750 600 750 600 750 800 c 256,77,78
 750 1000 750 1000 703.5 1084 c 128,-1,79
 657 1168 657 1168 598 1168 c 0,80,81
 556 1168 556 1168 522 1139.5 c 128,-1,82
 488 1111 488 1111 464.5 1062.5 c 128,-1,83
 441 1014 441 1014 427.5 948.5 c 128,-1,84
 414 883 414 883 414 805 c 0,85,86
 414 722 414 722 435.5 664.5 c 128,-1,87
 457 607 457 607 484 560 c 128,-1,88
 511 513 511 513 532 470.5 c 128,-1,89
 553 428 553 428 553 376 c 0,90,91
 553 265 553 265 410 265 c 0,92,93
 377 265 377 265 349 270 c 128,-1,94
 321 275 321 275 301 283.5 c 128,-1,95
 281 292 281 292 269 301 c 0,96,97
 259 309 259 309 259 317 c 2,98,-1
 259 319 l 2,99,100
 261 348 261 348 284.5 362 c 128,-1,101
 308 376 308 376 333 392.5 c 128,-1,102
 358 409 358 409 379 440.5 c 128,-1,103
 400 472 400 472 400 534 c 0,104,105
 400 560 400 560 392 589 c 128,-1,106
 384 618 384 618 367.5 643 c 128,-1,107
 351 668 351 668 327.5 683.5 c 128,-1,108
 304 699 304 699 274 699 c 0,109,110
 259 699 259 699 247.5 694.5 c 128,-1,111
 236 690 236 690 221.5 684 c 128,-1,112
 207 678 207 678 194.5 674 c 128,-1,113
 182 670 182 670 173 670 c 1,114,115
 153 692 153 692 148.5 721.5 c 128,-1,116
 144 751 144 751 144 791 c 0,117,118
 144 827 144 827 154.5 850.5 c 128,-1,119
 165 874 165 874 181.5 886.5 c 128,-1,120
 198 899 198 899 220.5 908 c 128,-1,121
 243 917 243 917 263 928 c 128,-1,122
 283 939 283 939 301 953 c 128,-1,123
 319 967 319 967 328 993 c 0,124,125
 391 1177 391 1177 465.5 1274 c 128,-1,126
 540 1371 540 1371 627 1371 c 0,127,128
 672 1371 672 1371 711.5 1348.5 c 128,-1,129
 751 1326 751 1326 783.5 1278.5 c 128,-1,130
 816 1231 816 1231 834 1158 c 128,-1,131
 852 1085 852 1085 852 984 c 2,132,-1
 851 900 l 9,133,-1
 1602 900 l 17,59,-1
EndSplineSet
EndChar

StartChar: uniE04B
Encoding: 57419 57419 75
Width: 1477
Flags: W
LayerCount: 2
Fore
SplineSet
674 -216 m 4,0,1
 674 -227 674 -227 667 -236.5 c 132,-1,2
 660 -246 660 -246 649.5 -255.5 c 132,-1,3
 639 -265 639 -265 625 -276 c 132,-1,4
 611 -287 611 -287 597 -302 c 4,5,6
 584 -316 584 -316 575 -328.5 c 132,-1,7
 566 -341 566 -341 558.5 -351 c 132,-1,8
 551 -361 551 -361 544 -366.5 c 132,-1,9
 537 -372 537 -372 529 -372 c 4,10,11
 510 -372 510 -372 496.5 -362 c 132,-1,12
 483 -352 483 -352 483 -332 c 4,13,14
 483 -305 483 -305 487 -284 c 132,-1,15
 491 -263 491 -263 501 -236 c 4,16,17
 506 -220 506 -220 515.5 -201.5 c 132,-1,18
 525 -183 525 -183 537 -167.5 c 132,-1,19
 549 -152 549 -152 563.5 -142.5 c 132,-1,20
 578 -133 578 -133 595 -133 c 4,21,22
 613 -133 613 -133 636 -154 c 4,23,24
 674 -188 674 -188 674 -216 c 4,0,1
571 60 m 4,25,26
 571 49 571 49 564 39.5 c 132,-1,27
 557 30 557 30 546 20.5 c 132,-1,28
 535 11 535 11 521 0 c 132,-1,29
 507 -11 507 -11 494 -26 c 4,30,31
 481 -40 481 -40 472 -52.5 c 132,-1,32
 463 -65 463 -65 455.5 -75 c 132,-1,33
 448 -85 448 -85 441 -90.5 c 132,-1,34
 434 -96 434 -96 426 -96 c 4,35,36
 406 -96 406 -96 393 -86 c 132,-1,37
 380 -76 380 -76 380 -56 c 4,38,39
 380 -29 380 -29 384 -8 c 132,-1,40
 388 13 388 13 397 40 c 4,41,42
 403 56 403 56 412 74.5 c 132,-1,43
 421 93 421 93 433 108.5 c 132,-1,44
 445 124 445 124 459.5 133.5 c 132,-1,45
 474 143 474 143 491 143 c 4,46,47
 510 143 510 143 533 122 c 4,48,49
 571 88 571 88 571 60 c 4,25,26
1124 670 m 17,50,51
 1133 564 1133 564 1155.5 459.5 c 128,-1,52
 1178 355 1178 355 1218 261 c 1,53,-1
 1263 277 l 1,54,55
 1273 308 1273 308 1281 361 c 128,-1,56
 1289 414 1289 414 1295 473 c 128,-1,57
 1301 532 1301 532 1307 586 c 128,-1,58
 1313 640 1313 640 1315 670 c 1,59,-1
 1577 670 l 1,60,-1
 1577 900 l 1,61,-1
 832 900 l 1,62,-1
 833 984 l 2,63,64
 833 1085 833 1085 815 1158 c 128,-1,65
 797 1231 797 1231 764.5 1278.5 c 128,-1,66
 732 1326 732 1326 692.5 1348.5 c 128,-1,67
 653 1371 653 1371 608 1371 c 0,68,69
 521 1371 521 1371 446.5 1274 c 128,-1,70
 372 1177 372 1177 309 993 c 0,71,72
 300 967 300 967 282 953 c 128,-1,73
 264 939 264 939 244 928 c 128,-1,74
 224 917 224 917 201.5 908 c 128,-1,75
 179 899 179 899 162.5 886.5 c 128,-1,76
 146 874 146 874 135.5 850.5 c 128,-1,77
 125 827 125 827 125 791 c 0,78,79
 125 751 125 751 129.5 721.5 c 128,-1,80
 134 692 134 692 154 670 c 1,81,82
 163 670 163 670 175.5 674 c 128,-1,83
 188 678 188 678 202.5 684 c 128,-1,84
 217 690 217 690 228.5 694.5 c 128,-1,85
 240 699 240 699 255 699 c 0,86,87
 285 699 285 699 308.5 683.5 c 128,-1,88
 332 668 332 668 348.5 643 c 128,-1,89
 365 618 365 618 373 589 c 128,-1,90
 381 560 381 560 381 534 c 0,91,92
 381 472 381 472 360 440.5 c 128,-1,93
 339 409 339 409 314 392.5 c 128,-1,94
 289 376 289 376 265.5 362 c 128,-1,95
 242 348 242 348 240 319 c 2,96,-1
 240 317 l 2,97,98
 240 309 240 309 250 301 c 0,99,100
 262 292 262 292 282 283.5 c 128,-1,101
 302 275 302 275 330 270 c 128,-1,102
 358 265 358 265 391 265 c 0,103,104
 534 265 534 265 534 376 c 0,105,106
 534 428 534 428 513 470.5 c 128,-1,107
 492 513 492 513 465 560 c 128,-1,108
 438 607 438 607 416.5 664.5 c 128,-1,109
 395 722 395 722 395 805 c 0,110,111
 395 883 395 883 408.5 948.5 c 128,-1,112
 422 1014 422 1014 445.5 1062.5 c 128,-1,113
 469 1111 469 1111 503 1139.5 c 128,-1,114
 537 1168 537 1168 579 1168 c 0,115,116
 638 1168 638 1168 684.5 1084 c 128,-1,117
 731 1000 731 1000 731 800 c 256,118,119
 731 600 731 600 756 477.5 c 128,-1,120
 781 355 781 355 821 261 c 1,121,-1
 866 277 l 1,122,123
 875 308 875 308 883 361 c 128,-1,124
 891 414 891 414 897.5 473 c 128,-1,125
 904 532 904 532 910 586 c 128,-1,126
 916 640 916 640 918 670 c 9,127,-1
 1124 670 l 17,50,51
EndSplineSet
EndChar

StartChar: uniE04C
Encoding: 57420 57420 76
Width: 1251
Flags: W
LayerCount: 2
Fore
SplineSet
774 -216 m 4,0,1
 774 -227 774 -227 767 -236.5 c 132,-1,2
 760 -246 760 -246 749.5 -255.5 c 132,-1,3
 739 -265 739 -265 725 -276 c 132,-1,4
 711 -287 711 -287 697 -302 c 4,5,6
 684 -316 684 -316 675 -328.5 c 132,-1,7
 666 -341 666 -341 658.5 -351 c 132,-1,8
 651 -361 651 -361 644 -366.5 c 132,-1,9
 637 -372 637 -372 629 -372 c 4,10,11
 610 -372 610 -372 596.5 -362 c 132,-1,12
 583 -352 583 -352 583 -332 c 4,13,14
 583 -305 583 -305 587 -284 c 132,-1,15
 591 -263 591 -263 601 -236 c 4,16,17
 606 -220 606 -220 615.5 -201.5 c 132,-1,18
 625 -183 625 -183 637 -167.5 c 132,-1,19
 649 -152 649 -152 663.5 -142.5 c 132,-1,20
 678 -133 678 -133 695 -133 c 4,21,22
 713 -133 713 -133 736 -154 c 4,23,24
 774 -188 774 -188 774 -216 c 4,0,1
671 60 m 4,25,26
 671 49 671 49 664 39.5 c 132,-1,27
 657 30 657 30 646 20.5 c 132,-1,28
 635 11 635 11 621 0 c 132,-1,29
 607 -11 607 -11 594 -26 c 4,30,31
 581 -40 581 -40 572 -52.5 c 132,-1,32
 563 -65 563 -65 555.5 -75 c 132,-1,33
 548 -85 548 -85 541 -90.5 c 132,-1,34
 534 -96 534 -96 526 -96 c 4,35,36
 506 -96 506 -96 493 -86 c 132,-1,37
 480 -76 480 -76 480 -56 c 4,38,39
 480 -29 480 -29 484 -8 c 132,-1,40
 488 13 488 13 497 40 c 4,41,42
 503 56 503 56 512 74.5 c 132,-1,43
 521 93 521 93 533 108.5 c 132,-1,44
 545 124 545 124 559.5 133.5 c 132,-1,45
 574 143 574 143 591 143 c 4,46,47
 610 143 610 143 633 122 c 4,48,49
 671 88 671 88 671 60 c 4,25,26
1359 900 m 17,50,-1
 1359 670 l 1,51,-1
 1097 670 l 1,52,53
 1095 640 1095 640 1089 586 c 128,-1,54
 1083 532 1083 532 1077 473 c 128,-1,55
 1071 414 1071 414 1063 361 c 128,-1,56
 1055 308 1055 308 1045 277 c 1,57,-1
 1000 261 l 1,58,59
 960 355 960 355 937.5 459.5 c 128,-1,60
 915 564 915 564 906 670 c 1,61,-1
 697 670 l 1,62,63
 695 640 695 640 689 586 c 128,-1,64
 683 532 683 532 677 473 c 128,-1,65
 671 414 671 414 663 361 c 128,-1,66
 655 308 655 308 645 277 c 1,67,-1
 600 261 l 1,68,69
 560 355 560 355 537.5 459.5 c 128,-1,70
 515 564 515 564 506 670 c 1,71,-1
 297 670 l 1,72,73
 295 640 295 640 289 586 c 128,-1,74
 283 532 283 532 277 473 c 128,-1,75
 271 414 271 414 263 361 c 128,-1,76
 255 308 255 308 245 277 c 1,77,-1
 200 261 l 1,78,79
 160 355 160 355 137.5 459.5 c 128,-1,80
 115 564 115 564 106 670 c 1,81,-1
 -1 670 l 1,82,-1
 -1 900 l 9,83,-1
 1359 900 l 17,50,-1
EndSplineSet
EndChar

StartChar: uniE04D
Encoding: 57421 57421 77
Width: 1672
Flags: W
LayerCount: 2
Fore
SplineSet
1387 362 m 4,0,1
 1387 350 1387 350 1378.5 339.5 c 132,-1,2
 1370 329 1370 329 1359.5 318.5 c 132,-1,3
 1349 308 1349 308 1332.5 296.5 c 132,-1,4
 1316 285 1316 285 1302 268 c 4,5,6
 1288 252 1288 252 1277 237.5 c 132,-1,7
 1266 223 1266 223 1258 212.5 c 132,-1,8
 1250 202 1250 202 1243 196.5 c 132,-1,9
 1236 191 1236 191 1226 191 c 4,10,11
 1205 191 1205 191 1189.5 200 c 132,-1,12
 1174 209 1174 209 1174 235 c 4,13,14
 1174 263 1174 263 1179.5 286.5 c 132,-1,15
 1185 310 1185 310 1194 341 c 4,16,17
 1201 357 1201 357 1210 377.5 c 132,-1,18
 1219 398 1219 398 1233.5 415.5 c 132,-1,19
 1248 433 1248 433 1264 443.5 c 132,-1,20
 1280 454 1280 454 1300 454 c 4,21,22
 1318 454 1318 454 1344 431 c 4,23,24
 1387 393 1387 393 1387 362 c 4,0,1
1135 449 m 4,25,26
 1135 436 1135 436 1126.5 426 c 132,-1,27
 1118 416 1118 416 1107.5 405.5 c 132,-1,28
 1097 395 1097 395 1080.5 382 c 132,-1,29
 1064 369 1064 369 1050 355 c 4,30,31
 1035 339 1035 339 1024.5 324.5 c 132,-1,32
 1014 310 1014 310 1006 300 c 132,-1,33
 998 290 998 290 990.5 282.5 c 132,-1,34
 983 275 983 275 974 275 c 4,35,36
 953 275 953 275 937.5 285.5 c 132,-1,37
 922 296 922 296 922 319 c 4,38,39
 922 350 922 350 927 374 c 132,-1,40
 932 398 932 398 942 425 c 4,41,42
 949 445 949 445 958 465 c 132,-1,43
 967 485 967 485 981.5 501 c 132,-1,44
 996 517 996 517 1012 529 c 132,-1,45
 1028 541 1028 541 1048 541 c 4,46,47
 1066 541 1066 541 1093 517 c 4,48,49
 1135 480 1135 480 1135 449 c 4,25,26
1548 438 m 2,50,-1
 1548 22 l 2,51,52
 1548 -65 1548 -65 1532 -129 c 128,-1,53
 1516 -193 1516 -193 1485.5 -240.5 c 128,-1,54
 1455 -288 1455 -288 1409 -322 c 128,-1,55
 1363 -356 1363 -356 1305 -382 c 0,56,57
 1270 -397 1270 -397 1250.5 -409 c 128,-1,58
 1231 -421 1231 -421 1216.5 -434.5 c 128,-1,59
 1202 -448 1202 -448 1191.5 -466 c 128,-1,60
 1181 -484 1181 -484 1168 -513 c 1,61,-1
 1145 -513 l 1,62,-1
 1211 -226 l 1,63,64
 1225 -222 1225 -222 1238.5 -218 c 128,-1,65
 1252 -214 1252 -214 1268 -209 c 128,-1,66
 1284 -204 1284 -204 1301.5 -194.5 c 128,-1,67
 1319 -185 1319 -185 1345 -170 c 0,68,69
 1360 -161 1360 -161 1379.5 -148 c 128,-1,70
 1399 -135 1399 -135 1415.5 -112.5 c 128,-1,71
 1432 -90 1432 -90 1443.5 -57 c 128,-1,72
 1455 -24 1455 -24 1455 22 c 2,73,-1
 1455 438 l 2,74,75
 1455 552 1455 552 1412.5 611 c 128,-1,76
 1370 670 1370 670 1294 670 c 2,77,-1
 1086 670 l 1,78,-1
 1086 900 l 1,79,-1
 1294 900 l 2,80,81
 1421 900 1421 900 1484.5 785.5 c 128,-1,82
 1548 671 1548 671 1548 438 c 2,50,-1
543 900 m 1,83,84
 543 682 543 682 558 634.5 c 128,-1,85
 573 587 573 587 596.5 547 c 128,-1,86
 620 507 620 507 647 475.5 c 128,-1,87
 674 444 674 444 696 422 c 1,88,89
 696 464 696 464 697 513.5 c 128,-1,90
 698 563 698 563 704 623.5 c 128,-1,91
 710 684 710 684 724 748.5 c 128,-1,92
 738 813 738 813 761 886 c 1,93,94
 799 985 799 985 825 1058 c 128,-1,95
 851 1131 851 1131 868 1185 c 128,-1,96
 885 1239 885 1239 893 1285 c 128,-1,97
 901 1331 901 1331 901 1379 c 0,98,99
 901 1397 901 1397 896 1425 c 128,-1,100
 891 1453 891 1453 884.5 1480 c 128,-1,101
 878 1507 878 1507 871.5 1529.5 c 128,-1,102
 865 1552 865 1552 865 1563 c 0,103,104
 865 1595 865 1595 875 1610.5 c 128,-1,105
 885 1626 885 1626 910 1626 c 0,106,107
 932 1626 932 1626 956.5 1577.5 c 128,-1,108
 981 1529 981 1529 1020 1451 c 0,109,110
 1063 1367 1063 1367 1097.5 1305.5 c 128,-1,111
 1132 1244 1132 1244 1148 1197 c 1,112,113
 1117 1164 1117 1164 1082 1117 c 128,-1,114
 1047 1070 1047 1070 1012 1015.5 c 128,-1,115
 977 961 977 961 945.5 906 c 0,116,117
 918 858 918 858 898 799 c 128,-1,118
 878 740 878 740 860 686 c 128,-1,119
 842 632 842 632 829 568.5 c 128,-1,120
 816 505 816 505 809 423.5 c 128,-1,121
 802 342 802 342 802 226 c 1,122,123
 732 262 732 262 670.5 313.5 c 128,-1,124
 609 365 609 365 563 424.5 c 0,125,126
 521 479 521 479 489 547 c 0,127,128
 460 609 460 609 456 670 c 1,129,-1
 306 670 l 1,130,131
 304 640 304 640 298 586 c 128,-1,132
 292 532 292 532 286 473 c 128,-1,133
 280 414 280 414 272 361 c 128,-1,134
 264 308 264 308 254 277 c 1,135,-1
 209 261 l 1,136,137
 169 355 169 355 146.5 459.5 c 128,-1,138
 124 564 124 564 115 670 c 1,139,-1
 -2 670 l 1,140,-1
 -2 900 l 1,141,-1
 543 900 l 1,83,84
EndSplineSet
EndChar

StartChar: uniE04E
Encoding: 57422 57422 78
Width: 1601
Flags: W
LayerCount: 2
Fore
SplineSet
604 -216 m 4,0,1
 604 -227 604 -227 597 -236.5 c 132,-1,2
 590 -246 590 -246 579.5 -255.5 c 132,-1,3
 569 -265 569 -265 555 -276 c 132,-1,4
 541 -287 541 -287 527 -302 c 4,5,6
 514 -316 514 -316 505 -328.5 c 132,-1,7
 496 -341 496 -341 488.5 -351 c 132,-1,8
 481 -361 481 -361 474 -366.5 c 132,-1,9
 467 -372 467 -372 459 -372 c 4,10,11
 440 -372 440 -372 426.5 -362 c 132,-1,12
 413 -352 413 -352 413 -332 c 4,13,14
 413 -305 413 -305 417 -284 c 132,-1,15
 421 -263 421 -263 431 -236 c 4,16,17
 436 -220 436 -220 445.5 -201.5 c 132,-1,18
 455 -183 455 -183 467 -167.5 c 132,-1,19
 479 -152 479 -152 493.5 -142.5 c 132,-1,20
 508 -133 508 -133 525 -133 c 4,21,22
 543 -133 543 -133 566 -154 c 4,23,24
 604 -188 604 -188 604 -216 c 4,0,1
501 60 m 4,25,26
 501 49 501 49 494 39.5 c 132,-1,27
 487 30 487 30 476 20.5 c 132,-1,28
 465 11 465 11 451 0 c 132,-1,29
 437 -11 437 -11 424 -26 c 4,30,31
 411 -40 411 -40 402 -52.5 c 132,-1,32
 393 -65 393 -65 385.5 -75 c 132,-1,33
 378 -85 378 -85 371 -90.5 c 132,-1,34
 364 -96 364 -96 356 -96 c 4,35,36
 336 -96 336 -96 323 -86 c 132,-1,37
 310 -76 310 -76 310 -56 c 4,38,39
 310 -29 310 -29 314 -8 c 132,-1,40
 318 13 318 13 327 40 c 4,41,42
 333 56 333 56 342 74.5 c 132,-1,43
 351 93 351 93 363 108.5 c 132,-1,44
 375 124 375 124 389.5 133.5 c 132,-1,45
 404 143 404 143 421 143 c 4,46,47
 440 143 440 143 463 122 c 4,48,49
 501 88 501 88 501 60 c 4,25,26
1115 670 m 1,50,-1
 1115 497 l 2,51,52
 1115 423 1115 423 1161 388 c 128,-1,53
 1207 353 1207 353 1281 353 c 0,54,55
 1353 353 1353 353 1393 388 c 128,-1,56
 1433 423 1433 423 1433 497 c 2,57,-1
 1433 670 l 1,58,-1
 1115 670 l 1,50,-1
1699 900 m 17,59,-1
 1699 670 l 1,60,-1
 1503 670 l 1,61,-1
 1503 497 l 2,62,63
 1503 344 1503 344 1449 258.5 c 128,-1,64
 1395 173 1395 173 1279 173 c 0,65,66
 1164 173 1164 173 1106.5 258.5 c 128,-1,67
 1049 344 1049 344 1049 497 c 2,68,-1
 1049 670 l 1,69,-1
 837 670 l 1,70,71
 835 640 835 640 829 586 c 128,-1,72
 823 532 823 532 816.5 473 c 128,-1,73
 810 414 810 414 802 361 c 128,-1,74
 794 308 794 308 785 277 c 1,75,-1
 740 261 l 1,76,77
 700 355 700 355 675 477.5 c 128,-1,78
 650 600 650 600 650 800 c 256,79,80
 650 1000 650 1000 603.5 1084 c 128,-1,81
 557 1168 557 1168 498 1168 c 0,82,83
 456 1168 456 1168 422 1139.5 c 128,-1,84
 388 1111 388 1111 364.5 1062.5 c 128,-1,85
 341 1014 341 1014 327.5 948.5 c 128,-1,86
 314 883 314 883 314 805 c 0,87,88
 314 722 314 722 335.5 664.5 c 128,-1,89
 357 607 357 607 384 560 c 128,-1,90
 411 513 411 513 432 470.5 c 128,-1,91
 453 428 453 428 453 376 c 0,92,93
 453 265 453 265 310 265 c 0,94,95
 277 265 277 265 249 270 c 128,-1,96
 221 275 221 275 201 283.5 c 128,-1,97
 181 292 181 292 169 301 c 0,98,99
 159 309 159 309 159 317 c 2,100,-1
 159 319 l 2,101,102
 161 348 161 348 184.5 362 c 128,-1,103
 208 376 208 376 233 392.5 c 128,-1,104
 258 409 258 409 279 440.5 c 128,-1,105
 300 472 300 472 300 534 c 0,106,107
 300 560 300 560 292 589 c 128,-1,108
 284 618 284 618 267.5 643 c 128,-1,109
 251 668 251 668 227.5 683.5 c 128,-1,110
 204 699 204 699 174 699 c 0,111,112
 159 699 159 699 147.5 694.5 c 128,-1,113
 136 690 136 690 121.5 684 c 128,-1,114
 107 678 107 678 94.5 674 c 128,-1,115
 82 670 82 670 73 670 c 1,116,117
 53 692 53 692 48.5 721.5 c 128,-1,118
 44 751 44 751 44 791 c 0,119,120
 44 827 44 827 54.5 850.5 c 128,-1,121
 65 874 65 874 81.5 886.5 c 128,-1,122
 98 899 98 899 120.5 908 c 128,-1,123
 143 917 143 917 163 928 c 128,-1,124
 183 939 183 939 201 953 c 128,-1,125
 219 967 219 967 228 993 c 0,126,127
 291 1177 291 1177 365.5 1274 c 128,-1,128
 440 1371 440 1371 527 1371 c 0,129,130
 572 1371 572 1371 611.5 1348.5 c 128,-1,131
 651 1326 651 1326 683.5 1278.5 c 128,-1,132
 716 1231 716 1231 734 1158 c 128,-1,133
 752 1085 752 1085 752 984 c 2,134,-1
 751 900 l 9,135,-1
 1699 900 l 17,59,-1
EndSplineSet
EndChar

StartChar: uniE04F
Encoding: 57423 57423 79
Width: 1431
Flags: W
LayerCount: 2
Fore
SplineSet
474 -216 m 4,0,1
 474 -227 474 -227 467 -236.5 c 132,-1,2
 460 -246 460 -246 449.5 -255.5 c 132,-1,3
 439 -265 439 -265 425 -276 c 132,-1,4
 411 -287 411 -287 397 -302 c 4,5,6
 384 -316 384 -316 375 -328.5 c 132,-1,7
 366 -341 366 -341 358.5 -351 c 132,-1,8
 351 -361 351 -361 344 -366.5 c 132,-1,9
 337 -372 337 -372 329 -372 c 4,10,11
 310 -372 310 -372 296.5 -362 c 132,-1,12
 283 -352 283 -352 283 -332 c 4,13,14
 283 -305 283 -305 287 -284 c 132,-1,15
 291 -263 291 -263 301 -236 c 4,16,17
 306 -220 306 -220 315.5 -201.5 c 132,-1,18
 325 -183 325 -183 337 -167.5 c 132,-1,19
 349 -152 349 -152 363.5 -142.5 c 132,-1,20
 378 -133 378 -133 395 -133 c 4,21,22
 413 -133 413 -133 436 -154 c 4,23,24
 474 -188 474 -188 474 -216 c 4,0,1
371 60 m 4,25,26
 371 49 371 49 364 39.5 c 132,-1,27
 357 30 357 30 346 20.5 c 132,-1,28
 335 11 335 11 321 0 c 132,-1,29
 307 -11 307 -11 294 -26 c 4,30,31
 281 -40 281 -40 272 -52.5 c 132,-1,32
 263 -65 263 -65 255.5 -75 c 132,-1,33
 248 -85 248 -85 241 -90.5 c 132,-1,34
 234 -96 234 -96 226 -96 c 4,35,36
 206 -96 206 -96 193 -86 c 132,-1,37
 180 -76 180 -76 180 -56 c 4,38,39
 180 -29 180 -29 184 -8 c 132,-1,40
 188 13 188 13 197 40 c 4,41,42
 203 56 203 56 212 74.5 c 132,-1,43
 221 93 221 93 233 108.5 c 132,-1,44
 245 124 245 124 259.5 133.5 c 132,-1,45
 274 143 274 143 291 143 c 4,46,47
 310 143 310 143 333 122 c 4,48,49
 371 88 371 88 371 60 c 4,25,26
955 670 m 1,50,-1
 955 497 l 2,51,52
 955 423 955 423 1001 388 c 128,-1,53
 1047 353 1047 353 1121 353 c 0,54,55
 1193 353 1193 353 1233 388 c 128,-1,56
 1273 423 1273 423 1273 497 c 2,57,-1
 1273 670 l 1,58,-1
 955 670 l 1,50,-1
1539 900 m 17,59,-1
 1539 670 l 1,60,-1
 1343 670 l 1,61,-1
 1343 497 l 2,62,63
 1343 344 1343 344 1289 258.5 c 128,-1,64
 1235 173 1235 173 1119 173 c 0,65,66
 1004 173 1004 173 946.5 258.5 c 128,-1,67
 889 344 889 344 889 497 c 2,68,-1
 889 670 l 1,69,-1
 677 670 l 1,70,71
 675 640 675 640 669 586 c 128,-1,72
 663 532 663 532 657 473 c 128,-1,73
 651 414 651 414 643 361 c 128,-1,74
 635 308 635 308 625 277 c 1,75,-1
 580 261 l 1,76,77
 540 355 540 355 517.5 459.5 c 128,-1,78
 495 564 495 564 486 670 c 1,79,-1
 277 670 l 1,80,81
 275 640 275 640 269 586 c 128,-1,82
 263 532 263 532 257 473 c 128,-1,83
 251 414 251 414 243 361 c 128,-1,84
 235 308 235 308 225 277 c 1,85,-1
 180 261 l 1,86,87
 140 355 140 355 117.5 459.5 c 128,-1,88
 95 564 95 564 86 670 c 1,89,-1
 -1 670 l 1,90,-1
 -1 900 l 9,91,-1
 1539 900 l 17,59,-1
EndSplineSet
EndChar

StartChar: uniE050
Encoding: 57424 57424 80
Width: 1695
Flags: W
LayerCount: 2
Fore
SplineSet
524 -216 m 0,0,1
 524 -227 524 -227 517 -236.5 c 128,-1,2
 510 -246 510 -246 499.5 -255.5 c 128,-1,3
 489 -265 489 -265 475 -276 c 128,-1,4
 461 -287 461 -287 447 -302 c 0,5,6
 434 -316 434 -316 425 -328.5 c 128,-1,7
 416 -341 416 -341 408.5 -351 c 128,-1,8
 401 -361 401 -361 394 -366.5 c 128,-1,9
 387 -372 387 -372 379 -372 c 0,10,11
 360 -372 360 -372 346.5 -362 c 128,-1,12
 333 -352 333 -352 333 -332 c 0,13,14
 333 -305 333 -305 337 -284 c 128,-1,15
 341 -263 341 -263 351 -236 c 0,16,17
 356 -220 356 -220 365.5 -201.5 c 128,-1,18
 375 -183 375 -183 387 -167.5 c 128,-1,19
 399 -152 399 -152 413.5 -142.5 c 128,-1,20
 428 -133 428 -133 445 -133 c 0,21,22
 463 -133 463 -133 486 -154 c 0,23,24
 524 -188 524 -188 524 -216 c 0,0,1
421 60 m 0,25,26
 421 49 421 49 414 39.5 c 128,-1,27
 407 30 407 30 396 20.5 c 128,-1,28
 385 11 385 11 371 0 c 128,-1,29
 357 -11 357 -11 344 -26 c 0,30,31
 331 -40 331 -40 322 -52.5 c 128,-1,32
 313 -65 313 -65 305.5 -75 c 128,-1,33
 298 -85 298 -85 291 -90.5 c 128,-1,34
 284 -96 284 -96 276 -96 c 0,35,36
 256 -96 256 -96 243 -86 c 128,-1,37
 230 -76 230 -76 230 -56 c 0,38,39
 230 -29 230 -29 234 -8 c 128,-1,40
 238 13 238 13 247 40 c 0,41,42
 253 56 253 56 262 74.5 c 128,-1,43
 271 93 271 93 283 108.5 c 128,-1,44
 295 124 295 124 309.5 133.5 c 128,-1,45
 324 143 324 143 341 143 c 0,46,47
 360 143 360 143 383 122 c 0,48,49
 421 88 421 88 421 60 c 0,25,26
992 670 m 1,50,-1
 1320 670 l 1,51,52
 1320 602 1320 602 1317 543.5 c 128,-1,53
 1314 485 1314 485 1299 443.5 c 128,-1,54
 1284 402 1284 402 1249.5 378.5 c 128,-1,55
 1215 355 1215 355 1154 355 c 256,56,57
 1093 355 1093 355 1060 380 c 128,-1,58
 1027 405 1027 405 1011.5 447.5 c 128,-1,59
 996 490 996 490 994 546 c 128,-1,60
 992 602 992 602 992 670 c 1,50,-1
909 670 m 17,61,62
 909 626 909 626 912.5 573 c 128,-1,63
 916 520 916 520 925.5 464.5 c 128,-1,64
 935 409 935 409 951.5 358.5 c 128,-1,65
 968 308 968 308 996.5 266.5 c 128,-1,66
 1025 225 1025 225 1062.5 201.5 c 128,-1,67
 1100 178 1100 178 1154 178 c 0,68,69
 1225 178 1225 178 1272.5 210 c 128,-1,70
 1320 242 1320 242 1349 296 c 128,-1,71
 1378 350 1378 350 1388.5 417.5 c 128,-1,72
 1399 485 1399 485 1399 555 c 2,73,-1
 1399 791 l 2,74,75
 1399 900 1399 900 1293 900 c 2,76,-1
 996 900 l 1,77,78
 1050 1218 1050 1218 1257 1218 c 0,79,80
 1300 1218 1300 1218 1340.5 1196.5 c 128,-1,81
 1381 1175 1381 1175 1412.5 1132.5 c 128,-1,82
 1444 1090 1444 1090 1470 1024 c 128,-1,83
 1496 958 1496 958 1507 868 c 1,84,85
 1520 812 1520 812 1528 791.5 c 128,-1,86
 1536 771 1536 771 1552 771 c 0,87,88
 1559 771 1559 771 1570 795 c 128,-1,89
 1581 819 1581 819 1581 866 c 0,90,91
 1581 986 1581 986 1559.5 1087.5 c 128,-1,92
 1538 1189 1538 1189 1496.5 1262 c 128,-1,93
 1455 1335 1455 1335 1395.5 1376.5 c 128,-1,94
 1336 1418 1336 1418 1257 1418 c 0,95,96
 1100 1418 1100 1418 1015 1286 c 0,97,98
 929 1153 929 1153 909 900 c 1,99,-1
 0 900 l 1,100,-1
 0 670 l 1,101,-1
 107 670 l 1,102,103
 116 564 116 564 138.5 459.5 c 128,-1,104
 161 355 161 355 201 261 c 1,105,-1
 246 277 l 1,106,107
 256 308 256 308 264 361 c 128,-1,108
 272 414 272 414 278 473 c 128,-1,109
 284 532 284 532 290 586 c 128,-1,110
 296 640 296 640 298 670 c 1,111,-1
 507 670 l 1,112,113
 516 564 516 564 538.5 459.5 c 128,-1,114
 561 355 561 355 601 261 c 1,115,-1
 646 277 l 1,116,117
 656 308 656 308 664 361 c 128,-1,118
 672 414 672 414 678 473 c 128,-1,119
 684 532 684 532 690 586 c 128,-1,120
 696 640 696 640 698 670 c 9,121,-1
 909 670 l 17,61,62
EndSplineSet
EndChar

StartChar: uniE051
Encoding: 57425 57425 81
Width: 1874
Flags: W
LayerCount: 2
Fore
SplineSet
898 670 m 17,0,1
 902 608 902 608 931.5 532.5 c 128,-1,2
 961 457 961 457 1007 383 c 128,-1,3
 1053 309 1053 309 1114 245 c 128,-1,4
 1175 181 1175 181 1246 145 c 1,5,6
 1246 342 1246 342 1302.5 544.5 c 128,-1,7
 1359 747 1359 747 1427 918 c 128,-1,8
 1495 1089 1495 1089 1559.5 1182.5 c 128,-1,9
 1624 1276 1624 1276 1716 1395 c 1,10,11
 1687 1453 1687 1453 1662 1501.5 c 128,-1,12
 1637 1550 1637 1550 1614.5 1597 c 128,-1,13
 1592 1644 1592 1644 1568.5 1691.5 c 128,-1,14
 1545 1739 1545 1739 1514 1797 c 0,15,16
 1500 1821 1500 1821 1487 1838 c 128,-1,17
 1474 1855 1474 1855 1467 1855 c 0,18,19
 1442 1855 1442 1855 1433 1839.5 c 128,-1,20
 1424 1824 1424 1824 1424 1790 c 0,21,22
 1424 1781 1424 1781 1430.5 1751.5 c 128,-1,23
 1437 1722 1437 1722 1443 1687.5 c 128,-1,24
 1449 1653 1449 1653 1454.5 1619.5 c 128,-1,25
 1460 1586 1460 1586 1460 1560 c 0,26,27
 1460 1520 1460 1520 1420 1370.5 c 128,-1,28
 1380 1221 1380 1221 1293.5 1003 c 128,-1,29
 1207 785 1207 785 1178.5 655.5 c 128,-1,30
 1150 526 1150 526 1144 463 c 0,31,32
 1141 437 1141 437 1141 416 c 0,33,34
 1141 383 1141 383 1147 365 c 1,35,36
 1123 385 1123 385 1096 431.5 c 128,-1,37
 1069 478 1069 478 1043 536 c 128,-1,38
 1017 594 1017 594 999.5 654 c 128,-1,39
 982 714 982 714 982 761 c 2,40,-1
 982 900 l 1,41,-1
 597 900 l 1,42,-1
 597 1023 l 2,43,44
 597 1103 597 1103 572.5 1156.5 c 128,-1,45
 548 1210 548 1210 503 1223 c 1,46,-1
 476 1400 l 1,47,-1
 526 1400 l 2,48,49
 630 1400 630 1400 679 1457.5 c 128,-1,50
 728 1515 728 1515 728 1607 c 0,51,52
 728 1642 728 1642 720 1676 c 128,-1,53
 712 1710 712 1710 687 1743 c 1,54,55
 680 1698 680 1698 668 1667 c 128,-1,56
 656 1636 656 1636 635.5 1616.5 c 128,-1,57
 615 1597 615 1597 584 1589.5 c 128,-1,58
 553 1582 553 1582 510 1582 c 0,59,60
 469 1582 469 1582 436.5 1573 c 128,-1,61
 404 1564 404 1564 390 1552 c 1,62,-1
 443 1222 l 1,63,64
 403 1208 403 1208 350 1165.5 c 128,-1,65
 297 1123 297 1123 227 1043 c 0,66,67
 209 1023 209 1023 191.5 1001.5 c 128,-1,68
 174 980 174 980 160 966 c 1,69,70
 160 955 160 955 171 939 c 128,-1,71
 182 923 182 923 196 909 c 1,72,73
 204 909 204 909 221 925.5 c 128,-1,74
 238 942 238 942 269 963 c 0,75,76
 289 976 289 976 304.5 985 c 128,-1,77
 320 994 320 994 334.5 1000 c 128,-1,78
 349 1006 349 1006 365 1009 c 128,-1,79
 381 1012 381 1012 400 1012 c 0,80,81
 429 1012 429 1012 441 981 c 128,-1,82
 453 950 453 950 453 900 c 2,83,-1
 453 710 l 2,84,85
 453 682 453 682 459 629.5 c 128,-1,86
 465 577 465 577 477.5 514 c 128,-1,87
 490 451 490 451 508 385 c 128,-1,88
 526 319 526 319 551 264 c 1,89,-1
 597 278 l 1,90,91
 613 377 613 377 626.5 476 c 128,-1,92
 640 575 640 575 644 670 c 9,93,-1
 898 670 l 17,0,1
EndSplineSet
EndChar

StartChar: uniE052
Encoding: 57426 57426 82
Width: 1533
Flags: W
LayerCount: 2
Fore
SplineSet
878 670 m 17,0,1
 878 617 878 617 898.5 550.5 c 128,-1,2
 919 484 919 484 954 413 c 128,-1,3
 989 342 989 342 1032.5 276 c 128,-1,4
 1076 210 1076 210 1119 161 c 1,5,-1
 1139 161 l 1,6,-1
 1200 361 l 1,7,8
 1186 375 1186 375 1101 451 c 128,-1,9
 1016 527 1016 527 974 628 c 128,-1,10
 932 729 932 729 932 792 c 0,11,12
 932 869 932 869 946 937.5 c 128,-1,13
 960 1006 960 1006 990 1057.5 c 128,-1,14
 1020 1109 1020 1109 1060.5 1139 c 128,-1,15
 1101 1169 1101 1169 1159 1169 c 0,16,17
 1208 1169 1208 1169 1240 1134.5 c 128,-1,18
 1272 1100 1272 1100 1291 1048.5 c 128,-1,19
 1310 997 1310 997 1323.5 937 c 128,-1,20
 1337 877 1337 877 1349 822 c 0,21,22
 1354 804 1354 804 1362 787 c 128,-1,23
 1370 770 1370 770 1382 770 c 0,24,25
 1398 770 1398 770 1403 788 c 128,-1,26
 1408 806 1408 806 1408 846 c 0,27,28
 1408 940 1408 940 1397.5 1034.5 c 128,-1,29
 1387 1129 1387 1129 1358.5 1204.5 c 128,-1,30
 1330 1280 1330 1280 1280.5 1327 c 128,-1,31
 1231 1374 1231 1374 1161 1374 c 0,32,33
 1036 1374 1036 1374 965 1250.5 c 128,-1,34
 894 1127 894 1127 878 900 c 1,35,-1
 563 900 l 1,36,-1
 563 1023 l 2,37,38
 563 1103 563 1103 538.5 1156.5 c 128,-1,39
 514 1210 514 1210 469 1223 c 1,40,-1
 442 1400 l 1,41,-1
 492 1400 l 2,42,43
 596 1400 596 1400 645 1457.5 c 128,-1,44
 694 1515 694 1515 694 1607 c 0,45,46
 694 1642 694 1642 686 1676 c 128,-1,47
 678 1710 678 1710 653 1743 c 1,48,49
 646 1698 646 1698 634 1667 c 128,-1,50
 622 1636 622 1636 601.5 1616.5 c 128,-1,51
 581 1597 581 1597 550 1589.5 c 128,-1,52
 519 1582 519 1582 476 1582 c 0,53,54
 435 1582 435 1582 402.5 1573 c 128,-1,55
 370 1564 370 1564 356 1552 c 1,56,-1
 409 1222 l 1,57,58
 369 1208 369 1208 316 1165.5 c 128,-1,59
 263 1123 263 1123 193 1043 c 0,60,61
 175 1023 175 1023 157.5 1001.5 c 128,-1,62
 140 980 140 980 126 966 c 1,63,64
 126 955 126 955 137 939 c 128,-1,65
 148 923 148 923 162 909 c 1,66,67
 170 909 170 909 187 925.5 c 128,-1,68
 204 942 204 942 235 963 c 0,69,70
 255 976 255 976 270.5 985 c 128,-1,71
 286 994 286 994 300.5 1000 c 128,-1,72
 315 1006 315 1006 331 1009 c 128,-1,73
 347 1012 347 1012 366 1012 c 0,74,75
 395 1012 395 1012 407 981 c 128,-1,76
 419 950 419 950 419 900 c 2,77,-1
 419 710 l 2,78,79
 419 682 419 682 425 629.5 c 128,-1,80
 431 577 431 577 443.5 514 c 128,-1,81
 456 451 456 451 474 385 c 128,-1,82
 492 319 492 319 517 264 c 1,83,-1
 563 278 l 1,84,85
 579 377 579 377 592.5 476 c 128,-1,86
 606 575 606 575 610 670 c 9,87,-1
 878 670 l 17,0,1
EndSplineSet
EndChar

StartChar: uniE055
Encoding: 57429 57429 83
Width: 1225
Flags: W
LayerCount: 2
Fore
SplineSet
884 670 m 17,0,1
 893 564 893 564 915.5 459.5 c 128,-1,2
 938 355 938 355 978 261 c 1,3,-1
 1023 277 l 1,4,5
 1033 308 1033 308 1041 361 c 128,-1,6
 1049 414 1049 414 1055 473 c 128,-1,7
 1061 532 1061 532 1067 586 c 128,-1,8
 1073 640 1073 640 1075 670 c 1,9,-1
 1337 670 l 1,10,-1
 1337 900 l 1,11,-1
 572 900 l 1,12,-1
 572 1023 l 2,13,14
 572 1103 572 1103 547.5 1156.5 c 128,-1,15
 523 1210 523 1210 478 1223 c 1,16,-1
 451 1400 l 1,17,-1
 501 1400 l 2,18,19
 605 1400 605 1400 654 1457.5 c 128,-1,20
 703 1515 703 1515 703 1607 c 0,21,22
 703 1642 703 1642 695 1676 c 128,-1,23
 687 1710 687 1710 662 1743 c 1,24,25
 655 1698 655 1698 643 1667 c 128,-1,26
 631 1636 631 1636 610.5 1616.5 c 128,-1,27
 590 1597 590 1597 559 1589.5 c 128,-1,28
 528 1582 528 1582 485 1582 c 0,29,30
 444 1582 444 1582 411.5 1573 c 128,-1,31
 379 1564 379 1564 365 1552 c 1,32,-1
 418 1222 l 1,33,34
 378 1208 378 1208 325 1165.5 c 128,-1,35
 272 1123 272 1123 202 1043 c 0,36,37
 184 1023 184 1023 166.5 1001.5 c 128,-1,38
 149 980 149 980 135 966 c 1,39,40
 135 955 135 955 146 939 c 128,-1,41
 157 923 157 923 171 909 c 1,42,43
 179 909 179 909 196 925.5 c 128,-1,44
 213 942 213 942 244 963 c 0,45,46
 264 976 264 976 279.5 985 c 128,-1,47
 295 994 295 994 309.5 1000 c 128,-1,48
 324 1006 324 1006 340 1009 c 128,-1,49
 356 1012 356 1012 375 1012 c 0,50,51
 404 1012 404 1012 416 981 c 128,-1,52
 428 950 428 950 428 900 c 2,53,-1
 428 710 l 2,54,55
 428 682 428 682 434 629.5 c 128,-1,56
 440 577 440 577 452.5 514 c 128,-1,57
 465 451 465 451 483 385 c 128,-1,58
 501 319 501 319 526 264 c 1,59,-1
 572 278 l 1,60,61
 588 377 588 377 601.5 476 c 128,-1,62
 615 575 615 575 619 670 c 9,63,-1
 884 670 l 17,0,1
EndSplineSet
EndChar

StartChar: uniE056
Encoding: 57430 57430 84
Width: 878
Flags: W
LayerCount: 2
Fore
SplineSet
527 670 m 21,0,1
 536 564 536 564 558.5 459.5 c 132,-1,2
 581 355 581 355 621 261 c 5,3,-1
 666 277 l 5,4,5
 676 308 676 308 684 361 c 132,-1,6
 692 414 692 414 698 473 c 132,-1,7
 704 532 704 532 710 586 c 132,-1,8
 716 640 716 640 718 670 c 5,9,-1
 980 670 l 5,10,-1
 980 900 l 5,11,-1
 219 900 l 5,12,-1
 188 1144 l 5,13,-1
 238 1144 l 6,14,15
 341 1144 341 1144 390.5 1200.5 c 132,-1,16
 440 1257 440 1257 440 1351 c 4,17,18
 440 1387 440 1387 432 1419.5 c 132,-1,19
 424 1452 424 1452 401 1486 c 5,20,21
 393 1441 393 1441 381.5 1410.5 c 132,-1,22
 370 1380 370 1380 348.5 1359.5 c 132,-1,23
 327 1339 327 1339 296.5 1332.5 c 132,-1,24
 266 1326 266 1326 221 1326 c 4,25,26
 179 1326 179 1326 147.5 1316 c 132,-1,27
 116 1306 116 1306 101 1295 c 5,28,-1
 161 900 l 5,29,-1
 0 900 l 5,30,-1
 0 670 l 5,31,-1
 127 670 l 5,32,33
 136 564 136 564 158.5 459.5 c 132,-1,34
 181 355 181 355 221 261 c 5,35,-1
 266 277 l 5,36,37
 276 308 276 308 284 361 c 132,-1,38
 292 414 292 414 298 473 c 132,-1,39
 304 532 304 532 310 586 c 132,-1,40
 316 640 316 640 318 670 c 13,41,-1
 527 670 l 21,0,1
EndSplineSet
EndChar

StartChar: uniE057
Encoding: 57431 57431 85
Width: 1567
Flags: W
LayerCount: 2
Fore
SplineSet
689 900 m 21,0,-1
 689 761 l 6,1,2
 689 714 689 714 706.5 654 c 132,-1,3
 724 594 724 594 750 536 c 132,-1,4
 776 478 776 478 803 431.5 c 132,-1,5
 830 385 830 385 854 365 c 5,6,7
 848 383 848 383 848 416 c 4,8,9
 848 437 848 437 851 463 c 4,10,11
 857 526 857 526 885.5 655.5 c 132,-1,12
 914 785 914 785 1000.5 1003 c 132,-1,13
 1087 1221 1087 1221 1127 1370.5 c 132,-1,14
 1167 1520 1167 1520 1167 1560 c 4,15,16
 1167 1586 1167 1586 1161.5 1619.5 c 132,-1,17
 1156 1653 1156 1653 1150 1687.5 c 132,-1,18
 1144 1722 1144 1722 1137.5 1751.5 c 132,-1,19
 1131 1781 1131 1781 1131 1790 c 4,20,21
 1131 1824 1131 1824 1140 1839.5 c 132,-1,22
 1149 1855 1149 1855 1174 1855 c 4,23,24
 1181 1855 1181 1855 1194 1838 c 132,-1,25
 1207 1821 1207 1821 1221 1797 c 4,26,27
 1252 1739 1252 1739 1275.5 1691.5 c 132,-1,28
 1299 1644 1299 1644 1321.5 1597 c 132,-1,29
 1344 1550 1344 1550 1369 1501.5 c 132,-1,30
 1394 1453 1394 1453 1423 1395 c 5,31,32
 1331 1276 1331 1276 1266.5 1182.5 c 132,-1,33
 1202 1089 1202 1089 1134 918 c 132,-1,34
 1066 747 1066 747 1009.5 544.5 c 132,-1,35
 953 342 953 342 953 145 c 5,36,37
 882 181 882 181 821 245 c 132,-1,38
 760 309 760 309 714 383 c 132,-1,39
 668 457 668 457 638.5 532.5 c 132,-1,40
 609 608 609 608 605 670 c 5,41,-1
 308 670 l 5,42,43
 306 640 306 640 300 586 c 132,-1,44
 294 532 294 532 288 473 c 132,-1,45
 282 414 282 414 274 361 c 132,-1,46
 266 308 266 308 256 277 c 5,47,-1
 211 261 l 5,48,49
 171 355 171 355 148.5 459.5 c 132,-1,50
 126 564 126 564 117 670 c 5,51,-1
 0 670 l 5,52,-1
 0 900 l 5,53,-1
 151 900 l 5,54,-1
 91 1295 l 5,55,56
 106 1306 106 1306 137.5 1316 c 132,-1,57
 169 1326 169 1326 211 1326 c 4,58,59
 256 1326 256 1326 286.5 1332.5 c 132,-1,60
 317 1339 317 1339 338.5 1359.5 c 132,-1,61
 360 1380 360 1380 371.5 1410.5 c 132,-1,62
 383 1441 383 1441 391 1486 c 5,63,64
 414 1452 414 1452 422 1419.5 c 132,-1,65
 430 1387 430 1387 430 1351 c 4,66,67
 430 1257 430 1257 380.5 1200.5 c 132,-1,68
 331 1144 331 1144 228 1144 c 6,69,-1
 178 1144 l 5,70,-1
 209 900 l 13,71,-1
 689 900 l 21,0,-1
EndSplineSet
EndChar

StartChar: uniE058
Encoding: 57432 57432 86
Width: 1394
Flags: W
LayerCount: 2
Fore
SplineSet
1270 438 m 2,0,-1
 1270 22 l 2,1,2
 1270 -65 1270 -65 1254 -129 c 128,-1,3
 1238 -193 1238 -193 1207.5 -240.5 c 128,-1,4
 1177 -288 1177 -288 1131 -322 c 128,-1,5
 1085 -356 1085 -356 1027 -382 c 0,6,7
 992 -397 992 -397 972.5 -409 c 128,-1,8
 953 -421 953 -421 938.5 -434.5 c 128,-1,9
 924 -448 924 -448 913.5 -466 c 128,-1,10
 903 -484 903 -484 890 -513 c 1,11,-1
 867 -513 l 1,12,-1
 933 -226 l 1,13,14
 947 -222 947 -222 960.5 -218 c 128,-1,15
 974 -214 974 -214 990 -209 c 128,-1,16
 1006 -204 1006 -204 1023.5 -194.5 c 128,-1,17
 1041 -185 1041 -185 1067 -170 c 0,18,19
 1082 -161 1082 -161 1101.5 -148 c 128,-1,20
 1121 -135 1121 -135 1137.5 -112.5 c 128,-1,21
 1154 -90 1154 -90 1165.5 -57 c 128,-1,22
 1177 -24 1177 -24 1177 22 c 2,23,-1
 1177 438 l 2,24,25
 1177 552 1177 552 1134.5 611 c 128,-1,26
 1092 670 1092 670 1016 670 c 2,27,-1
 808 670 l 1,28,-1
 808 900 l 1,29,-1
 1016 900 l 2,30,31
 1143 900 1143 900 1206.5 785.5 c 128,-1,32
 1270 671 1270 671 1270 438 c 2,0,-1
857 1198 m 1,33,34
 831 1155 831 1155 799 1104.5 c 128,-1,35
 767 1054 767 1054 736.5 1001 c 128,-1,36
 706 948 706 948 679 893 c 0,37,38
 645 824 645 824 632 786 c 0,39,40
 612 728 612 728 590.5 657 c 128,-1,41
 569 586 569 586 553 504.5 c 128,-1,42
 537 423 537 423 525 332.5 c 128,-1,43
 513 242 513 242 513 141 c 1,44,45
 443 178 443 178 380 243 c 128,-1,46
 317 308 317 308 270 381 c 128,-1,47
 223 454 223 454 195 530.5 c 128,-1,48
 167 607 167 607 160 670 c 1,49,-1
 0 670 l 1,50,-1
 0 900 l 1,51,-1
 126 900 l 1,52,-1
 70 1295 l 1,53,54
 82 1308 82 1308 115 1318 c 128,-1,55
 148 1328 148 1328 187 1328 c 0,56,57
 232 1328 232 1328 264.5 1335 c 128,-1,58
 297 1342 297 1342 316.5 1362 c 128,-1,59
 336 1382 336 1382 349 1412.5 c 128,-1,60
 362 1443 362 1443 367 1488 c 1,61,62
 393 1454 393 1454 401 1420.5 c 128,-1,63
 409 1387 409 1387 409 1351 c 0,64,65
 409 1259 409 1259 359.5 1201.5 c 0,66,67
 307.126953125 1140.14941406 307.126953125 1140.14941406 207 1144 c 2,68,-1
 155 1146 l 1,69,-1
 185 900 l 1,70,-1
 247 900 l 1,71,-1
 247 760 l 2,72,73
 247 713 247 713 262 655.5 c 128,-1,74
 277 598 277 598 301.5 541.5 c 128,-1,75
 326 485 326 485 353.5 441.5 c 128,-1,76
 381 398 381 398 402 376 c 1,77,78
 402 418 402 418 408 476 c 128,-1,79
 414 534 414 534 424.5 600 c 128,-1,80
 435 666 435 666 452.5 737.5 c 128,-1,81
 470 809 470 809 499 885 c 1,82,83
 531 984 531 984 551 1056 c 128,-1,84
 571 1128 571 1128 581 1182 c 128,-1,85
 591 1236 591 1236 593.5 1279.5 c 128,-1,86
 596 1323 596 1323 596 1371 c 0,87,88
 596 1391 596 1391 589.5 1425 c 128,-1,89
 583 1459 583 1459 576 1493.5 c 128,-1,90
 569 1528 569 1528 564.5 1556 c 128,-1,91
 560 1584 560 1584 560 1596 c 0,92,93
 560 1629 560 1629 569 1644.5 c 128,-1,94
 578 1660 578 1660 605 1660 c 0,95,96
 614 1660 614 1660 628.5 1642.5 c 128,-1,97
 643 1625 643 1625 658 1596.5 c 128,-1,98
 673 1568 673 1568 690.5 1529 c 0,99,100
 715 1474 715 1474 727 1452 c 0,101,102
 772 1368 772 1368 807.5 1306.5 c 128,-1,103
 843 1245 843 1245 857 1198 c 1,33,34
EndSplineSet
EndChar

StartChar: uniE059
Encoding: 57433 57433 87
Width: 1328
Flags: W
LayerCount: 2
Fore
SplineSet
888 876 m 1049,0,-1
878 670 m 17,1,-1
 1141 4 l 1,2,-1
 1171 4 l 1,3,-1
 1226 267 l 1,4,-1
 1226 298 l 1,5,-1
 965 670 l 1,6,-1
 1438 670 l 1,7,-1
 1438 900 l 1,8,-1
 573 900 l 1,9,-1
 573 1023 l 2,10,11
 573 1103 573 1103 548.5 1156.5 c 128,-1,12
 524 1210 524 1210 479 1223 c 1,13,-1
 452 1400 l 1,14,-1
 502 1400 l 2,15,16
 606 1400 606 1400 655 1457.5 c 128,-1,17
 704 1515 704 1515 704 1607 c 0,18,19
 704 1642 704 1642 696 1676 c 128,-1,20
 688 1710 688 1710 663 1743 c 1,21,22
 656 1698 656 1698 644 1667 c 128,-1,23
 632 1636 632 1636 611.5 1616.5 c 128,-1,24
 591 1597 591 1597 560 1589.5 c 128,-1,25
 529 1582 529 1582 486 1582 c 0,26,27
 445 1582 445 1582 412.5 1573 c 128,-1,28
 380 1564 380 1564 366 1552 c 1,29,-1
 419 1222 l 1,30,31
 379 1208 379 1208 326 1165.5 c 128,-1,32
 273 1123 273 1123 203 1043 c 0,33,34
 185 1023 185 1023 167.5 1001.5 c 128,-1,35
 150 980 150 980 136 966 c 1,36,37
 136 955 136 955 147 939 c 128,-1,38
 158 923 158 923 172 909 c 1,39,40
 180 909 180 909 197 925.5 c 128,-1,41
 214 942 214 942 245 963 c 0,42,43
 265 976 265 976 280.5 985 c 128,-1,44
 296 994 296 994 310.5 1000 c 128,-1,45
 325 1006 325 1006 341 1009 c 128,-1,46
 357 1012 357 1012 376 1012 c 0,47,48
 405 1012 405 1012 417 981 c 128,-1,49
 429 950 429 950 429 900 c 2,50,-1
 429 710 l 2,51,52
 429 682 429 682 435 629.5 c 128,-1,53
 441 577 441 577 453.5 514 c 128,-1,54
 466 451 466 451 484 385 c 128,-1,55
 502 319 502 319 527 264 c 1,56,-1
 573 278 l 1,57,58
 589 377 589 377 602.5 476 c 128,-1,59
 616 575 616 575 620 670 c 9,60,-1
 878 670 l 17,1,-1
EndSplineSet
EndChar

StartChar: uniE05A
Encoding: 57434 57434 88
Width: 1059
Flags: W
LayerCount: 2
Fore
SplineSet
1170 900 m 17,0,-1
 1170 670 l 1,1,-1
 697 670 l 1,2,-1
 958 298 l 1,3,-1
 958 267 l 1,4,-1
 903 4 l 1,5,-1
 873 4 l 1,6,-1
 610 670 l 1,7,-1
 308 670 l 1,8,9
 306 640 306 640 300 586 c 128,-1,10
 294 532 294 532 288 473 c 128,-1,11
 282 414 282 414 274 361 c 128,-1,12
 266 308 266 308 256 277 c 1,13,-1
 211 261 l 1,14,15
 171 355 171 355 148.5 459.5 c 128,-1,16
 126 564 126 564 117 670 c 1,17,-1
 0 670 l 1,18,-1
 0 900 l 1,19,-1
 151 900 l 1,20,-1
 91 1295 l 1,21,22
 106 1306 106 1306 137.5 1316 c 128,-1,23
 169 1326 169 1326 211 1326 c 0,24,25
 256 1326 256 1326 286.5 1332.5 c 128,-1,26
 317 1339 317 1339 338.5 1359.5 c 128,-1,27
 360 1380 360 1380 371.5 1410.5 c 128,-1,28
 383 1441 383 1441 391 1486 c 1,29,30
 414 1452 414 1452 422 1419.5 c 128,-1,31
 430 1387 430 1387 430 1351 c 0,32,33
 430 1257 430 1257 380.5 1200.5 c 128,-1,34
 331 1144 331 1144 228 1144 c 2,35,-1
 178 1144 l 1,36,-1
 209 900 l 9,37,-1
 1170 900 l 17,0,-1
EndSplineSet
EndChar

StartChar: uniE05B
Encoding: 57435 57435 89
Width: 1159
Flags: W
LayerCount: 2
Fore
SplineSet
520 900 m 17,0,1
 536 1127 536 1127 607 1250.5 c 128,-1,2
 678 1374 678 1374 803 1374 c 0,3,4
 873 1374 873 1374 922.5 1327 c 128,-1,5
 972 1280 972 1280 1000.5 1204.5 c 128,-1,6
 1029 1129 1029 1129 1039.5 1034.5 c 128,-1,7
 1050 940 1050 940 1050 846 c 0,8,9
 1050 806 1050 806 1045 788 c 128,-1,10
 1040 770 1040 770 1024 770 c 0,11,12
 1012 770 1012 770 1004 787 c 0,13,14
 994 808 994 808 991 822 c 0,15,16
 979 877 979 877 965.5 937 c 128,-1,17
 952 997 952 997 933 1048.5 c 128,-1,18
 914 1100 914 1100 882 1134.5 c 128,-1,19
 850 1169 850 1169 801 1169 c 0,20,21
 743 1169 743 1169 702.5 1139 c 128,-1,22
 662 1109 662 1109 632 1057.5 c 128,-1,23
 602 1006 602 1006 588 937.5 c 128,-1,24
 574 869 574 869 574 792 c 0,25,26
 574 729 574 729 616 628 c 128,-1,27
 658 527 658 527 743 451 c 128,-1,28
 828 375 828 375 842 361 c 1,29,-1
 781 161 l 1,30,-1
 761 161 l 1,31,32
 718 210 718 210 674.5 276 c 128,-1,33
 631 342 631 342 596 413 c 128,-1,34
 561 484 561 484 540.5 550.5 c 128,-1,35
 520 617 520 617 520 670 c 1,36,-1
 308 670 l 1,37,38
 306 640 306 640 300 586 c 128,-1,39
 294 532 294 532 288 473 c 128,-1,40
 282 414 282 414 274 361 c 128,-1,41
 266 308 266 308 256 277 c 1,42,-1
 211 261 l 1,43,44
 171 355 171 355 148.5 459.5 c 128,-1,45
 126 564 126 564 117 670 c 1,46,-1
 0 670 l 1,47,-1
 0 900 l 1,48,-1
 151 900 l 1,49,-1
 91 1295 l 1,50,51
 106 1306 106 1306 137.5 1316 c 128,-1,52
 169 1326 169 1326 211 1326 c 0,53,54
 256 1326 256 1326 286.5 1332.5 c 128,-1,55
 317 1339 317 1339 338.5 1359.5 c 128,-1,56
 360 1380 360 1380 371.5 1410.5 c 128,-1,57
 383 1441 383 1441 391 1486 c 1,58,59
 414 1452 414 1452 422 1419.5 c 128,-1,60
 430 1387 430 1387 430 1351 c 0,61,62
 430 1257 430 1257 380.5 1200.5 c 128,-1,63
 331 1144 331 1144 228 1144 c 2,64,-1
 178 1144 l 1,65,-1
 209 900 l 9,66,-1
 520 900 l 17,0,1
EndSplineSet
EndChar

StartChar: uniE053
Encoding: 57427 57427 90
Width: 1452
Flags: W
LayerCount: 2
Fore
SplineSet
938 670 m 5,0,-1
 1256 670 l 5,1,-1
 1256 497 l 6,2,3
 1256 423 1256 423 1216 388 c 132,-1,4
 1176 353 1176 353 1104 353 c 4,5,6
 1030 353 1030 353 984 388 c 132,-1,7
 938 423 938 423 938 497 c 6,8,-1
 938 670 l 5,0,-1
872 670 m 17,9,-1
 872 497 l 2,10,11
 872 344 872 344 929.5 258.5 c 128,-1,12
 987 173 987 173 1102 173 c 0,13,14
 1218 173 1218 173 1272 258.5 c 128,-1,15
 1326 344 1326 344 1326 497 c 2,16,-1
 1326 900 l 1,17,-1
 557 900 l 1,18,-1
 557 1023 l 2,19,20
 557 1103 557 1103 532.5 1156.5 c 128,-1,21
 508 1210 508 1210 463 1223 c 1,22,-1
 436 1400 l 1,23,-1
 486 1400 l 2,24,25
 590 1400 590 1400 639 1457.5 c 128,-1,26
 688 1515 688 1515 688 1607 c 0,27,28
 688 1642 688 1642 680 1676 c 128,-1,29
 672 1710 672 1710 647 1743 c 1,30,31
 640 1698 640 1698 628 1667 c 128,-1,32
 616 1636 616 1636 595.5 1616.5 c 128,-1,33
 575 1597 575 1597 544 1589.5 c 128,-1,34
 513 1582 513 1582 470 1582 c 0,35,36
 429 1582 429 1582 396.5 1573 c 128,-1,37
 364 1564 364 1564 350 1552 c 1,38,-1
 403 1222 l 1,39,40
 363 1208 363 1208 310 1165.5 c 128,-1,41
 257 1123 257 1123 187 1043 c 0,42,43
 169 1023 169 1023 151.5 1001.5 c 128,-1,44
 134 980 134 980 120 966 c 1,45,46
 120 955 120 955 131 939 c 128,-1,47
 142 923 142 923 156 909 c 1,48,49
 164 909 164 909 181 925.5 c 128,-1,50
 198 942 198 942 229 963 c 0,51,52
 249 976 249 976 264.5 985 c 128,-1,53
 280 994 280 994 294.5 1000 c 128,-1,54
 309 1006 309 1006 325 1009 c 128,-1,55
 341 1012 341 1012 360 1012 c 0,56,57
 389 1012 389 1012 401 981 c 128,-1,58
 413 950 413 950 413 900 c 2,59,-1
 413 710 l 2,60,61
 413 682 413 682 419 629.5 c 128,-1,62
 425 577 425 577 437.5 514 c 128,-1,63
 450 451 450 451 468 385 c 128,-1,64
 486 319 486 319 511 264 c 1,65,-1
 557 278 l 1,66,67
 573 377 573 377 586.5 476 c 128,-1,68
 600 575 600 575 604 670 c 9,69,-1
 872 670 l 17,9,-1
EndSplineSet
EndChar

